G04 #@! TF.GenerationSoftware,KiCad,Pcbnew,8.0.6-8.0.6-0~ubuntu24.04.1*
G04 #@! TF.CreationDate,2024-10-30T09:26:46+01:00*
G04 #@! TF.ProjectId,clock_pcb,636c6f63-6b5f-4706-9362-2e6b69636164,rev?*
G04 #@! TF.SameCoordinates,Original*
G04 #@! TF.FileFunction,Copper,L2,Bot*
G04 #@! TF.FilePolarity,Positive*
%FSLAX46Y46*%
G04 Gerber Fmt 4.6, Leading zero omitted, Abs format (unit mm)*
G04 Created by KiCad (PCBNEW 8.0.6-8.0.6-0~ubuntu24.04.1) date 2024-10-30 09:26:46*
%MOMM*%
%LPD*%
G01*
G04 APERTURE LIST*
G04 Aperture macros list*
%AMRoundRect*
0 Rectangle with rounded corners*
0 $1 Rounding radius*
0 $2 $3 $4 $5 $6 $7 $8 $9 X,Y pos of 4 corners*
0 Add a 4 corners polygon primitive as box body*
4,1,4,$2,$3,$4,$5,$6,$7,$8,$9,$2,$3,0*
0 Add four circle primitives for the rounded corners*
1,1,$1+$1,$2,$3*
1,1,$1+$1,$4,$5*
1,1,$1+$1,$6,$7*
1,1,$1+$1,$8,$9*
0 Add four rect primitives between the rounded corners*
20,1,$1+$1,$2,$3,$4,$5,0*
20,1,$1+$1,$4,$5,$6,$7,0*
20,1,$1+$1,$6,$7,$8,$9,0*
20,1,$1+$1,$8,$9,$2,$3,0*%
G04 Aperture macros list end*
G04 #@! TA.AperFunction,HeatsinkPad*
%ADD10C,1.700000*%
G04 #@! TD*
G04 #@! TA.AperFunction,HeatsinkPad*
%ADD11C,2.000000*%
G04 #@! TD*
G04 #@! TA.AperFunction,ComponentPad*
%ADD12R,1.700000X2.200000*%
G04 #@! TD*
G04 #@! TA.AperFunction,ComponentPad*
%ADD13O,1.700000X2.200000*%
G04 #@! TD*
G04 #@! TA.AperFunction,ComponentPad*
%ADD14O,1.524000X2.000000*%
G04 #@! TD*
G04 #@! TA.AperFunction,SMDPad,CuDef*
%ADD15RoundRect,0.384616X-0.615384X-0.615384X0.615384X-0.615384X0.615384X0.615384X-0.615384X0.615384X0*%
G04 #@! TD*
G04 #@! TA.AperFunction,ViaPad*
%ADD16C,0.600000*%
G04 #@! TD*
G04 #@! TA.AperFunction,Conductor*
%ADD17C,0.500000*%
G04 #@! TD*
G04 #@! TA.AperFunction,Conductor*
%ADD18C,0.200000*%
G04 #@! TD*
G04 APERTURE END LIST*
D10*
X112305000Y-120030000D03*
D11*
X112075000Y-118110000D03*
X110375000Y-119870000D03*
D10*
X110155000Y-117900000D03*
D12*
X108680000Y-105050000D03*
D13*
X111220000Y-105050000D03*
X113760000Y-105050000D03*
X116300000Y-105050000D03*
X118840000Y-105050000D03*
D14*
X123210000Y-124300000D03*
X125750000Y-124300000D03*
X117560000Y-102200000D03*
X115020000Y-102200000D03*
X112480000Y-102200000D03*
X109940000Y-102200000D03*
D15*
X101500000Y-101100000D03*
X105100000Y-101100000D03*
X122600000Y-101100000D03*
X126200000Y-101100000D03*
D16*
X107760000Y-110780000D03*
X125370000Y-112940000D03*
X126800000Y-117220000D03*
X108310000Y-116260000D03*
X122600000Y-117140000D03*
X127050000Y-102880000D03*
X114690000Y-116600000D03*
X126880000Y-126760000D03*
X120110000Y-122950000D03*
X108300000Y-120270000D03*
X125240000Y-110590000D03*
X127010000Y-122040000D03*
X102730000Y-127120000D03*
X101030000Y-107550000D03*
X105160000Y-106840000D03*
X102900000Y-110780000D03*
X114790000Y-110780000D03*
X107220000Y-100970000D03*
X120550000Y-104880000D03*
X120070000Y-108350000D03*
X120150000Y-117090000D03*
X102750000Y-117710000D03*
X110180000Y-121900000D03*
X120410000Y-126630000D03*
X118720000Y-107000000D03*
X102830000Y-114550000D03*
X125850000Y-102880000D03*
X122690000Y-110570000D03*
X114430000Y-121820000D03*
X119490000Y-102770000D03*
X117560000Y-103750000D03*
X124920000Y-117180000D03*
X116590000Y-125340000D03*
X102710000Y-126320000D03*
X116510000Y-127030000D03*
X122640000Y-113150000D03*
X121660000Y-121290000D03*
X111840000Y-107330000D03*
X103300000Y-101110000D03*
X126970000Y-106620000D03*
X121850000Y-106730000D03*
X100800000Y-103000000D03*
X121394122Y-103365878D03*
X116100000Y-120850000D03*
X124400000Y-101100000D03*
X102770000Y-106250000D03*
X115815735Y-107084265D03*
X117514265Y-107085735D03*
X113900000Y-124300000D03*
D17*
X117560000Y-103750000D02*
X118510000Y-103750000D01*
X119490000Y-102510000D02*
X118730000Y-101750000D01*
X118010000Y-101750000D02*
X117560000Y-102200000D01*
X118510000Y-103750000D02*
X119490000Y-102770000D01*
X125850000Y-101450000D02*
X126200000Y-101100000D01*
X127050000Y-101950000D02*
X126200000Y-101100000D01*
X125850000Y-102880000D02*
X125850000Y-101450000D01*
X117560000Y-103770000D02*
X118840000Y-105050000D01*
X118730000Y-101750000D02*
X118010000Y-101750000D01*
X119490000Y-102770000D02*
X119490000Y-102510000D01*
X127050000Y-102880000D02*
X125850000Y-102880000D01*
X117560000Y-102200000D02*
X117560000Y-103750000D01*
X127050000Y-102880000D02*
X127050000Y-101950000D01*
X117560000Y-103750000D02*
X117560000Y-103770000D01*
X100800000Y-103000000D02*
X100800000Y-101800000D01*
X100800000Y-101800000D02*
X101500000Y-101100000D01*
X121394122Y-103073461D02*
X119070661Y-100750000D01*
X119070661Y-100750000D02*
X116470000Y-100750000D01*
X116470000Y-100750000D02*
X115020000Y-102200000D01*
X121394122Y-103365878D02*
X121394122Y-103073461D01*
D18*
X122600000Y-104400000D02*
X116100000Y-110900000D01*
X116100000Y-110900000D02*
X116100000Y-120850000D01*
X122600000Y-101100000D02*
X122600000Y-104400000D01*
X122600000Y-101100000D02*
X124400000Y-101100000D01*
X102770000Y-106180000D02*
X105450000Y-103500000D01*
X102770000Y-106250000D02*
X102770000Y-106180000D01*
X109940000Y-102770000D02*
X109940000Y-102200000D01*
X105450000Y-103500000D02*
X109210000Y-103500000D01*
X109210000Y-103500000D02*
X109940000Y-102770000D01*
X115815735Y-107084265D02*
X117512795Y-107084265D01*
X117512795Y-107084265D02*
X117514265Y-107085735D01*
X113900000Y-124300000D02*
X123210000Y-124300000D01*
G04 #@! TA.AperFunction,Conductor*
G36*
X111609075Y-118302993D02*
G01*
X111674901Y-118417007D01*
X111767993Y-118510099D01*
X111882007Y-118575925D01*
X111945590Y-118592962D01*
X111612842Y-118925709D01*
X111612842Y-118934349D01*
X111593157Y-119001388D01*
X111576523Y-119022030D01*
X110857962Y-119740590D01*
X110840925Y-119677007D01*
X110775099Y-119562993D01*
X110682007Y-119469901D01*
X110567993Y-119404075D01*
X110504409Y-119387037D01*
X110837157Y-119054290D01*
X110837157Y-119045652D01*
X110856842Y-118978613D01*
X110873476Y-118957971D01*
X111592037Y-118239409D01*
X111609075Y-118302993D01*
G37*
G04 #@! TD.AperFunction*
G04 #@! TA.AperFunction,Conductor*
G36*
X103604296Y-100020185D02*
G01*
X103650051Y-100072989D01*
X103659995Y-100142147D01*
X103655487Y-100159466D01*
X103655888Y-100159574D01*
X103606077Y-100345470D01*
X103600000Y-100422692D01*
X103600000Y-100850000D01*
X106600000Y-100850000D01*
X106600000Y-100422705D01*
X106599999Y-100422692D01*
X106593922Y-100345470D01*
X106544112Y-100159574D01*
X106546172Y-100159021D01*
X106541334Y-100099286D01*
X106574239Y-100037650D01*
X106635243Y-100003588D01*
X106662743Y-100000500D01*
X115858770Y-100000500D01*
X115925809Y-100020185D01*
X115971564Y-100072989D01*
X115981508Y-100142147D01*
X115952483Y-100205703D01*
X115946451Y-100212181D01*
X115454208Y-100704422D01*
X115392885Y-100737907D01*
X115328208Y-100734672D01*
X115323176Y-100733037D01*
X115315634Y-100730586D01*
X115150437Y-100704422D01*
X115119361Y-100699500D01*
X114920639Y-100699500D01*
X114889563Y-100704422D01*
X114724362Y-100730587D01*
X114535370Y-100791993D01*
X114535367Y-100791994D01*
X114358305Y-100882213D01*
X114197533Y-100999021D01*
X114057021Y-101139533D01*
X113940213Y-101300305D01*
X113860485Y-101456780D01*
X113812510Y-101507576D01*
X113744689Y-101524371D01*
X113678554Y-101501833D01*
X113639515Y-101456780D01*
X113559786Y-101300305D01*
X113442981Y-101139536D01*
X113302464Y-100999019D01*
X113141694Y-100882213D01*
X113078473Y-100850000D01*
X112964632Y-100791994D01*
X112964629Y-100791993D01*
X112775637Y-100730587D01*
X112610437Y-100704422D01*
X112579361Y-100699500D01*
X112380639Y-100699500D01*
X112349563Y-100704422D01*
X112184362Y-100730587D01*
X111995370Y-100791993D01*
X111995367Y-100791994D01*
X111818305Y-100882213D01*
X111657533Y-100999021D01*
X111517021Y-101139533D01*
X111400213Y-101300305D01*
X111320485Y-101456780D01*
X111272510Y-101507576D01*
X111204689Y-101524371D01*
X111138554Y-101501833D01*
X111099515Y-101456780D01*
X111019786Y-101300305D01*
X110902981Y-101139536D01*
X110762464Y-100999019D01*
X110601694Y-100882213D01*
X110538473Y-100850000D01*
X110424632Y-100791994D01*
X110424629Y-100791993D01*
X110235637Y-100730587D01*
X110070437Y-100704422D01*
X110039361Y-100699500D01*
X109840639Y-100699500D01*
X109809563Y-100704422D01*
X109644362Y-100730587D01*
X109455370Y-100791993D01*
X109455367Y-100791994D01*
X109278305Y-100882213D01*
X109117533Y-100999021D01*
X108977021Y-101139533D01*
X108860213Y-101300305D01*
X108769994Y-101477367D01*
X108769993Y-101477370D01*
X108708587Y-101666362D01*
X108678772Y-101854606D01*
X108677500Y-101862639D01*
X108677500Y-102537361D01*
X108681031Y-102559656D01*
X108708587Y-102733638D01*
X108709738Y-102737180D01*
X108711735Y-102807021D01*
X108675655Y-102866854D01*
X108612955Y-102897684D01*
X108591808Y-102899500D01*
X105370940Y-102899500D01*
X105330019Y-102910464D01*
X105330019Y-102910465D01*
X105292751Y-102920451D01*
X105218214Y-102940423D01*
X105218209Y-102940426D01*
X105081290Y-103019475D01*
X105081282Y-103019481D01*
X104969478Y-103131286D01*
X102672576Y-105428187D01*
X102611253Y-105461672D01*
X102598787Y-105463725D01*
X102590753Y-105464630D01*
X102590744Y-105464632D01*
X102420478Y-105524210D01*
X102267737Y-105620184D01*
X102140184Y-105747737D01*
X102044211Y-105900476D01*
X101984631Y-106070745D01*
X101984630Y-106070750D01*
X101964435Y-106249996D01*
X101964435Y-106250003D01*
X101984630Y-106429249D01*
X101984631Y-106429254D01*
X102044211Y-106599523D01*
X102129175Y-106734741D01*
X102140184Y-106752262D01*
X102267738Y-106879816D01*
X102420478Y-106975789D01*
X102590745Y-107035368D01*
X102590750Y-107035369D01*
X102769996Y-107055565D01*
X102770000Y-107055565D01*
X102770004Y-107055565D01*
X102949249Y-107035369D01*
X102949252Y-107035368D01*
X102949255Y-107035368D01*
X103119522Y-106975789D01*
X103272262Y-106879816D01*
X103399816Y-106752262D01*
X103495789Y-106599522D01*
X103555368Y-106429255D01*
X103559529Y-106392331D01*
X103566539Y-106330109D01*
X103574050Y-106263440D01*
X103601116Y-106199028D01*
X103609579Y-106189654D01*
X105662416Y-104136819D01*
X105723739Y-104103334D01*
X105750097Y-104100500D01*
X107205500Y-104100500D01*
X107272539Y-104120185D01*
X107318294Y-104172989D01*
X107329500Y-104224500D01*
X107329500Y-106197870D01*
X107329501Y-106197876D01*
X107335908Y-106257483D01*
X107386202Y-106392328D01*
X107386206Y-106392335D01*
X107472452Y-106507544D01*
X107472455Y-106507547D01*
X107587664Y-106593793D01*
X107587671Y-106593797D01*
X107722517Y-106644091D01*
X107722516Y-106644091D01*
X107729444Y-106644835D01*
X107782127Y-106650500D01*
X109577872Y-106650499D01*
X109637483Y-106644091D01*
X109772331Y-106593796D01*
X109887546Y-106507546D01*
X109973796Y-106392331D01*
X110022810Y-106260916D01*
X110064681Y-106204984D01*
X110130145Y-106180566D01*
X110198418Y-106195417D01*
X110226673Y-106216569D01*
X110340213Y-106330109D01*
X110512179Y-106455048D01*
X110512181Y-106455049D01*
X110512184Y-106455051D01*
X110701588Y-106551557D01*
X110903757Y-106617246D01*
X111113713Y-106650500D01*
X111113714Y-106650500D01*
X111326286Y-106650500D01*
X111326287Y-106650500D01*
X111536243Y-106617246D01*
X111738412Y-106551557D01*
X111927816Y-106455051D01*
X112014138Y-106392335D01*
X112099786Y-106330109D01*
X112099788Y-106330106D01*
X112099792Y-106330104D01*
X112250104Y-106179792D01*
X112250106Y-106179788D01*
X112250109Y-106179786D01*
X112375048Y-106007820D01*
X112375047Y-106007820D01*
X112375051Y-106007816D01*
X112379514Y-105999054D01*
X112427488Y-105948259D01*
X112495308Y-105931463D01*
X112561444Y-105953999D01*
X112600486Y-105999056D01*
X112604951Y-106007820D01*
X112729890Y-106179786D01*
X112880213Y-106330109D01*
X113052179Y-106455048D01*
X113052181Y-106455049D01*
X113052184Y-106455051D01*
X113241588Y-106551557D01*
X113443757Y-106617246D01*
X113653713Y-106650500D01*
X113653714Y-106650500D01*
X113866286Y-106650500D01*
X113866287Y-106650500D01*
X114076243Y-106617246D01*
X114278412Y-106551557D01*
X114467816Y-106455051D01*
X114554138Y-106392335D01*
X114639786Y-106330109D01*
X114639788Y-106330106D01*
X114639792Y-106330104D01*
X114790104Y-106179792D01*
X114790106Y-106179788D01*
X114790109Y-106179786D01*
X114915048Y-106007820D01*
X114915047Y-106007820D01*
X114915051Y-106007816D01*
X114919514Y-105999054D01*
X114967488Y-105948259D01*
X115035308Y-105931463D01*
X115101444Y-105953999D01*
X115140486Y-105999056D01*
X115144951Y-106007820D01*
X115269890Y-106179786D01*
X115345435Y-106255331D01*
X115378920Y-106316654D01*
X115373936Y-106386346D01*
X115332064Y-106442279D01*
X115323727Y-106448005D01*
X115313476Y-106454446D01*
X115313474Y-106454447D01*
X115185919Y-106582002D01*
X115089946Y-106734741D01*
X115030366Y-106905010D01*
X115030365Y-106905015D01*
X115010170Y-107084261D01*
X115010170Y-107084268D01*
X115030365Y-107263514D01*
X115030366Y-107263519D01*
X115089946Y-107433788D01*
X115090870Y-107435258D01*
X115185919Y-107586527D01*
X115313473Y-107714081D01*
X115466213Y-107810054D01*
X115636480Y-107869633D01*
X115636485Y-107869634D01*
X115815731Y-107889830D01*
X115815735Y-107889830D01*
X115815739Y-107889830D01*
X115994984Y-107869634D01*
X115994987Y-107869633D01*
X115994990Y-107869633D01*
X116165257Y-107810054D01*
X116317997Y-107714081D01*
X116318002Y-107714075D01*
X116320832Y-107711820D01*
X116323010Y-107710930D01*
X116323893Y-107710376D01*
X116323990Y-107710530D01*
X116385518Y-107685410D01*
X116398147Y-107684765D01*
X116930010Y-107684765D01*
X116997049Y-107704450D01*
X117007326Y-107711821D01*
X117012001Y-107715549D01*
X117012003Y-107715551D01*
X117125535Y-107786887D01*
X117162403Y-107810054D01*
X117164743Y-107811524D01*
X117330809Y-107869633D01*
X117335010Y-107871103D01*
X117335015Y-107871104D01*
X117514261Y-107891300D01*
X117514265Y-107891300D01*
X117514269Y-107891300D01*
X117693514Y-107871104D01*
X117693517Y-107871103D01*
X117693520Y-107871103D01*
X117863787Y-107811524D01*
X118016527Y-107715551D01*
X118144081Y-107587997D01*
X118240054Y-107435257D01*
X118299633Y-107264990D01*
X118299799Y-107263519D01*
X118319830Y-107085738D01*
X118319830Y-107085731D01*
X118299634Y-106906485D01*
X118299633Y-106906480D01*
X118239143Y-106733609D01*
X118235582Y-106663830D01*
X118270311Y-106603202D01*
X118332304Y-106570975D01*
X118394503Y-106574723D01*
X118523872Y-106616757D01*
X118590000Y-106627231D01*
X118590000Y-105483012D01*
X118647007Y-105515925D01*
X118774174Y-105550000D01*
X118905826Y-105550000D01*
X119032993Y-105515925D01*
X119090000Y-105483012D01*
X119090000Y-106627230D01*
X119156126Y-106616757D01*
X119156129Y-106616757D01*
X119224664Y-106594489D01*
X119294505Y-106592494D01*
X119354338Y-106628574D01*
X119385166Y-106691275D01*
X119377201Y-106760690D01*
X119350663Y-106800101D01*
X115619481Y-110531282D01*
X115619479Y-110531285D01*
X115569361Y-110618094D01*
X115569359Y-110618096D01*
X115540425Y-110668209D01*
X115540424Y-110668210D01*
X115540423Y-110668215D01*
X115499499Y-110820943D01*
X115499499Y-110820945D01*
X115499499Y-110989046D01*
X115499500Y-110989059D01*
X115499500Y-120267587D01*
X115479815Y-120334626D01*
X115472450Y-120344896D01*
X115470186Y-120347734D01*
X115374211Y-120500476D01*
X115314631Y-120670745D01*
X115314630Y-120670750D01*
X115294435Y-120849996D01*
X115294435Y-120850003D01*
X115314630Y-121029249D01*
X115314631Y-121029254D01*
X115374211Y-121199523D01*
X115455620Y-121329083D01*
X115470184Y-121352262D01*
X115597738Y-121479816D01*
X115750478Y-121575789D01*
X115920745Y-121635368D01*
X115920750Y-121635369D01*
X116099996Y-121655565D01*
X116100000Y-121655565D01*
X116100004Y-121655565D01*
X116279249Y-121635369D01*
X116279252Y-121635368D01*
X116279255Y-121635368D01*
X116449522Y-121575789D01*
X116602262Y-121479816D01*
X116729816Y-121352262D01*
X116825789Y-121199522D01*
X116885368Y-121029255D01*
X116905565Y-120850000D01*
X116898959Y-120791373D01*
X116885369Y-120670750D01*
X116885368Y-120670745D01*
X116825788Y-120500476D01*
X116743804Y-120370000D01*
X116729816Y-120347738D01*
X116729814Y-120347736D01*
X116729813Y-120347734D01*
X116727550Y-120344896D01*
X116726659Y-120342715D01*
X116726111Y-120341842D01*
X116726264Y-120341745D01*
X116701144Y-120280209D01*
X116700500Y-120267587D01*
X116700500Y-111200096D01*
X116720185Y-111133057D01*
X116736814Y-111112420D01*
X122968713Y-104880521D01*
X122968716Y-104880520D01*
X123080520Y-104768716D01*
X123130639Y-104681904D01*
X123159577Y-104631785D01*
X123200500Y-104479057D01*
X123200500Y-104320943D01*
X123200500Y-102721171D01*
X123220185Y-102654132D01*
X123272989Y-102608377D01*
X123314771Y-102597553D01*
X123354609Y-102594418D01*
X123534328Y-102546262D01*
X123700108Y-102461793D01*
X123844703Y-102344703D01*
X123961793Y-102200108D01*
X124046262Y-102034328D01*
X124063123Y-101971402D01*
X124099486Y-101911743D01*
X124162333Y-101881213D01*
X124213559Y-101885579D01*
X124213961Y-101883819D01*
X124220738Y-101885365D01*
X124220745Y-101885368D01*
X124220752Y-101885368D01*
X124220753Y-101885369D01*
X124399996Y-101905565D01*
X124400000Y-101905565D01*
X124400004Y-101905565D01*
X124579251Y-101885369D01*
X124586037Y-101883820D01*
X124586486Y-101885787D01*
X124646388Y-101882725D01*
X124707018Y-101917449D01*
X124737349Y-101971237D01*
X124754206Y-102034149D01*
X124838625Y-102199828D01*
X124838631Y-102199838D01*
X124955651Y-102344348D01*
X125100161Y-102461368D01*
X125100171Y-102461374D01*
X125265851Y-102545794D01*
X125445470Y-102593922D01*
X125522692Y-102599999D01*
X125522706Y-102600000D01*
X125950000Y-102600000D01*
X125950000Y-100974000D01*
X125969685Y-100906961D01*
X126022489Y-100861206D01*
X126074000Y-100850000D01*
X126326000Y-100850000D01*
X126393039Y-100869685D01*
X126438794Y-100922489D01*
X126450000Y-100974000D01*
X126450000Y-102600000D01*
X126877294Y-102600000D01*
X126877307Y-102599999D01*
X126954529Y-102593922D01*
X127134148Y-102545794D01*
X127299828Y-102461374D01*
X127305287Y-102457830D01*
X127306413Y-102459564D01*
X127361925Y-102436401D01*
X127430716Y-102448628D01*
X127481977Y-102496106D01*
X127499500Y-102559656D01*
X127499500Y-127375500D01*
X127479815Y-127442539D01*
X127427011Y-127488294D01*
X127375500Y-127499500D01*
X100124500Y-127499500D01*
X100057461Y-127479815D01*
X100011706Y-127427011D01*
X100000500Y-127375500D01*
X100000500Y-124299996D01*
X113094435Y-124299996D01*
X113094435Y-124300003D01*
X113114630Y-124479249D01*
X113114631Y-124479254D01*
X113174211Y-124649523D01*
X113270184Y-124802262D01*
X113397738Y-124929816D01*
X113487444Y-124986182D01*
X113545456Y-125022634D01*
X113550478Y-125025789D01*
X113720745Y-125085368D01*
X113720750Y-125085369D01*
X113899996Y-125105565D01*
X113900000Y-125105565D01*
X113900004Y-125105565D01*
X114079249Y-125085369D01*
X114079252Y-125085368D01*
X114079255Y-125085368D01*
X114249522Y-125025789D01*
X114402262Y-124929816D01*
X114402267Y-124929810D01*
X114405097Y-124927555D01*
X114407275Y-124926665D01*
X114408158Y-124926111D01*
X114408255Y-124926265D01*
X114469783Y-124901145D01*
X114482412Y-124900500D01*
X121910221Y-124900500D01*
X121977260Y-124920185D01*
X122023015Y-124972989D01*
X122028150Y-124986177D01*
X122039995Y-125022632D01*
X122130213Y-125199694D01*
X122247019Y-125360464D01*
X122387536Y-125500981D01*
X122548306Y-125617787D01*
X122635149Y-125662035D01*
X122725367Y-125708005D01*
X122725370Y-125708006D01*
X122819866Y-125738709D01*
X122914364Y-125769413D01*
X123110639Y-125800500D01*
X123110640Y-125800500D01*
X123309360Y-125800500D01*
X123309361Y-125800500D01*
X123505636Y-125769413D01*
X123694632Y-125708005D01*
X123871694Y-125617787D01*
X124032464Y-125500981D01*
X124172981Y-125360464D01*
X124289787Y-125199694D01*
X124369796Y-125042667D01*
X124417769Y-124991872D01*
X124485590Y-124975077D01*
X124551725Y-124997614D01*
X124590765Y-125042668D01*
X124670641Y-125199432D01*
X124787403Y-125360139D01*
X124787403Y-125360140D01*
X124927859Y-125500596D01*
X125088567Y-125617358D01*
X125265562Y-125707542D01*
X125454473Y-125768922D01*
X125500000Y-125776133D01*
X125500000Y-124588816D01*
X125516060Y-124604876D01*
X125602939Y-124655036D01*
X125699840Y-124681000D01*
X125800160Y-124681000D01*
X125897061Y-124655036D01*
X125983940Y-124604876D01*
X126000000Y-124588816D01*
X126000000Y-125776132D01*
X126045526Y-125768922D01*
X126234437Y-125707542D01*
X126411432Y-125617358D01*
X126572139Y-125500596D01*
X126572140Y-125500596D01*
X126712596Y-125360140D01*
X126712596Y-125360139D01*
X126829358Y-125199432D01*
X126919542Y-125022437D01*
X126980924Y-124833523D01*
X126980924Y-124833520D01*
X127012000Y-124637321D01*
X127012000Y-124550000D01*
X126038816Y-124550000D01*
X126054876Y-124533940D01*
X126105036Y-124447061D01*
X126131000Y-124350160D01*
X126131000Y-124249840D01*
X126105036Y-124152939D01*
X126054876Y-124066060D01*
X126038816Y-124050000D01*
X127012000Y-124050000D01*
X127012000Y-123962678D01*
X126980924Y-123766479D01*
X126980924Y-123766476D01*
X126919542Y-123577562D01*
X126829358Y-123400567D01*
X126712596Y-123239860D01*
X126712596Y-123239859D01*
X126572140Y-123099403D01*
X126411432Y-122982641D01*
X126234434Y-122892456D01*
X126234436Y-122892456D01*
X126045517Y-122831074D01*
X126000000Y-122823865D01*
X126000000Y-124011184D01*
X125983940Y-123995124D01*
X125897061Y-123944964D01*
X125800160Y-123919000D01*
X125699840Y-123919000D01*
X125602939Y-123944964D01*
X125516060Y-123995124D01*
X125500000Y-124011184D01*
X125500000Y-122823865D01*
X125499999Y-122823865D01*
X125454482Y-122831074D01*
X125265564Y-122892456D01*
X125088567Y-122982641D01*
X124927860Y-123099403D01*
X124927859Y-123099403D01*
X124787403Y-123239859D01*
X124787403Y-123239860D01*
X124670639Y-123400569D01*
X124590764Y-123557332D01*
X124542790Y-123608127D01*
X124474969Y-123624922D01*
X124408834Y-123602384D01*
X124369796Y-123557332D01*
X124289787Y-123400306D01*
X124172981Y-123239536D01*
X124032464Y-123099019D01*
X123871694Y-122982213D01*
X123694632Y-122891994D01*
X123694629Y-122891993D01*
X123505637Y-122830587D01*
X123407498Y-122815043D01*
X123309361Y-122799500D01*
X123110639Y-122799500D01*
X123045214Y-122809862D01*
X122914362Y-122830587D01*
X122725370Y-122891993D01*
X122725367Y-122891994D01*
X122548305Y-122982213D01*
X122387533Y-123099021D01*
X122247021Y-123239533D01*
X122130213Y-123400305D01*
X122039996Y-123577365D01*
X122028152Y-123613818D01*
X121988715Y-123671494D01*
X121924356Y-123698692D01*
X121910221Y-123699500D01*
X114482412Y-123699500D01*
X114415373Y-123679815D01*
X114405097Y-123672445D01*
X114402263Y-123670185D01*
X114402262Y-123670184D01*
X114303499Y-123608127D01*
X114249523Y-123574211D01*
X114079254Y-123514631D01*
X114079249Y-123514630D01*
X113900004Y-123494435D01*
X113899996Y-123494435D01*
X113720750Y-123514630D01*
X113720745Y-123514631D01*
X113550476Y-123574211D01*
X113397737Y-123670184D01*
X113270184Y-123797737D01*
X113174211Y-123950476D01*
X113114631Y-124120745D01*
X113114630Y-124120750D01*
X113094435Y-124299996D01*
X100000500Y-124299996D01*
X100000500Y-117899998D01*
X108799843Y-117899998D01*
X108799843Y-117900001D01*
X108820430Y-118135315D01*
X108820432Y-118135326D01*
X108881566Y-118363483D01*
X108881570Y-118363492D01*
X108981400Y-118577579D01*
X108981402Y-118577583D01*
X109040072Y-118661373D01*
X109040073Y-118661373D01*
X109672037Y-118029409D01*
X109689075Y-118092993D01*
X109754901Y-118207007D01*
X109847993Y-118300099D01*
X109962007Y-118365925D01*
X110025590Y-118382962D01*
X109434458Y-118974095D01*
X109373135Y-119007580D01*
X109303443Y-119002596D01*
X109259096Y-118974095D01*
X109207981Y-118922980D01*
X109187235Y-118945519D01*
X109187234Y-118945521D01*
X109051266Y-119153635D01*
X108951412Y-119381282D01*
X108890387Y-119622261D01*
X108890385Y-119622270D01*
X108869859Y-119869994D01*
X108869859Y-119870005D01*
X108890385Y-120117729D01*
X108890387Y-120117738D01*
X108951412Y-120358717D01*
X109051266Y-120586364D01*
X109151564Y-120739882D01*
X109892037Y-119999409D01*
X109909075Y-120062993D01*
X109974901Y-120177007D01*
X110067993Y-120270099D01*
X110182007Y-120335925D01*
X110245590Y-120352962D01*
X109504942Y-121093609D01*
X109551768Y-121130055D01*
X109551770Y-121130056D01*
X109770385Y-121248364D01*
X109770396Y-121248369D01*
X110005506Y-121329083D01*
X110250707Y-121370000D01*
X110499293Y-121370000D01*
X110744493Y-121329083D01*
X110979603Y-121248369D01*
X110979609Y-121248367D01*
X111198236Y-121130051D01*
X111198239Y-121130050D01*
X111245055Y-121093609D01*
X111245055Y-121093608D01*
X110504409Y-120352962D01*
X110567993Y-120335925D01*
X110682007Y-120270099D01*
X110775099Y-120177007D01*
X110840925Y-120062993D01*
X110857962Y-119999409D01*
X111420000Y-120561447D01*
X111822037Y-120159409D01*
X111839075Y-120222993D01*
X111904901Y-120337007D01*
X111997993Y-120430099D01*
X112112007Y-120495925D01*
X112175590Y-120512962D01*
X111543625Y-121144925D01*
X111627421Y-121203599D01*
X111841507Y-121303429D01*
X111841516Y-121303433D01*
X112069673Y-121364567D01*
X112069684Y-121364569D01*
X112304998Y-121385157D01*
X112305002Y-121385157D01*
X112540315Y-121364569D01*
X112540326Y-121364567D01*
X112768483Y-121303433D01*
X112768492Y-121303429D01*
X112982578Y-121203600D01*
X112982582Y-121203598D01*
X113066373Y-121144926D01*
X113066373Y-121144925D01*
X112434409Y-120512962D01*
X112497993Y-120495925D01*
X112612007Y-120430099D01*
X112705099Y-120337007D01*
X112770925Y-120222993D01*
X112787962Y-120159410D01*
X113419925Y-120791373D01*
X113419926Y-120791373D01*
X113478598Y-120707582D01*
X113478600Y-120707578D01*
X113578429Y-120493492D01*
X113578433Y-120493483D01*
X113639567Y-120265326D01*
X113639569Y-120265315D01*
X113660157Y-120030001D01*
X113660157Y-120029998D01*
X113639569Y-119794684D01*
X113639567Y-119794673D01*
X113578433Y-119566516D01*
X113578429Y-119566507D01*
X113478600Y-119352423D01*
X113478599Y-119352421D01*
X113419925Y-119268626D01*
X113419925Y-119268625D01*
X112787962Y-119900589D01*
X112770925Y-119837007D01*
X112705099Y-119722993D01*
X112612007Y-119629901D01*
X112497993Y-119564075D01*
X112434409Y-119547037D01*
X112796447Y-119185000D01*
X112796447Y-119184999D01*
X112204410Y-118592962D01*
X112267993Y-118575925D01*
X112382007Y-118510099D01*
X112475099Y-118417007D01*
X112540925Y-118302993D01*
X112557962Y-118239410D01*
X113298434Y-118979882D01*
X113398731Y-118826369D01*
X113498587Y-118598717D01*
X113559612Y-118357738D01*
X113559614Y-118357729D01*
X113580141Y-118110005D01*
X113580141Y-118109994D01*
X113559614Y-117862270D01*
X113559612Y-117862261D01*
X113498587Y-117621282D01*
X113398731Y-117393630D01*
X113298434Y-117240116D01*
X112557962Y-117980589D01*
X112540925Y-117917007D01*
X112475099Y-117802993D01*
X112382007Y-117709901D01*
X112267993Y-117644075D01*
X112204410Y-117627037D01*
X112945057Y-116886390D01*
X112945056Y-116886389D01*
X112898229Y-116849943D01*
X112679614Y-116731635D01*
X112679603Y-116731630D01*
X112444493Y-116650916D01*
X112199293Y-116610000D01*
X111950707Y-116610000D01*
X111705506Y-116650916D01*
X111470396Y-116731630D01*
X111470390Y-116731632D01*
X111251761Y-116849949D01*
X111204942Y-116886388D01*
X111204942Y-116886390D01*
X111945590Y-117627037D01*
X111882007Y-117644075D01*
X111767993Y-117709901D01*
X111674901Y-117802993D01*
X111609075Y-117917007D01*
X111592037Y-117980590D01*
X111010000Y-117398553D01*
X110637962Y-117770590D01*
X110620925Y-117707007D01*
X110555099Y-117592993D01*
X110462007Y-117499901D01*
X110347993Y-117434075D01*
X110284410Y-117417037D01*
X110916373Y-116785073D01*
X110916373Y-116785072D01*
X110832583Y-116726402D01*
X110832579Y-116726400D01*
X110618492Y-116626570D01*
X110618483Y-116626566D01*
X110390326Y-116565432D01*
X110390315Y-116565430D01*
X110155002Y-116544843D01*
X110154998Y-116544843D01*
X109919684Y-116565430D01*
X109919673Y-116565432D01*
X109691516Y-116626566D01*
X109691507Y-116626570D01*
X109477419Y-116726401D01*
X109393625Y-116785072D01*
X110025590Y-117417037D01*
X109962007Y-117434075D01*
X109847993Y-117499901D01*
X109754901Y-117592993D01*
X109689075Y-117707007D01*
X109672037Y-117770590D01*
X109040072Y-117138625D01*
X108981401Y-117222419D01*
X108881570Y-117436507D01*
X108881566Y-117436516D01*
X108820432Y-117664673D01*
X108820430Y-117664684D01*
X108799843Y-117899998D01*
X100000500Y-117899998D01*
X100000500Y-103631940D01*
X100020185Y-103564901D01*
X100072989Y-103519146D01*
X100142147Y-103509202D01*
X100205703Y-103538227D01*
X100212181Y-103544259D01*
X100297738Y-103629816D01*
X100371451Y-103676133D01*
X100433945Y-103715401D01*
X100450478Y-103725789D01*
X100576529Y-103769896D01*
X100620745Y-103785368D01*
X100620750Y-103785369D01*
X100799996Y-103805565D01*
X100800000Y-103805565D01*
X100800004Y-103805565D01*
X100979249Y-103785369D01*
X100979252Y-103785368D01*
X100979255Y-103785368D01*
X101149522Y-103725789D01*
X101302262Y-103629816D01*
X101429816Y-103502262D01*
X101525789Y-103349522D01*
X101585368Y-103179255D01*
X101590773Y-103131284D01*
X101605565Y-103000003D01*
X101605565Y-102999996D01*
X101585368Y-102820747D01*
X101585368Y-102820745D01*
X101566020Y-102765453D01*
X101562460Y-102695676D01*
X101597189Y-102635048D01*
X101659182Y-102602821D01*
X101683063Y-102600500D01*
X102177320Y-102600500D01*
X102177328Y-102600500D01*
X102254609Y-102594418D01*
X102434328Y-102546262D01*
X102600108Y-102461793D01*
X102744703Y-102344703D01*
X102861793Y-102200108D01*
X102946262Y-102034328D01*
X102994418Y-101854609D01*
X103000500Y-101777328D01*
X103000500Y-101777307D01*
X103600000Y-101777307D01*
X103606077Y-101854529D01*
X103654205Y-102034148D01*
X103738625Y-102199828D01*
X103738631Y-102199838D01*
X103855651Y-102344348D01*
X104000161Y-102461368D01*
X104000171Y-102461374D01*
X104165851Y-102545794D01*
X104345470Y-102593922D01*
X104422692Y-102599999D01*
X104422706Y-102600000D01*
X104850000Y-102600000D01*
X105350000Y-102600000D01*
X105777294Y-102600000D01*
X105777307Y-102599999D01*
X105854529Y-102593922D01*
X106034148Y-102545794D01*
X106199828Y-102461374D01*
X106199838Y-102461368D01*
X106344348Y-102344348D01*
X106461368Y-102199838D01*
X106461374Y-102199828D01*
X106545794Y-102034148D01*
X106593922Y-101854529D01*
X106599999Y-101777307D01*
X106600000Y-101777294D01*
X106600000Y-101350000D01*
X105350000Y-101350000D01*
X105350000Y-102600000D01*
X104850000Y-102600000D01*
X104850000Y-101350000D01*
X103600000Y-101350000D01*
X103600000Y-101777307D01*
X103000500Y-101777307D01*
X103000500Y-100422672D01*
X102994418Y-100345391D01*
X102946262Y-100165672D01*
X102946261Y-100165671D01*
X102944580Y-100159395D01*
X102946694Y-100158828D01*
X102941870Y-100099289D01*
X102974774Y-100037652D01*
X103035777Y-100003588D01*
X103063280Y-100000500D01*
X103537257Y-100000500D01*
X103604296Y-100020185D01*
G37*
G04 #@! TD.AperFunction*
G04 #@! TA.AperFunction,Conductor*
G36*
X119027203Y-101768356D02*
G01*
X119033681Y-101774388D01*
X120553226Y-103293933D01*
X120586711Y-103355256D01*
X120588765Y-103367730D01*
X120608752Y-103545128D01*
X120608753Y-103545132D01*
X120668333Y-103715401D01*
X120740404Y-103830101D01*
X120764306Y-103868140D01*
X120891860Y-103995694D01*
X121044600Y-104091667D01*
X121126100Y-104120185D01*
X121214867Y-104151246D01*
X121214872Y-104151247D01*
X121394118Y-104171443D01*
X121394122Y-104171443D01*
X121394126Y-104171443D01*
X121573371Y-104151247D01*
X121573373Y-104151246D01*
X121573377Y-104151246D01*
X121573380Y-104151244D01*
X121573384Y-104151244D01*
X121716101Y-104101305D01*
X121785880Y-104097743D01*
X121846507Y-104132471D01*
X121878735Y-104194464D01*
X121872330Y-104264040D01*
X121844737Y-104306027D01*
X120340101Y-105810663D01*
X120278778Y-105844148D01*
X120209086Y-105839164D01*
X120153153Y-105797292D01*
X120128736Y-105731828D01*
X120134489Y-105684663D01*
X120156758Y-105616126D01*
X120190000Y-105406246D01*
X120190000Y-105300000D01*
X119273012Y-105300000D01*
X119305925Y-105242993D01*
X119340000Y-105115826D01*
X119340000Y-104984174D01*
X119305925Y-104857007D01*
X119273012Y-104800000D01*
X120190000Y-104800000D01*
X120190000Y-104693753D01*
X120156757Y-104483872D01*
X120156757Y-104483869D01*
X120091095Y-104281782D01*
X119994620Y-104092442D01*
X119869727Y-103920540D01*
X119869723Y-103920535D01*
X119719464Y-103770276D01*
X119719459Y-103770272D01*
X119547557Y-103645379D01*
X119358215Y-103548903D01*
X119156124Y-103483241D01*
X119090000Y-103472768D01*
X119090000Y-104616988D01*
X119032993Y-104584075D01*
X118905826Y-104550000D01*
X118774174Y-104550000D01*
X118647007Y-104584075D01*
X118590000Y-104616988D01*
X118590000Y-103472768D01*
X118572531Y-103457848D01*
X118564726Y-103456840D01*
X118511275Y-103411843D01*
X118490636Y-103345091D01*
X118509362Y-103277778D01*
X118520337Y-103262785D01*
X118522600Y-103260135D01*
X118639358Y-103099432D01*
X118729542Y-102922437D01*
X118790924Y-102733523D01*
X118790924Y-102733520D01*
X118822000Y-102537321D01*
X118822000Y-102450000D01*
X117848816Y-102450000D01*
X117864876Y-102433940D01*
X117915036Y-102347061D01*
X117941000Y-102250160D01*
X117941000Y-102149840D01*
X117915036Y-102052939D01*
X117864876Y-101966060D01*
X117848816Y-101950000D01*
X118822000Y-101950000D01*
X118822000Y-101862069D01*
X118841685Y-101795030D01*
X118894489Y-101749275D01*
X118963647Y-101739331D01*
X119027203Y-101768356D01*
G37*
G04 #@! TD.AperFunction*
G04 #@! TA.AperFunction,Conductor*
G36*
X117810000Y-103676133D02*
G01*
X117839965Y-103701726D01*
X117878158Y-103760233D01*
X117878656Y-103830101D01*
X117847115Y-103883696D01*
X117810276Y-103920535D01*
X117810272Y-103920540D01*
X117685378Y-104092443D01*
X117680762Y-104101502D01*
X117632784Y-104152295D01*
X117564963Y-104169087D01*
X117498829Y-104146546D01*
X117459794Y-104101493D01*
X117455051Y-104092184D01*
X117455049Y-104092181D01*
X117455048Y-104092179D01*
X117330109Y-103920213D01*
X117284054Y-103874158D01*
X117250569Y-103812835D01*
X117255553Y-103743143D01*
X117291204Y-103692186D01*
X117310000Y-103676132D01*
X117310000Y-102488816D01*
X117326060Y-102504876D01*
X117412939Y-102555036D01*
X117509840Y-102581000D01*
X117610160Y-102581000D01*
X117707061Y-102555036D01*
X117793940Y-102504876D01*
X117810000Y-102488816D01*
X117810000Y-103676133D01*
G37*
G04 #@! TD.AperFunction*
M02*
