%TF.GenerationSoftware,KiCad,Pcbnew,8.0.6-8.0.6-0~ubuntu24.04.1*%
%TF.CreationDate,2024-10-30T09:27:26+01:00*%
%TF.ProjectId,clock_pcb,636c6f63-6b5f-4706-9362-2e6b69636164,rev?*%
%TF.SameCoordinates,Original*%
%TF.FileFunction,Drillmap*%
%TF.FilePolarity,Positive*%
%FSLAX45Y45*%
G04 Gerber Fmt 4.5, Leading zero omitted, Abs format (unit mm)*
G04 Created by KiCad (PCBNEW 8.0.6-8.0.6-0~ubuntu24.04.1) date 2024-10-30 09:27:26*
%MOMM*%
%LPD*%
G01*
G04 APERTURE LIST*
%ADD10C,0.050000*%
%ADD11C,0.200000*%
G04 APERTURE END LIST*
D10*
X12800000Y-9950000D02*
X12800000Y-12800000D01*
X9950000Y-12800000D02*
X12800000Y-12800000D01*
X9950000Y-9950000D02*
X12800000Y-9950000D01*
X9950000Y-9950000D02*
X9950000Y-12800000D01*
D11*
X10208277Y-13113984D02*
X10208277Y-12913984D01*
X10208277Y-12913984D02*
X10255896Y-12913984D01*
X10255896Y-12913984D02*
X10284467Y-12923508D01*
X10284467Y-12923508D02*
X10303515Y-12942555D01*
X10303515Y-12942555D02*
X10313039Y-12961603D01*
X10313039Y-12961603D02*
X10322563Y-12999698D01*
X10322563Y-12999698D02*
X10322563Y-13028269D01*
X10322563Y-13028269D02*
X10313039Y-13066365D01*
X10313039Y-13066365D02*
X10303515Y-13085412D01*
X10303515Y-13085412D02*
X10284467Y-13104460D01*
X10284467Y-13104460D02*
X10255896Y-13113984D01*
X10255896Y-13113984D02*
X10208277Y-13113984D01*
X10408277Y-13113984D02*
X10408277Y-12980650D01*
X10408277Y-13018746D02*
X10417801Y-12999698D01*
X10417801Y-12999698D02*
X10427324Y-12990174D01*
X10427324Y-12990174D02*
X10446372Y-12980650D01*
X10446372Y-12980650D02*
X10465420Y-12980650D01*
X10532086Y-13113984D02*
X10532086Y-12980650D01*
X10532086Y-12913984D02*
X10522563Y-12923508D01*
X10522563Y-12923508D02*
X10532086Y-12933031D01*
X10532086Y-12933031D02*
X10541610Y-12923508D01*
X10541610Y-12923508D02*
X10532086Y-12913984D01*
X10532086Y-12913984D02*
X10532086Y-12933031D01*
X10655896Y-13113984D02*
X10636848Y-13104460D01*
X10636848Y-13104460D02*
X10627324Y-13085412D01*
X10627324Y-13085412D02*
X10627324Y-12913984D01*
X10760658Y-13113984D02*
X10741610Y-13104460D01*
X10741610Y-13104460D02*
X10732086Y-13085412D01*
X10732086Y-13085412D02*
X10732086Y-12913984D01*
X10989229Y-13113984D02*
X10989229Y-12913984D01*
X10989229Y-12913984D02*
X11055896Y-13056841D01*
X11055896Y-13056841D02*
X11122563Y-12913984D01*
X11122563Y-12913984D02*
X11122563Y-13113984D01*
X11303515Y-13113984D02*
X11303515Y-13009222D01*
X11303515Y-13009222D02*
X11293991Y-12990174D01*
X11293991Y-12990174D02*
X11274943Y-12980650D01*
X11274943Y-12980650D02*
X11236848Y-12980650D01*
X11236848Y-12980650D02*
X11217801Y-12990174D01*
X11303515Y-13104460D02*
X11284467Y-13113984D01*
X11284467Y-13113984D02*
X11236848Y-13113984D01*
X11236848Y-13113984D02*
X11217801Y-13104460D01*
X11217801Y-13104460D02*
X11208277Y-13085412D01*
X11208277Y-13085412D02*
X11208277Y-13066365D01*
X11208277Y-13066365D02*
X11217801Y-13047317D01*
X11217801Y-13047317D02*
X11236848Y-13037793D01*
X11236848Y-13037793D02*
X11284467Y-13037793D01*
X11284467Y-13037793D02*
X11303515Y-13028269D01*
X11398753Y-12980650D02*
X11398753Y-13180650D01*
X11398753Y-12990174D02*
X11417801Y-12980650D01*
X11417801Y-12980650D02*
X11455896Y-12980650D01*
X11455896Y-12980650D02*
X11474943Y-12990174D01*
X11474943Y-12990174D02*
X11484467Y-12999698D01*
X11484467Y-12999698D02*
X11493991Y-13018746D01*
X11493991Y-13018746D02*
X11493991Y-13075888D01*
X11493991Y-13075888D02*
X11484467Y-13094936D01*
X11484467Y-13094936D02*
X11474943Y-13104460D01*
X11474943Y-13104460D02*
X11455896Y-13113984D01*
X11455896Y-13113984D02*
X11417801Y-13113984D01*
X11417801Y-13113984D02*
X11398753Y-13104460D01*
X11579705Y-13094936D02*
X11589229Y-13104460D01*
X11589229Y-13104460D02*
X11579705Y-13113984D01*
X11579705Y-13113984D02*
X11570182Y-13104460D01*
X11570182Y-13104460D02*
X11579705Y-13094936D01*
X11579705Y-13094936D02*
X11579705Y-13113984D01*
X11579705Y-12990174D02*
X11589229Y-12999698D01*
X11589229Y-12999698D02*
X11579705Y-13009222D01*
X11579705Y-13009222D02*
X11570182Y-12999698D01*
X11570182Y-12999698D02*
X11579705Y-12990174D01*
X11579705Y-12990174D02*
X11579705Y-13009222D01*
M02*
