M48
; DRILL file {KiCad 8.0.6-8.0.6-0~ubuntu24.04.1} date 2024-10-30T09:27:25+0100
; FORMAT={-:-/ absolute / metric / decimal}
; #@! TF.CreationDate,2024-10-30T09:27:25+01:00
; #@! TF.GenerationSoftware,Kicad,Pcbnew,8.0.6-8.0.6-0~ubuntu24.04.1
; #@! TF.FileFunction,Plated,1,2,PTH
FMAT,2
METRIC
; #@! TA.AperFunction,Plated,PTH,ViaDrill
T1C0.300
; #@! TA.AperFunction,Plated,PTH,ComponentDrill
T2C0.762
; #@! TA.AperFunction,Plated,PTH,ComponentDrill
T3C1.000
%
G90
G05
T1
X100.8Y-103.0
X101.03Y-107.55
X102.71Y-126.32
X102.73Y-127.12
X102.75Y-117.71
X102.77Y-106.25
X102.83Y-114.55
X102.9Y-110.78
X103.3Y-101.11
X105.16Y-106.84
X107.22Y-100.97
X107.76Y-110.78
X108.3Y-120.27
X108.31Y-116.26
X110.18Y-121.9
X111.84Y-107.33
X113.9Y-124.3
X114.43Y-121.82
X114.69Y-116.6
X114.79Y-110.78
X115.816Y-107.084
X116.1Y-120.85
X116.51Y-127.03
X116.59Y-125.34
X117.514Y-107.086
X117.56Y-103.75
X118.72Y-107.0
X119.49Y-102.77
X120.07Y-108.35
X120.11Y-122.95
X120.15Y-117.09
X120.41Y-126.63
X120.55Y-104.88
X121.394Y-103.366
X121.66Y-121.29
X121.85Y-106.73
X122.6Y-117.14
X122.64Y-113.15
X122.69Y-110.57
X124.4Y-101.1
X124.92Y-117.18
X125.24Y-110.59
X125.37Y-112.94
X125.85Y-102.88
X126.8Y-117.22
X126.88Y-126.76
X126.97Y-106.62
X127.01Y-122.04
X127.05Y-102.88
T2
X109.94Y-102.2
X112.48Y-102.2
X115.02Y-102.2
X117.56Y-102.2
X123.21Y-124.3
X125.75Y-124.3
T3
X108.68Y-105.05
X110.155Y-117.9
X110.375Y-119.87
X111.22Y-105.05
X112.075Y-118.11
X112.305Y-120.03
X113.76Y-105.05
X116.3Y-105.05
X118.84Y-105.05
M30
