G04 #@! TF.GenerationSoftware,KiCad,Pcbnew,8.0.6-8.0.6-0~ubuntu24.04.1*
G04 #@! TF.CreationDate,2024-10-30T09:26:46+01:00*
G04 #@! TF.ProjectId,clock_pcb,636c6f63-6b5f-4706-9362-2e6b69636164,rev?*
G04 #@! TF.SameCoordinates,Original*
G04 #@! TF.FileFunction,Paste,Top*
G04 #@! TF.FilePolarity,Positive*
%FSLAX46Y46*%
G04 Gerber Fmt 4.6, Leading zero omitted, Abs format (unit mm)*
G04 Created by KiCad (PCBNEW 8.0.6-8.0.6-0~ubuntu24.04.1) date 2024-10-30 09:26:46*
%MOMM*%
%LPD*%
G01*
G04 APERTURE LIST*
G04 Aperture macros list*
%AMRoundRect*
0 Rectangle with rounded corners*
0 $1 Rounding radius*
0 $2 $3 $4 $5 $6 $7 $8 $9 X,Y pos of 4 corners*
0 Add a 4 corners polygon primitive as box body*
4,1,4,$2,$3,$4,$5,$6,$7,$8,$9,$2,$3,0*
0 Add four circle primitives for the rounded corners*
1,1,$1+$1,$2,$3*
1,1,$1+$1,$4,$5*
1,1,$1+$1,$6,$7*
1,1,$1+$1,$8,$9*
0 Add four rect primitives between the rounded corners*
20,1,$1+$1,$2,$3,$4,$5,0*
20,1,$1+$1,$4,$5,$6,$7,0*
20,1,$1+$1,$6,$7,$8,$9,0*
20,1,$1+$1,$8,$9,$2,$3,0*%
G04 Aperture macros list end*
%ADD10RoundRect,0.384616X-0.615384X-0.615384X0.615384X-0.615384X0.615384X0.615384X-0.615384X0.615384X0*%
%ADD11R,0.900000X0.900000*%
%ADD12R,1.500000X0.900000*%
%ADD13R,0.900000X1.500000*%
%ADD14RoundRect,0.384616X0.615384X0.615384X-0.615384X0.615384X-0.615384X-0.615384X0.615384X-0.615384X0*%
%ADD15RoundRect,0.375000X0.375000X-0.625000X0.375000X0.625000X-0.375000X0.625000X-0.375000X-0.625000X0*%
%ADD16RoundRect,0.500000X1.400000X-0.500000X1.400000X0.500000X-1.400000X0.500000X-1.400000X-0.500000X0*%
G04 APERTURE END LIST*
D10*
X122600000Y-104650000D03*
X126200000Y-104650000D03*
D11*
X112635000Y-120380000D03*
X112635000Y-118980000D03*
X112635000Y-117580000D03*
X111235000Y-120380000D03*
X111235000Y-118980000D03*
X111235000Y-117580000D03*
X109835000Y-120380000D03*
X109835000Y-118980000D03*
X109835000Y-117580000D03*
D12*
X118485000Y-126700000D03*
X118485000Y-125430000D03*
X118485000Y-124160000D03*
X118485000Y-122890000D03*
X118485000Y-121620000D03*
X118485000Y-120350000D03*
X118485000Y-119080000D03*
X118485000Y-117810000D03*
X118485000Y-116540000D03*
X118485000Y-115270000D03*
X118485000Y-114000000D03*
X118485000Y-112730000D03*
X118485000Y-111460000D03*
X118485000Y-110190000D03*
D13*
X116720000Y-108940000D03*
X115450000Y-108940000D03*
X114180000Y-108940000D03*
X112910000Y-108940000D03*
X111640000Y-108940000D03*
X110370000Y-108940000D03*
X109100000Y-108940000D03*
X107830000Y-108940000D03*
X106560000Y-108940000D03*
X105290000Y-108940000D03*
X104020000Y-108940000D03*
X102750000Y-108940000D03*
D12*
X100985000Y-110190000D03*
X100985000Y-111460000D03*
X100985000Y-112730000D03*
X100985000Y-114000000D03*
X100985000Y-115270000D03*
X100985000Y-116540000D03*
X100985000Y-117810000D03*
X100985000Y-119080000D03*
X100985000Y-120350000D03*
X100985000Y-121620000D03*
X100985000Y-122890000D03*
X100985000Y-124160000D03*
X100985000Y-125430000D03*
X100985000Y-126700000D03*
D14*
X105100000Y-104800000D03*
X101500000Y-104800000D03*
D10*
X122800000Y-119400000D03*
X126400000Y-119400000D03*
X101500000Y-101100000D03*
X105100000Y-101100000D03*
D15*
X121600000Y-114900000D03*
X123900000Y-114900000D03*
D16*
X123900000Y-108600000D03*
D15*
X126200000Y-114900000D03*
D14*
X126200000Y-101100000D03*
X122600000Y-101100000D03*
M02*
