G04 #@! TF.GenerationSoftware,KiCad,Pcbnew,8.0.6-8.0.6-0~ubuntu24.04.1*
G04 #@! TF.CreationDate,2024-10-30T09:26:46+01:00*
G04 #@! TF.ProjectId,clock_pcb,636c6f63-6b5f-4706-9362-2e6b69636164,rev?*
G04 #@! TF.SameCoordinates,Original*
G04 #@! TF.FileFunction,Legend,Bot*
G04 #@! TF.FilePolarity,Positive*
%FSLAX46Y46*%
G04 Gerber Fmt 4.6, Leading zero omitted, Abs format (unit mm)*
G04 Created by KiCad (PCBNEW 8.0.6-8.0.6-0~ubuntu24.04.1) date 2024-10-30 09:26:46*
%MOMM*%
%LPD*%
G01*
G04 APERTURE LIST*
G04 Aperture macros list*
%AMRoundRect*
0 Rectangle with rounded corners*
0 $1 Rounding radius*
0 $2 $3 $4 $5 $6 $7 $8 $9 X,Y pos of 4 corners*
0 Add a 4 corners polygon primitive as box body*
4,1,4,$2,$3,$4,$5,$6,$7,$8,$9,$2,$3,0*
0 Add four circle primitives for the rounded corners*
1,1,$1+$1,$2,$3*
1,1,$1+$1,$4,$5*
1,1,$1+$1,$6,$7*
1,1,$1+$1,$8,$9*
0 Add four rect primitives between the rounded corners*
20,1,$1+$1,$2,$3,$4,$5,0*
20,1,$1+$1,$4,$5,$6,$7,0*
20,1,$1+$1,$6,$7,$8,$9,0*
20,1,$1+$1,$8,$9,$2,$3,0*%
G04 Aperture macros list end*
%ADD10C,0.100000*%
%ADD11R,1.700000X2.200000*%
%ADD12O,1.700000X2.200000*%
%ADD13O,1.524000X2.000000*%
%ADD14RoundRect,0.384616X-0.615384X-0.615384X0.615384X-0.615384X0.615384X0.615384X-0.615384X0.615384X0*%
G04 APERTURE END LIST*
D10*
X115738571Y-109157419D02*
X115738571Y-108157419D01*
X115738571Y-108157419D02*
X115500476Y-108157419D01*
X115500476Y-108157419D02*
X115357619Y-108205038D01*
X115357619Y-108205038D02*
X115262381Y-108300276D01*
X115262381Y-108300276D02*
X115214762Y-108395514D01*
X115214762Y-108395514D02*
X115167143Y-108585990D01*
X115167143Y-108585990D02*
X115167143Y-108728847D01*
X115167143Y-108728847D02*
X115214762Y-108919323D01*
X115214762Y-108919323D02*
X115262381Y-109014561D01*
X115262381Y-109014561D02*
X115357619Y-109109800D01*
X115357619Y-109109800D02*
X115500476Y-109157419D01*
X115500476Y-109157419D02*
X115738571Y-109157419D01*
X114738571Y-109157419D02*
X114738571Y-108490752D01*
X114738571Y-108157419D02*
X114786190Y-108205038D01*
X114786190Y-108205038D02*
X114738571Y-108252657D01*
X114738571Y-108252657D02*
X114690952Y-108205038D01*
X114690952Y-108205038D02*
X114738571Y-108157419D01*
X114738571Y-108157419D02*
X114738571Y-108252657D01*
X114310000Y-109109800D02*
X114214762Y-109157419D01*
X114214762Y-109157419D02*
X114024286Y-109157419D01*
X114024286Y-109157419D02*
X113929048Y-109109800D01*
X113929048Y-109109800D02*
X113881429Y-109014561D01*
X113881429Y-109014561D02*
X113881429Y-108966942D01*
X113881429Y-108966942D02*
X113929048Y-108871704D01*
X113929048Y-108871704D02*
X114024286Y-108824085D01*
X114024286Y-108824085D02*
X114167143Y-108824085D01*
X114167143Y-108824085D02*
X114262381Y-108776466D01*
X114262381Y-108776466D02*
X114310000Y-108681228D01*
X114310000Y-108681228D02*
X114310000Y-108633609D01*
X114310000Y-108633609D02*
X114262381Y-108538371D01*
X114262381Y-108538371D02*
X114167143Y-108490752D01*
X114167143Y-108490752D02*
X114024286Y-108490752D01*
X114024286Y-108490752D02*
X113929048Y-108538371D01*
X113452857Y-108490752D02*
X113452857Y-109490752D01*
X113452857Y-108538371D02*
X113357619Y-108490752D01*
X113357619Y-108490752D02*
X113167143Y-108490752D01*
X113167143Y-108490752D02*
X113071905Y-108538371D01*
X113071905Y-108538371D02*
X113024286Y-108585990D01*
X113024286Y-108585990D02*
X112976667Y-108681228D01*
X112976667Y-108681228D02*
X112976667Y-108966942D01*
X112976667Y-108966942D02*
X113024286Y-109062180D01*
X113024286Y-109062180D02*
X113071905Y-109109800D01*
X113071905Y-109109800D02*
X113167143Y-109157419D01*
X113167143Y-109157419D02*
X113357619Y-109157419D01*
X113357619Y-109157419D02*
X113452857Y-109109800D01*
X112405238Y-109157419D02*
X112500476Y-109109800D01*
X112500476Y-109109800D02*
X112548095Y-109014561D01*
X112548095Y-109014561D02*
X112548095Y-108157419D01*
X111595714Y-109157419D02*
X111595714Y-108633609D01*
X111595714Y-108633609D02*
X111643333Y-108538371D01*
X111643333Y-108538371D02*
X111738571Y-108490752D01*
X111738571Y-108490752D02*
X111929047Y-108490752D01*
X111929047Y-108490752D02*
X112024285Y-108538371D01*
X111595714Y-109109800D02*
X111690952Y-109157419D01*
X111690952Y-109157419D02*
X111929047Y-109157419D01*
X111929047Y-109157419D02*
X112024285Y-109109800D01*
X112024285Y-109109800D02*
X112071904Y-109014561D01*
X112071904Y-109014561D02*
X112071904Y-108919323D01*
X112071904Y-108919323D02*
X112024285Y-108824085D01*
X112024285Y-108824085D02*
X111929047Y-108776466D01*
X111929047Y-108776466D02*
X111690952Y-108776466D01*
X111690952Y-108776466D02*
X111595714Y-108728847D01*
X111214761Y-108490752D02*
X110976666Y-109157419D01*
X110738571Y-108490752D02*
X110976666Y-109157419D01*
X110976666Y-109157419D02*
X111071904Y-109395514D01*
X111071904Y-109395514D02*
X111119523Y-109443133D01*
X111119523Y-109443133D02*
X111214761Y-109490752D01*
X109833809Y-109157419D02*
X110405237Y-109157419D01*
X110119523Y-109157419D02*
X110119523Y-108157419D01*
X110119523Y-108157419D02*
X110214761Y-108300276D01*
X110214761Y-108300276D02*
X110309999Y-108395514D01*
X110309999Y-108395514D02*
X110405237Y-108443133D01*
X115981353Y-100122419D02*
X115362306Y-100122419D01*
X115362306Y-100122419D02*
X115695639Y-100503371D01*
X115695639Y-100503371D02*
X115552782Y-100503371D01*
X115552782Y-100503371D02*
X115457544Y-100550990D01*
X115457544Y-100550990D02*
X115409925Y-100598609D01*
X115409925Y-100598609D02*
X115362306Y-100693847D01*
X115362306Y-100693847D02*
X115362306Y-100931942D01*
X115362306Y-100931942D02*
X115409925Y-101027180D01*
X115409925Y-101027180D02*
X115457544Y-101074800D01*
X115457544Y-101074800D02*
X115552782Y-101122419D01*
X115552782Y-101122419D02*
X115838496Y-101122419D01*
X115838496Y-101122419D02*
X115933734Y-101074800D01*
X115933734Y-101074800D02*
X115981353Y-101027180D01*
X114933734Y-101027180D02*
X114886115Y-101074800D01*
X114886115Y-101074800D02*
X114933734Y-101122419D01*
X114933734Y-101122419D02*
X114981353Y-101074800D01*
X114981353Y-101074800D02*
X114933734Y-101027180D01*
X114933734Y-101027180D02*
X114933734Y-101122419D01*
X114552782Y-100122419D02*
X113933735Y-100122419D01*
X113933735Y-100122419D02*
X114267068Y-100503371D01*
X114267068Y-100503371D02*
X114124211Y-100503371D01*
X114124211Y-100503371D02*
X114028973Y-100550990D01*
X114028973Y-100550990D02*
X113981354Y-100598609D01*
X113981354Y-100598609D02*
X113933735Y-100693847D01*
X113933735Y-100693847D02*
X113933735Y-100931942D01*
X113933735Y-100931942D02*
X113981354Y-101027180D01*
X113981354Y-101027180D02*
X114028973Y-101074800D01*
X114028973Y-101074800D02*
X114124211Y-101122419D01*
X114124211Y-101122419D02*
X114409925Y-101122419D01*
X114409925Y-101122419D02*
X114505163Y-101074800D01*
X114505163Y-101074800D02*
X114552782Y-101027180D01*
X113600401Y-100455752D02*
X113362306Y-101122419D01*
X113362306Y-101122419D02*
X113124211Y-100455752D01*
X118497544Y-100275752D02*
X118497544Y-101085276D01*
X118497544Y-101085276D02*
X118545163Y-101180514D01*
X118545163Y-101180514D02*
X118592782Y-101228133D01*
X118592782Y-101228133D02*
X118688020Y-101275752D01*
X118688020Y-101275752D02*
X118830877Y-101275752D01*
X118830877Y-101275752D02*
X118926115Y-101228133D01*
X118497544Y-100894800D02*
X118592782Y-100942419D01*
X118592782Y-100942419D02*
X118783258Y-100942419D01*
X118783258Y-100942419D02*
X118878496Y-100894800D01*
X118878496Y-100894800D02*
X118926115Y-100847180D01*
X118926115Y-100847180D02*
X118973734Y-100751942D01*
X118973734Y-100751942D02*
X118973734Y-100466228D01*
X118973734Y-100466228D02*
X118926115Y-100370990D01*
X118926115Y-100370990D02*
X118878496Y-100323371D01*
X118878496Y-100323371D02*
X118783258Y-100275752D01*
X118783258Y-100275752D02*
X118592782Y-100275752D01*
X118592782Y-100275752D02*
X118497544Y-100323371D01*
X118021353Y-100275752D02*
X118021353Y-100942419D01*
X118021353Y-100370990D02*
X117973734Y-100323371D01*
X117973734Y-100323371D02*
X117878496Y-100275752D01*
X117878496Y-100275752D02*
X117735639Y-100275752D01*
X117735639Y-100275752D02*
X117640401Y-100323371D01*
X117640401Y-100323371D02*
X117592782Y-100418609D01*
X117592782Y-100418609D02*
X117592782Y-100942419D01*
X116688020Y-100942419D02*
X116688020Y-99942419D01*
X116688020Y-100894800D02*
X116783258Y-100942419D01*
X116783258Y-100942419D02*
X116973734Y-100942419D01*
X116973734Y-100942419D02*
X117068972Y-100894800D01*
X117068972Y-100894800D02*
X117116591Y-100847180D01*
X117116591Y-100847180D02*
X117164210Y-100751942D01*
X117164210Y-100751942D02*
X117164210Y-100466228D01*
X117164210Y-100466228D02*
X117116591Y-100370990D01*
X117116591Y-100370990D02*
X117068972Y-100323371D01*
X117068972Y-100323371D02*
X116973734Y-100275752D01*
X116973734Y-100275752D02*
X116783258Y-100275752D01*
X116783258Y-100275752D02*
X116688020Y-100323371D01*
X102600000Y-100300000D02*
X103300000Y-100300000D01*
X102600000Y-101100000D02*
X103300000Y-101100000D01*
X102600000Y-101900000D02*
X103400000Y-101900000D01*
X103300000Y-100300000D02*
X103300000Y-101100000D01*
X103300000Y-101100000D02*
X104000000Y-101100000D01*
X103300000Y-101900000D02*
X103300000Y-101100000D01*
X104000000Y-100300000D02*
X103300000Y-100300000D01*
X104000000Y-101900000D02*
X103300000Y-101900000D01*
X123700000Y-100300000D02*
X124400000Y-100300000D01*
X123700000Y-101100000D02*
X124400000Y-101100000D01*
X123700000Y-101900000D02*
X124500000Y-101900000D01*
X124400000Y-100300000D02*
X124400000Y-101100000D01*
X124400000Y-101100000D02*
X125100000Y-101100000D01*
X124400000Y-101900000D02*
X124400000Y-101100000D01*
X125100000Y-100300000D02*
X124400000Y-100300000D01*
X125100000Y-101900000D02*
X124400000Y-101900000D01*
%LPC*%
D11*
X108680000Y-105050000D03*
D12*
X111220000Y-105050000D03*
X113760000Y-105050000D03*
X116300000Y-105050000D03*
X118840000Y-105050000D03*
D13*
X123210000Y-124300000D03*
X125750000Y-124300000D03*
X117560000Y-102200000D03*
X115020000Y-102200000D03*
X112480000Y-102200000D03*
X109940000Y-102200000D03*
D14*
X101500000Y-101100000D03*
X105100000Y-101100000D03*
X122600000Y-101100000D03*
X126200000Y-101100000D03*
%LPD*%
M02*
