%TF.GenerationSoftware,KiCad,Pcbnew,8.0.6-8.0.6-0~ubuntu24.04.1*%
%TF.CreationDate,2024-10-30T09:24:07+01:00*%
%TF.ProjectId,breakout_pcb,62726561-6b6f-4757-945f-7063622e6b69,rev?*%
%TF.SameCoordinates,Original*%
%TF.FileFunction,Paste,Top*%
%TF.FilePolarity,Positive*%
%FSLAX46Y46*%
G04 Gerber Fmt 4.6, Leading zero omitted, Abs format (unit mm)*
G04 Created by KiCad (PCBNEW 8.0.6-8.0.6-0~ubuntu24.04.1) date 2024-10-30 09:24:07*
%MOMM*%
%LPD*%
G01*
G04 APERTURE LIST*
G04 Aperture macros list*
%AMRoundRect*
0 Rectangle with rounded corners*
0 $1 Rounding radius*
0 $2 $3 $4 $5 $6 $7 $8 $9 X,Y pos of 4 corners*
0 Add a 4 corners polygon primitive as box body*
4,1,4,$2,$3,$4,$5,$6,$7,$8,$9,$2,$3,0*
0 Add four circle primitives for the rounded corners*
1,1,$1+$1,$2,$3*
1,1,$1+$1,$4,$5*
1,1,$1+$1,$6,$7*
1,1,$1+$1,$8,$9*
0 Add four rect primitives between the rounded corners*
20,1,$1+$1,$2,$3,$4,$5,0*
20,1,$1+$1,$4,$5,$6,$7,0*
20,1,$1+$1,$6,$7,$8,$9,0*
20,1,$1+$1,$8,$9,$2,$3,0*%
G04 Aperture macros list end*
%ADD10RoundRect,0.384616X-0.615384X0.615384X-0.615384X-0.615384X0.615384X-0.615384X0.615384X0.615384X0*%
%ADD11R,0.400000X1.650000*%
%ADD12R,1.825000X0.700000*%
%ADD13R,2.000000X1.500000*%
%ADD14R,1.350000X2.000000*%
%ADD15R,1.430000X2.500000*%
%ADD16RoundRect,0.384616X0.615384X-0.615384X0.615384X0.615384X-0.615384X0.615384X-0.615384X-0.615384X0*%
%ADD17R,0.900000X0.900000*%
%ADD18R,1.500000X0.900000*%
%ADD19R,0.900000X1.500000*%
%ADD20RoundRect,0.375000X0.375000X-0.625000X0.375000X0.625000X-0.375000X0.625000X-0.375000X-0.625000X0*%
%ADD21RoundRect,0.500000X1.400000X-0.500000X1.400000X0.500000X-1.400000X0.500000X-1.400000X-0.500000X0*%
G04 APERTURE END LIST*
D10*
%TO.C,C4*%
X122175000Y-104300000D03*
X122175000Y-107900000D03*
%TD*%
%TO.C,R2*%
X118775000Y-117600000D03*
X118775000Y-121200000D03*
%TD*%
D11*
%TO.C,J1*%
X126845000Y-120370000D03*
X127495000Y-120370000D03*
X128145000Y-120370000D03*
X128795000Y-120370000D03*
X129445000Y-120370000D03*
D12*
X125195000Y-121570000D03*
D13*
X125295000Y-120270000D03*
D14*
X125415000Y-122320000D03*
D15*
X127185000Y-123520000D03*
X129105000Y-123520000D03*
D14*
X130895000Y-122320000D03*
D13*
X131045000Y-120250000D03*
D12*
X131145000Y-121570000D03*
%TD*%
D16*
%TO.C,F1*%
X133850000Y-107900000D03*
X133850000Y-104300000D03*
%TD*%
%TO.C,R1*%
X118775000Y-107900000D03*
X118775000Y-104300000D03*
%TD*%
D10*
%TO.C,R3*%
X137575000Y-117900000D03*
X137575000Y-121500000D03*
%TD*%
%TO.C,C2*%
X137575000Y-104300000D03*
X137575000Y-107900000D03*
%TD*%
D16*
%TO.C,C1*%
X118775000Y-114900000D03*
X118775000Y-111300000D03*
%TD*%
%TO.C,C3*%
X137575000Y-114900000D03*
X137575000Y-111300000D03*
%TD*%
D17*
%TO.C,U2*%
X125275000Y-81710000D03*
X125275000Y-83110000D03*
X125275000Y-84510000D03*
X126675000Y-81710000D03*
X126675000Y-83110000D03*
X126675000Y-84510000D03*
X128075000Y-81710000D03*
X128075000Y-83110000D03*
X128075000Y-84510000D03*
D18*
X119425000Y-75390000D03*
X119425000Y-76660000D03*
X119425000Y-77930000D03*
X119425000Y-79200000D03*
X119425000Y-80470000D03*
X119425000Y-81740000D03*
X119425000Y-83010000D03*
X119425000Y-84280000D03*
X119425000Y-85550000D03*
X119425000Y-86820000D03*
X119425000Y-88090000D03*
X119425000Y-89360000D03*
X119425000Y-90630000D03*
X119425000Y-91900000D03*
D19*
X121190000Y-93150000D03*
X122460000Y-93150000D03*
X123730000Y-93150000D03*
X125000000Y-93150000D03*
X126270000Y-93150000D03*
X127540000Y-93150000D03*
X128810000Y-93150000D03*
X130080000Y-93150000D03*
X131350000Y-93150000D03*
X132620000Y-93150000D03*
X133890000Y-93150000D03*
X135160000Y-93150000D03*
D18*
X136925000Y-91900000D03*
X136925000Y-90630000D03*
X136925000Y-89360000D03*
X136925000Y-88090000D03*
X136925000Y-86820000D03*
X136925000Y-85550000D03*
X136925000Y-84280000D03*
X136925000Y-83010000D03*
X136925000Y-81740000D03*
X136925000Y-80470000D03*
X136925000Y-79200000D03*
X136925000Y-77930000D03*
X136925000Y-76660000D03*
X136925000Y-75390000D03*
%TD*%
D20*
%TO.C,U1*%
X125375000Y-107650000D03*
X127675000Y-107650000D03*
D21*
X127675000Y-101350000D03*
D20*
X129975000Y-107650000D03*
%TD*%
M02*
