%TF.GenerationSoftware,KiCad,Pcbnew,8.0.6-8.0.6-0~ubuntu24.04.1*%
%TF.CreationDate,2024-10-30T09:24:07+01:00*%
%TF.ProjectId,breakout_pcb,62726561-6b6f-4757-945f-7063622e6b69,rev?*%
%TF.SameCoordinates,Original*%
%TF.FileFunction,Copper,L2,Bot*%
%TF.FilePolarity,Positive*%
%FSLAX46Y46*%
G04 Gerber Fmt 4.6, Leading zero omitted, Abs format (unit mm)*
G04 Created by KiCad (PCBNEW 8.0.6-8.0.6-0~ubuntu24.04.1) date 2024-10-30 09:24:07*
%MOMM*%
%LPD*%
G01*
G04 APERTURE LIST*
%TA.AperFunction,ComponentPad*%
%ADD10R,1.700000X1.700000*%
%TD*%
%TA.AperFunction,ComponentPad*%
%ADD11O,1.700000X1.700000*%
%TD*%
%TA.AperFunction,ComponentPad*%
%ADD12R,1.700000X2.200000*%
%TD*%
%TA.AperFunction,ComponentPad*%
%ADD13O,1.700000X2.200000*%
%TD*%
%TA.AperFunction,ComponentPad*%
%ADD14O,1.350000X1.700000*%
%TD*%
%TA.AperFunction,ComponentPad*%
%ADD15O,1.100000X1.500000*%
%TD*%
%TA.AperFunction,HeatsinkPad*%
%ADD16C,1.500000*%
%TD*%
%TA.AperFunction,HeatsinkPad*%
%ADD17C,2.000000*%
%TD*%
%TA.AperFunction,ViaPad*%
%ADD18C,0.600000*%
%TD*%
%TA.AperFunction,Conductor*%
%ADD19C,0.500000*%
%TD*%
%TA.AperFunction,Conductor*%
%ADD20C,0.200000*%
%TD*%
G04 APERTURE END LIST*
D10*
%TO.P,J2,1,Pin_1*%
%TO.N,/5v*%
X114170000Y-75700000D03*
D11*
%TO.P,J2,2,Pin_2*%
%TO.N,/3.3v*%
X114170000Y-78240000D03*
%TO.P,J2,3,Pin_3*%
%TO.N,GND*%
X114170000Y-80780000D03*
%TO.P,J2,4,Pin_4*%
%TO.N,/EN*%
X114170000Y-83320000D03*
%TO.P,J2,5,Pin_5*%
%TO.N,/IO1*%
X114170000Y-85860000D03*
%TO.P,J2,6,Pin_6*%
%TO.N,/IO2*%
X114170000Y-88400000D03*
%TO.P,J2,7,Pin_7*%
%TO.N,/IO3*%
X114170000Y-90940000D03*
%TO.P,J2,8,Pin_8*%
%TO.N,/IO4*%
X114170000Y-93480000D03*
%TO.P,J2,9,Pin_9*%
%TO.N,/IO5*%
X114170000Y-96020000D03*
%TO.P,J2,10,Pin_10*%
%TO.N,/IO6*%
X114170000Y-98560000D03*
%TO.P,J2,11,Pin_11*%
%TO.N,/IO7*%
X114170000Y-101100000D03*
%TO.P,J2,12,Pin_12*%
%TO.N,/IO8*%
X114170000Y-103640000D03*
%TO.P,J2,13,Pin_13*%
%TO.N,/IO9*%
X114170000Y-106180000D03*
%TO.P,J2,14,Pin_14*%
%TO.N,/IO10*%
X114170000Y-108720000D03*
%TO.P,J2,15,Pin_15*%
%TO.N,/IO11*%
X114170000Y-111260000D03*
%TO.P,J2,16,Pin_16*%
%TO.N,/IO12*%
X114170000Y-113800000D03*
%TO.P,J2,17,Pin_17*%
%TO.N,/IO13*%
X114170000Y-116340000D03*
%TO.P,J2,18,Pin_18*%
%TO.N,/IO14*%
X114170000Y-118880000D03*
%TO.P,J2,19,Pin_19*%
%TO.N,/IO15*%
X114170000Y-121420000D03*
%TO.P,J2,20,Pin_20*%
%TO.N,GND*%
X114170000Y-123960000D03*
%TD*%
D12*
%TO.P,Mico_USB_Breakout1,1,Pin_1*%
%TO.N,Net-(J1-VBUS)*%
X123120000Y-112750000D03*
D13*
%TO.P,Mico_USB_Breakout1,2,Pin_2*%
%TO.N,/USB_D_N*%
X125660000Y-112750000D03*
%TO.P,Mico_USB_Breakout1,3,Pin_3*%
%TO.N,/USB_D_P*%
X128200000Y-112750000D03*
%TO.P,Mico_USB_Breakout1,4,Pin_4*%
%TO.N,unconnected-(J1-ID-Pad4)*%
X130740000Y-112750000D03*
%TO.P,Mico_USB_Breakout1,5,Pin_5*%
%TO.N,GND*%
X133280000Y-112750000D03*
%TD*%
D10*
%TO.P,J3,1,Pin_1*%
%TO.N,/5v*%
X142175000Y-75700000D03*
D11*
%TO.P,J3,2,Pin_2*%
%TO.N,/3.3v*%
X142175000Y-78240000D03*
%TO.P,J3,3,Pin_3*%
%TO.N,GND*%
X142175000Y-80780000D03*
%TO.P,J3,4,Pin_4*%
%TO.N,/IO16*%
X142175000Y-83320000D03*
%TO.P,J3,5,Pin_5*%
%TO.N,/IO17*%
X142175000Y-85860000D03*
%TO.P,J3,6,Pin_6*%
%TO.N,/IO18*%
X142175000Y-88400000D03*
%TO.P,J3,7,Pin_7*%
%TO.N,/IO21*%
X142175000Y-90940000D03*
%TO.P,J3,8,Pin_8*%
%TO.N,/IO38*%
X142175000Y-93480000D03*
%TO.P,J3,9,Pin_9*%
%TO.N,/IO47*%
X142175000Y-96020000D03*
%TO.P,J3,10,Pin_10*%
%TO.N,/IO48*%
X142175000Y-98560000D03*
%TO.P,J3,11,Pin_11*%
%TO.N,/IO35*%
X142175000Y-101100000D03*
%TO.P,J3,12,Pin_12*%
%TO.N,/IO36*%
X142175000Y-103640000D03*
%TO.P,J3,13,Pin_13*%
%TO.N,/IO37*%
X142175000Y-106180000D03*
%TO.P,J3,14,Pin_14*%
%TO.N,/IO39*%
X142175000Y-108720000D03*
%TO.P,J3,15,Pin_15*%
%TO.N,/IO40*%
X142175000Y-111260000D03*
%TO.P,J3,16,Pin_16*%
%TO.N,/IO41*%
X142175000Y-113800000D03*
%TO.P,J3,17,Pin_17*%
%TO.N,/IO42*%
X142175000Y-116340000D03*
%TO.P,J3,18,Pin_18*%
%TO.N,/IO43*%
X142175000Y-118880000D03*
%TO.P,J3,19,Pin_19*%
%TO.N,/IO44*%
X142175000Y-121420000D03*
%TO.P,J3,20,Pin_20*%
%TO.N,GND*%
X142175000Y-123960000D03*
%TD*%
D14*
%TO.P,J1,6,Shield*%
%TO.N,GND*%
X125415000Y-123250000D03*
D15*
X125725000Y-120250000D03*
X130565000Y-120250000D03*
D14*
X130875000Y-123250000D03*
%TD*%
D16*
%TO.P,U2,41,GND*%
%TO.N,GND*%
X125665000Y-82070000D03*
D17*
X125875000Y-83940000D03*
X127605000Y-82190000D03*
D16*
X127715000Y-84070000D03*
%TD*%
D18*
%TO.N,GND*%
X122150000Y-117375000D03*
X141050000Y-79525000D03*
X139475000Y-84625000D03*
X124000000Y-106000000D03*
X134075000Y-121050000D03*
X139900000Y-121175000D03*
X116000000Y-75500000D03*
X128700000Y-79725000D03*
X126550000Y-105975000D03*
X116100000Y-119050000D03*
X129445000Y-121725000D03*
X119775000Y-96875000D03*
X132200000Y-75575000D03*
X133425000Y-100175000D03*
X124200000Y-77575000D03*
X138225000Y-93225000D03*
X127400000Y-98575000D03*
X132750000Y-84550000D03*
X128650000Y-89175000D03*
X122200000Y-124275000D03*
X130675000Y-117050000D03*
X133425000Y-110250000D03*
X133900000Y-116950000D03*
X134200000Y-124200000D03*
X127875000Y-75500000D03*
X139400000Y-81900000D03*
X133875000Y-102475000D03*
X134125000Y-89700000D03*
X115250000Y-79500000D03*
X125150000Y-117275000D03*
X122225000Y-120875000D03*
X117975000Y-77650000D03*
X140975000Y-82050000D03*
X121775000Y-94800000D03*
X139350000Y-75725000D03*
X118075000Y-109500000D03*
X137350000Y-102525000D03*
X140050000Y-104350000D03*
X116000000Y-79225000D03*
X140475000Y-87225000D03*
X116175000Y-122625000D03*
X117675000Y-98625000D03*
X140125000Y-107675000D03*
X121675000Y-75550000D03*
X121975000Y-79800000D03*
X131725000Y-79250000D03*
X126575000Y-103275000D03*
X128650000Y-91675000D03*
X122025000Y-89400000D03*
X121925000Y-77850000D03*
X117950000Y-93600000D03*
X141050000Y-122700000D03*
X139350000Y-78575000D03*
X119950000Y-94100000D03*
X137400000Y-96325000D03*
X124350000Y-103275000D03*
X123175000Y-101875000D03*
X115275000Y-122700000D03*
X122225000Y-84300000D03*
X122725000Y-110300000D03*
X137550000Y-99975000D03*
X124375000Y-100675000D03*
X118000000Y-113125000D03*
X133450000Y-96225000D03*
X127000000Y-79775000D03*
X120450000Y-106075000D03*
X135150000Y-75650000D03*
%TO.N,/5v*%
X129975000Y-103225000D03*
%TO.N,/3.3v*%
X129050000Y-75750000D03*
X130725000Y-75750000D03*
X120850000Y-76650000D03*
X126265000Y-99700000D03*
%TO.N,/EN*%
X120900000Y-84850000D03*
X122175000Y-102625000D03*
%TO.N,/USB_D_N*%
X124300000Y-90625000D03*
%TO.N,/USB_D_P*%
X127225000Y-91889998D03*
%TO.N,/IO15*%
X117016765Y-104191765D03*
X117025000Y-99925000D03*
%TO.N,/IO14*%
X120291391Y-103305353D03*
%TO.N,/IO2*%
X121525000Y-83250000D03*
%TO.N,/IO8*%
X118050000Y-89350000D03*
%TO.N,/IO13*%
X119646264Y-102832263D03*
%TO.N,/IO1*%
X121400000Y-81825000D03*
%TO.N,/IO12*%
X118408526Y-102800001D03*
%TO.N,/IO3*%
X117625000Y-90950000D03*
%TO.N,/IO44*%
X132975000Y-80475000D03*
%TO.N,/IO36*%
X140425000Y-94506765D03*
X140859646Y-93176116D03*
%TO.N,/IO21*%
X135500000Y-90925000D03*
%TO.N,/IO41*%
X133049265Y-82999265D03*
%TO.N,/IO18*%
X135150000Y-88375000D03*
%TO.N,/IO42*%
X133450000Y-81750000D03*
%TO.N,/IO39*%
X135227060Y-85053717D03*
%TO.N,/IO38*%
X139222207Y-90275735D03*
X139643527Y-89000000D03*
%TO.N,/IO37*%
X139894461Y-93907991D03*
X140849265Y-91475735D03*
%TO.N,/IO47*%
X139225000Y-95300000D03*
%TO.N,/IO48*%
X138275000Y-94700000D03*
%TO.N,/IO40*%
X135086765Y-84261765D03*
%TO.N,/IO16*%
X135175000Y-83325000D03*
%TO.N,/IO43*%
X131175000Y-83174265D03*
%TO.N,/IO17*%
X135150000Y-85850000D03*
%TD*%
D19*
%TO.N,GND*%
X140975000Y-82050000D02*
X141400000Y-82050000D01*
X142175000Y-81275000D02*
X142175000Y-80780000D01*
X142175000Y-123825000D02*
X141050000Y-122700000D01*
X142175000Y-123960000D02*
X142175000Y-123825000D01*
X114175000Y-123960000D02*
X114175000Y-123800000D01*
X141450000Y-79525000D02*
X142175000Y-80250000D01*
X141050000Y-79525000D02*
X141450000Y-79525000D01*
X114175000Y-123800000D02*
X115275000Y-122700000D01*
X142175000Y-80250000D02*
X142175000Y-80780000D01*
X141400000Y-82050000D02*
X142175000Y-81275000D01*
%TO.N,/5v*%
X133850000Y-74650000D02*
X129975000Y-74650000D01*
X115225000Y-74650000D02*
X114175000Y-75700000D01*
X141125000Y-74650000D02*
X142175000Y-75700000D01*
X129975000Y-74650000D02*
X115225000Y-74650000D01*
X133850000Y-74650000D02*
X141125000Y-74650000D01*
X129975000Y-103225000D02*
X129975000Y-74650000D01*
%TO.N,/3.3v*%
X120875000Y-76675000D02*
X120850000Y-76650000D01*
X130725000Y-75750000D02*
X131975000Y-77000000D01*
X123300000Y-76675000D02*
X128125000Y-76675000D01*
X128125000Y-76675000D02*
X129050000Y-75750000D01*
X123300000Y-84175000D02*
X123300000Y-76675000D01*
X140935000Y-77000000D02*
X142175000Y-78240000D01*
X123300000Y-76675000D02*
X120875000Y-76675000D01*
X131975000Y-77000000D02*
X140935000Y-77000000D01*
X126265000Y-87140000D02*
X123300000Y-84175000D01*
X126265000Y-99700000D02*
X126265000Y-87140000D01*
D20*
%TO.N,/EN*%
X120900000Y-84850000D02*
X120900000Y-101350000D01*
X120900000Y-101350000D02*
X122175000Y-102625000D01*
%TO.N,/USB_D_N*%
X125665000Y-91990000D02*
X124300000Y-90625000D01*
X125665000Y-112750000D02*
X125665000Y-91990000D01*
%TO.N,/USB_D_P*%
X128205000Y-112750000D02*
X128205000Y-92869998D01*
X128205000Y-92869998D02*
X127225000Y-91889998D01*
%TO.N,/IO15*%
X117025000Y-99925000D02*
X117025000Y-104183530D01*
X117025000Y-104183530D02*
X117016765Y-104191765D01*
%TO.N,/IO14*%
X117100000Y-106496744D02*
X117100000Y-115955000D01*
X120291391Y-103305353D02*
X117100000Y-106496744D01*
X117100000Y-115955000D02*
X114175000Y-118880000D01*
%TO.N,/IO2*%
X121525000Y-83250000D02*
X116375000Y-88400000D01*
X116375000Y-88400000D02*
X114175000Y-88400000D01*
%TO.N,/IO8*%
X118225000Y-91198529D02*
X118225000Y-89525000D01*
X116425000Y-92998529D02*
X118225000Y-91198529D01*
X118225000Y-89525000D02*
X118050000Y-89350000D01*
X114175000Y-103640000D02*
X116425000Y-101390000D01*
X116425000Y-101390000D02*
X116425000Y-92998529D01*
%TO.N,/IO13*%
X116647744Y-105975000D02*
X116647744Y-113867256D01*
X119646264Y-102832263D02*
X119646264Y-102976480D01*
X116647744Y-113867256D02*
X114175000Y-116340000D01*
X118808526Y-103814218D02*
X118808526Y-103814219D01*
X119646264Y-102976480D02*
X118808526Y-103814218D01*
X118808526Y-103814219D02*
X116647744Y-105975000D01*
%TO.N,/IO1*%
X117365000Y-85860000D02*
X114175000Y-85860000D01*
X121400000Y-81825000D02*
X117365000Y-85860000D01*
%TO.N,/IO12*%
X118408526Y-103648533D02*
X116225000Y-105832059D01*
X118408526Y-102800001D02*
X118408526Y-103648533D01*
X116225000Y-111750000D02*
X114175000Y-113800000D01*
X116225000Y-105832059D02*
X116225000Y-111750000D01*
%TO.N,/IO3*%
X117615000Y-90940000D02*
X114175000Y-90940000D01*
X117625000Y-90950000D02*
X117615000Y-90940000D01*
%TO.N,/IO44*%
X130575000Y-102976471D02*
X130575000Y-82875000D01*
X130575000Y-104673529D02*
X130575000Y-102976471D01*
X134435000Y-113680000D02*
X134435000Y-108533529D01*
X130575000Y-82875000D02*
X132975000Y-80475000D01*
X134435000Y-108533529D02*
X130575000Y-104673529D01*
X142175000Y-121420000D02*
X134435000Y-113680000D01*
%TO.N,/IO36*%
X140859646Y-93176116D02*
X140859646Y-94072119D01*
X140859646Y-94072119D02*
X140425000Y-94506765D01*
%TO.N,/IO21*%
X135500000Y-90925000D02*
X135549265Y-90875735D01*
X135549265Y-90875735D02*
X142110735Y-90875735D01*
X142110735Y-90875735D02*
X142175000Y-90940000D01*
%TO.N,/IO41*%
X131775000Y-84434315D02*
X131775000Y-84273530D01*
X131775000Y-84273530D02*
X133049265Y-82999265D01*
X131775000Y-99750000D02*
X131775000Y-84434315D01*
X142175000Y-113800000D02*
X131775000Y-103400000D01*
X131775000Y-103400000D02*
X131775000Y-99750000D01*
%TO.N,/IO18*%
X135175000Y-88400000D02*
X142175000Y-88400000D01*
X135150000Y-88375000D02*
X135175000Y-88400000D01*
%TO.N,/IO42*%
X131375000Y-104342158D02*
X131375000Y-84600000D01*
X142175000Y-116340000D02*
X135235000Y-109400000D01*
X133266421Y-106233579D02*
X131375000Y-104342158D01*
X135235000Y-109400000D02*
X135235000Y-108202158D01*
X135235000Y-108202158D02*
X133266421Y-106233579D01*
X131375000Y-84600000D02*
X131375000Y-83825000D01*
X131375000Y-83825000D02*
X133450000Y-81750000D01*
%TO.N,/IO39*%
X138226372Y-108720000D02*
X132575000Y-103068628D01*
X132575000Y-103068628D02*
X132575000Y-87725000D01*
X135097754Y-85053717D02*
X135227060Y-85053717D01*
X132575000Y-87725000D02*
X132575000Y-87576471D01*
X132575000Y-87576471D02*
X135097754Y-85053717D01*
X142175000Y-108720000D02*
X138226372Y-108720000D01*
%TO.N,/IO38*%
X139222207Y-89421320D02*
X139643527Y-89000000D01*
X139222207Y-90275735D02*
X139222207Y-89421320D01*
%TO.N,/IO37*%
X140849265Y-91475735D02*
X139894461Y-92430539D01*
X139894461Y-92430539D02*
X139894461Y-93907991D01*
%TO.N,/IO47*%
X139225000Y-95300000D02*
X141225000Y-95300000D01*
X141225000Y-95300000D02*
X141945000Y-96020000D01*
X141945000Y-96020000D02*
X142175000Y-96020000D01*
%TO.N,/IO48*%
X140125000Y-96075000D02*
X141500000Y-97450000D01*
X138275000Y-94700000D02*
X138275000Y-95198529D01*
X141500000Y-97885000D02*
X142175000Y-98560000D01*
X138275000Y-95198529D02*
X139151471Y-96075000D01*
X139151471Y-96075000D02*
X140125000Y-96075000D01*
X141500000Y-97450000D02*
X141500000Y-97885000D01*
%TO.N,/IO40*%
X132175000Y-87173530D02*
X135086765Y-84261765D01*
X132175000Y-87925000D02*
X132175000Y-87173530D01*
X142175000Y-111260000D02*
X140200686Y-111260000D01*
X132507843Y-103567157D02*
X132175000Y-103234314D01*
X132175000Y-103234314D02*
X132175000Y-87925000D01*
X140200686Y-111260000D02*
X132507843Y-103567157D01*
%TO.N,/IO16*%
X135175000Y-83325000D02*
X140325000Y-83325000D01*
X140330000Y-83320000D02*
X142175000Y-83320000D01*
X140325000Y-83325000D02*
X140330000Y-83320000D01*
%TO.N,/IO43*%
X134835000Y-111540000D02*
X142175000Y-118880000D01*
X131175000Y-83174265D02*
X130975000Y-83374265D01*
X130975000Y-83374265D02*
X130975000Y-104507844D01*
X134835000Y-108367844D02*
X134835000Y-111540000D01*
X130975000Y-104507844D02*
X134835000Y-108367844D01*
%TO.N,/IO17*%
X135150000Y-85850000D02*
X135175000Y-85850000D01*
X135175000Y-85850000D02*
X135185000Y-85860000D01*
X135185000Y-85860000D02*
X142175000Y-85860000D01*
%TD*%
%TA.AperFunction,Conductor*%
%TO.N,GND*%
G36*
X122482694Y-83365646D02*
G01*
X122533097Y-83414033D01*
X122549500Y-83475668D01*
X122549500Y-84248918D01*
X122549500Y-84248920D01*
X122549499Y-84248920D01*
X122578340Y-84393907D01*
X122578343Y-84393917D01*
X122634914Y-84530492D01*
X122634915Y-84530494D01*
X122634916Y-84530495D01*
X122662278Y-84571446D01*
X122663448Y-84573196D01*
X122663449Y-84573199D01*
X122717046Y-84653414D01*
X122717052Y-84653421D01*
X125478181Y-87414548D01*
X125511666Y-87475871D01*
X125514500Y-87502229D01*
X125514500Y-90690902D01*
X125494815Y-90757941D01*
X125442011Y-90803696D01*
X125372853Y-90813640D01*
X125309297Y-90784615D01*
X125302819Y-90778583D01*
X125130700Y-90606465D01*
X125097215Y-90545142D01*
X125095163Y-90532686D01*
X125085368Y-90445745D01*
X125025789Y-90275478D01*
X124929816Y-90122738D01*
X124802262Y-89995184D01*
X124735948Y-89953516D01*
X124649523Y-89899211D01*
X124479254Y-89839631D01*
X124479249Y-89839630D01*
X124300004Y-89819435D01*
X124299996Y-89819435D01*
X124120750Y-89839630D01*
X124120745Y-89839631D01*
X123950476Y-89899211D01*
X123797737Y-89995184D01*
X123670184Y-90122737D01*
X123574211Y-90275476D01*
X123514631Y-90445745D01*
X123514630Y-90445750D01*
X123494435Y-90624996D01*
X123494435Y-90625003D01*
X123514630Y-90804249D01*
X123514631Y-90804254D01*
X123574211Y-90974523D01*
X123643273Y-91084433D01*
X123670184Y-91127262D01*
X123797738Y-91254816D01*
X123950478Y-91350789D01*
X124120745Y-91410368D01*
X124207669Y-91420161D01*
X124272080Y-91447226D01*
X124281465Y-91455700D01*
X125028181Y-92202416D01*
X125061666Y-92263739D01*
X125064500Y-92290097D01*
X125064500Y-111211733D01*
X125044815Y-111278772D01*
X124996796Y-111322217D01*
X124952182Y-111344949D01*
X124780215Y-111469889D01*
X124666673Y-111583431D01*
X124605350Y-111616915D01*
X124535658Y-111611931D01*
X124479725Y-111570059D01*
X124462810Y-111539082D01*
X124413797Y-111407671D01*
X124413793Y-111407664D01*
X124327547Y-111292455D01*
X124327544Y-111292452D01*
X124212335Y-111206206D01*
X124212328Y-111206202D01*
X124077482Y-111155908D01*
X124077483Y-111155908D01*
X124017883Y-111149501D01*
X124017881Y-111149500D01*
X124017873Y-111149500D01*
X124017864Y-111149500D01*
X122222129Y-111149500D01*
X122222123Y-111149501D01*
X122162516Y-111155908D01*
X122027671Y-111206202D01*
X122027664Y-111206206D01*
X121912455Y-111292452D01*
X121912452Y-111292455D01*
X121826206Y-111407664D01*
X121826202Y-111407671D01*
X121775908Y-111542517D01*
X121769501Y-111602116D01*
X121769500Y-111602135D01*
X121769500Y-113897870D01*
X121769501Y-113897876D01*
X121775908Y-113957483D01*
X121826202Y-114092328D01*
X121826206Y-114092335D01*
X121912452Y-114207544D01*
X121912455Y-114207547D01*
X122027664Y-114293793D01*
X122027671Y-114293797D01*
X122162517Y-114344091D01*
X122162516Y-114344091D01*
X122169444Y-114344835D01*
X122222127Y-114350500D01*
X124017872Y-114350499D01*
X124077483Y-114344091D01*
X124212331Y-114293796D01*
X124327546Y-114207546D01*
X124413796Y-114092331D01*
X124462810Y-113960916D01*
X124504681Y-113904984D01*
X124570145Y-113880566D01*
X124638418Y-113895417D01*
X124666673Y-113916569D01*
X124780213Y-114030109D01*
X124952179Y-114155048D01*
X124952181Y-114155049D01*
X124952184Y-114155051D01*
X125141588Y-114251557D01*
X125343757Y-114317246D01*
X125553713Y-114350500D01*
X125553714Y-114350500D01*
X125766286Y-114350500D01*
X125766287Y-114350500D01*
X125976243Y-114317246D01*
X126178412Y-114251557D01*
X126367816Y-114155051D01*
X126454138Y-114092335D01*
X126539786Y-114030109D01*
X126539788Y-114030106D01*
X126539792Y-114030104D01*
X126690104Y-113879792D01*
X126690106Y-113879788D01*
X126690109Y-113879786D01*
X126815048Y-113707820D01*
X126815047Y-113707820D01*
X126815051Y-113707816D01*
X126819514Y-113699054D01*
X126867488Y-113648259D01*
X126935308Y-113631463D01*
X127001444Y-113653999D01*
X127040486Y-113699056D01*
X127044951Y-113707820D01*
X127169890Y-113879786D01*
X127320213Y-114030109D01*
X127492179Y-114155048D01*
X127492181Y-114155049D01*
X127492184Y-114155051D01*
X127681588Y-114251557D01*
X127883757Y-114317246D01*
X128093713Y-114350500D01*
X128093714Y-114350500D01*
X128306286Y-114350500D01*
X128306287Y-114350500D01*
X128516243Y-114317246D01*
X128718412Y-114251557D01*
X128907816Y-114155051D01*
X128994138Y-114092335D01*
X129079786Y-114030109D01*
X129079788Y-114030106D01*
X129079792Y-114030104D01*
X129230104Y-113879792D01*
X129230106Y-113879788D01*
X129230109Y-113879786D01*
X129355048Y-113707820D01*
X129355047Y-113707820D01*
X129355051Y-113707816D01*
X129359514Y-113699054D01*
X129407488Y-113648259D01*
X129475308Y-113631463D01*
X129541444Y-113653999D01*
X129580486Y-113699056D01*
X129584951Y-113707820D01*
X129709890Y-113879786D01*
X129860213Y-114030109D01*
X130032179Y-114155048D01*
X130032181Y-114155049D01*
X130032184Y-114155051D01*
X130221588Y-114251557D01*
X130423757Y-114317246D01*
X130633713Y-114350500D01*
X130633714Y-114350500D01*
X130846286Y-114350500D01*
X130846287Y-114350500D01*
X131056243Y-114317246D01*
X131258412Y-114251557D01*
X131447816Y-114155051D01*
X131534138Y-114092335D01*
X131619786Y-114030109D01*
X131619788Y-114030106D01*
X131619792Y-114030104D01*
X131770104Y-113879792D01*
X131770106Y-113879788D01*
X131770109Y-113879786D01*
X131895048Y-113707820D01*
X131895051Y-113707816D01*
X131899793Y-113698508D01*
X131947763Y-113647711D01*
X132015583Y-113630911D01*
X132081719Y-113653445D01*
X132120763Y-113698500D01*
X132125377Y-113707555D01*
X132250272Y-113879459D01*
X132250276Y-113879464D01*
X132400535Y-114029723D01*
X132400540Y-114029727D01*
X132572442Y-114154620D01*
X132761782Y-114251095D01*
X132963871Y-114316757D01*
X133030000Y-114327231D01*
X133030000Y-113183012D01*
X133087007Y-113215925D01*
X133214174Y-113250000D01*
X133345826Y-113250000D01*
X133472993Y-113215925D01*
X133530000Y-113183012D01*
X133530000Y-114327230D01*
X133596126Y-114316757D01*
X133596129Y-114316757D01*
X133798217Y-114251095D01*
X133955532Y-114170939D01*
X134024201Y-114158043D01*
X134088941Y-114184319D01*
X134099508Y-114193743D01*
X140842233Y-120936468D01*
X140875718Y-120997791D01*
X140874327Y-121056241D01*
X140839939Y-121184583D01*
X140839936Y-121184596D01*
X140819341Y-121419999D01*
X140819341Y-121420000D01*
X140839936Y-121655403D01*
X140839938Y-121655413D01*
X140901094Y-121883655D01*
X140901096Y-121883659D01*
X140901097Y-121883663D01*
X140948856Y-121986082D01*
X141000965Y-122097830D01*
X141000967Y-122097834D01*
X141076897Y-122206272D01*
X141136501Y-122291396D01*
X141136506Y-122291402D01*
X141303597Y-122458493D01*
X141303603Y-122458498D01*
X141489594Y-122588730D01*
X141533219Y-122643307D01*
X141540413Y-122712805D01*
X141508890Y-122775160D01*
X141489595Y-122791880D01*
X141303922Y-122921890D01*
X141303920Y-122921891D01*
X141136891Y-123088920D01*
X141136886Y-123088926D01*
X141001400Y-123282420D01*
X141001399Y-123282422D01*
X140901570Y-123496507D01*
X140901567Y-123496513D01*
X140844364Y-123709999D01*
X140844364Y-123710000D01*
X141741988Y-123710000D01*
X141709075Y-123767007D01*
X141675000Y-123894174D01*
X141675000Y-124025826D01*
X141709075Y-124152993D01*
X141741988Y-124210000D01*
X140844364Y-124210000D01*
X140901567Y-124423486D01*
X140901570Y-124423492D01*
X141001399Y-124637578D01*
X141136894Y-124831082D01*
X141303921Y-124998109D01*
X141340791Y-125023926D01*
X141384416Y-125078503D01*
X141391608Y-125148001D01*
X141360086Y-125210356D01*
X141299856Y-125245769D01*
X141269667Y-125249500D01*
X115075333Y-125249500D01*
X115008294Y-125229815D01*
X114962539Y-125177011D01*
X114952595Y-125107853D01*
X114981620Y-125044297D01*
X115004209Y-125023926D01*
X115041078Y-124998109D01*
X115208105Y-124831082D01*
X115343600Y-124637578D01*
X115443429Y-124423492D01*
X115443432Y-124423486D01*
X115500636Y-124210000D01*
X114603012Y-124210000D01*
X114635925Y-124152993D01*
X114670000Y-124025826D01*
X114670000Y-123894174D01*
X114635925Y-123767007D01*
X114603012Y-123710000D01*
X115500636Y-123710000D01*
X115500635Y-123709999D01*
X115443432Y-123496513D01*
X115443429Y-123496507D01*
X115343600Y-123282422D01*
X115343599Y-123282420D01*
X115208113Y-123088926D01*
X115208108Y-123088920D01*
X115101714Y-122982526D01*
X124240000Y-122982526D01*
X124240000Y-123000000D01*
X125065000Y-123000000D01*
X125065000Y-123500000D01*
X124240000Y-123500000D01*
X124240000Y-123517473D01*
X124268933Y-123700147D01*
X124326083Y-123876040D01*
X124326084Y-123876043D01*
X124410052Y-124040837D01*
X124518754Y-124190454D01*
X124518758Y-124190459D01*
X124649540Y-124321241D01*
X124649545Y-124321245D01*
X124799162Y-124429947D01*
X124963956Y-124513915D01*
X124963959Y-124513916D01*
X125139845Y-124571064D01*
X125139858Y-124571067D01*
X125165000Y-124575049D01*
X125165000Y-123744975D01*
X125200095Y-123780070D01*
X125279905Y-123826148D01*
X125368922Y-123850000D01*
X125461078Y-123850000D01*
X125550095Y-123826148D01*
X125629905Y-123780070D01*
X125665000Y-123744975D01*
X125665000Y-124575048D01*
X125690141Y-124571067D01*
X125690154Y-124571064D01*
X125866040Y-124513916D01*
X125866043Y-124513915D01*
X126030837Y-124429947D01*
X126180454Y-124321245D01*
X126180459Y-124321241D01*
X126311241Y-124190459D01*
X126311245Y-124190454D01*
X126419947Y-124040837D01*
X126503915Y-123876043D01*
X126503916Y-123876040D01*
X126561066Y-123700147D01*
X126590000Y-123517473D01*
X126590000Y-123500000D01*
X125765000Y-123500000D01*
X125765000Y-123000000D01*
X126590000Y-123000000D01*
X126590000Y-122982526D01*
X129700000Y-122982526D01*
X129700000Y-123000000D01*
X130525000Y-123000000D01*
X130525000Y-123500000D01*
X129700000Y-123500000D01*
X129700000Y-123517473D01*
X129728933Y-123700147D01*
X129786083Y-123876040D01*
X129786084Y-123876043D01*
X129870052Y-124040837D01*
X129978754Y-124190454D01*
X129978758Y-124190459D01*
X130109540Y-124321241D01*
X130109545Y-124321245D01*
X130259162Y-124429947D01*
X130423956Y-124513915D01*
X130423959Y-124513916D01*
X130599845Y-124571064D01*
X130599858Y-124571067D01*
X130625000Y-124575049D01*
X130625000Y-123744975D01*
X130660095Y-123780070D01*
X130739905Y-123826148D01*
X130828922Y-123850000D01*
X130921078Y-123850000D01*
X131010095Y-123826148D01*
X131089905Y-123780070D01*
X131125000Y-123744975D01*
X131125000Y-124575048D01*
X131150141Y-124571067D01*
X131150154Y-124571064D01*
X131326040Y-124513916D01*
X131326043Y-124513915D01*
X131490837Y-124429947D01*
X131640454Y-124321245D01*
X131640459Y-124321241D01*
X131771241Y-124190459D01*
X131771245Y-124190454D01*
X131879947Y-124040837D01*
X131963915Y-123876043D01*
X131963916Y-123876040D01*
X132021066Y-123700147D01*
X132050000Y-123517473D01*
X132050000Y-123500000D01*
X131225000Y-123500000D01*
X131225000Y-123000000D01*
X132050000Y-123000000D01*
X132050000Y-122982526D01*
X132021066Y-122799852D01*
X131963916Y-122623959D01*
X131963915Y-122623956D01*
X131879947Y-122459162D01*
X131771245Y-122309545D01*
X131771241Y-122309540D01*
X131640459Y-122178758D01*
X131640454Y-122178754D01*
X131490837Y-122070052D01*
X131326043Y-121986084D01*
X131326037Y-121986082D01*
X131150144Y-121928932D01*
X131125000Y-121924950D01*
X131125000Y-122755025D01*
X131089905Y-122719930D01*
X131010095Y-122673852D01*
X130921078Y-122650000D01*
X130828922Y-122650000D01*
X130739905Y-122673852D01*
X130660095Y-122719930D01*
X130625000Y-122755025D01*
X130625000Y-121924950D01*
X130624999Y-121924950D01*
X130599855Y-121928932D01*
X130423962Y-121986082D01*
X130423956Y-121986084D01*
X130259162Y-122070052D01*
X130109545Y-122178754D01*
X130109540Y-122178758D01*
X129978758Y-122309540D01*
X129978754Y-122309545D01*
X129870052Y-122459162D01*
X129786084Y-122623956D01*
X129786083Y-122623959D01*
X129728933Y-122799852D01*
X129700000Y-122982526D01*
X126590000Y-122982526D01*
X126561066Y-122799852D01*
X126503916Y-122623959D01*
X126503915Y-122623956D01*
X126419947Y-122459162D01*
X126311245Y-122309545D01*
X126311241Y-122309540D01*
X126180459Y-122178758D01*
X126180454Y-122178754D01*
X126030837Y-122070052D01*
X125866043Y-121986084D01*
X125866037Y-121986082D01*
X125690144Y-121928932D01*
X125665000Y-121924950D01*
X125665000Y-122755025D01*
X125629905Y-122719930D01*
X125550095Y-122673852D01*
X125461078Y-122650000D01*
X125368922Y-122650000D01*
X125279905Y-122673852D01*
X125200095Y-122719930D01*
X125165000Y-122755025D01*
X125165000Y-121924950D01*
X125164999Y-121924950D01*
X125139855Y-121928932D01*
X124963962Y-121986082D01*
X124963956Y-121986084D01*
X124799162Y-122070052D01*
X124649545Y-122178754D01*
X124649540Y-122178758D01*
X124518758Y-122309540D01*
X124518754Y-122309545D01*
X124410052Y-122459162D01*
X124326084Y-122623956D01*
X124326083Y-122623959D01*
X124268933Y-122799852D01*
X124240000Y-122982526D01*
X115101714Y-122982526D01*
X115041078Y-122921890D01*
X114855405Y-122791879D01*
X114811780Y-122737302D01*
X114804588Y-122667804D01*
X114836110Y-122605449D01*
X114855406Y-122588730D01*
X115040448Y-122459162D01*
X115041401Y-122458495D01*
X115208495Y-122291401D01*
X115344035Y-122097830D01*
X115443903Y-121883663D01*
X115505063Y-121655408D01*
X115525659Y-121420000D01*
X115505063Y-121184592D01*
X115443903Y-120956337D01*
X115344035Y-120742171D01*
X115279185Y-120649554D01*
X115208494Y-120548597D01*
X115041402Y-120381506D01*
X115041396Y-120381501D01*
X114855842Y-120251575D01*
X114812217Y-120196998D01*
X114805023Y-120127500D01*
X114836546Y-120065145D01*
X114855842Y-120048425D01*
X115001287Y-119946583D01*
X115001293Y-119946579D01*
X124675000Y-119946579D01*
X124675000Y-120000000D01*
X125401933Y-120000000D01*
X125400000Y-120007213D01*
X125400000Y-120492787D01*
X125401933Y-120500000D01*
X124675000Y-120500000D01*
X124675000Y-120553420D01*
X124715348Y-120756266D01*
X124715350Y-120756274D01*
X124794500Y-120947358D01*
X124794505Y-120947368D01*
X124909410Y-121119335D01*
X124909413Y-121119339D01*
X125055660Y-121265586D01*
X125055664Y-121265589D01*
X125227631Y-121380494D01*
X125227641Y-121380499D01*
X125418723Y-121459648D01*
X125418725Y-121459649D01*
X125475000Y-121470842D01*
X125475000Y-120659618D01*
X125525446Y-120710064D01*
X125599555Y-120752851D01*
X125682213Y-120775000D01*
X125767787Y-120775000D01*
X125850445Y-120752851D01*
X125924554Y-120710064D01*
X125975000Y-120659618D01*
X125975000Y-121470842D01*
X126031274Y-121459649D01*
X126031276Y-121459648D01*
X126222358Y-121380499D01*
X126222368Y-121380494D01*
X126394335Y-121265589D01*
X126394339Y-121265586D01*
X126540586Y-121119339D01*
X126540589Y-121119335D01*
X126655494Y-120947368D01*
X126655499Y-120947358D01*
X126734649Y-120756274D01*
X126734651Y-120756266D01*
X126774999Y-120553420D01*
X126775000Y-120553417D01*
X126775000Y-120500000D01*
X126048067Y-120500000D01*
X126050000Y-120492787D01*
X126050000Y-120007213D01*
X126048067Y-120000000D01*
X126775000Y-120000000D01*
X126775000Y-119946583D01*
X126774999Y-119946579D01*
X129515000Y-119946579D01*
X129515000Y-120000000D01*
X130241933Y-120000000D01*
X130240000Y-120007213D01*
X130240000Y-120492787D01*
X130241933Y-120500000D01*
X129515000Y-120500000D01*
X129515000Y-120553420D01*
X129555348Y-120756266D01*
X129555350Y-120756274D01*
X129634500Y-120947358D01*
X129634505Y-120947368D01*
X129749410Y-121119335D01*
X129749413Y-121119339D01*
X129895660Y-121265586D01*
X129895664Y-121265589D01*
X130067631Y-121380494D01*
X130067641Y-121380499D01*
X130258723Y-121459648D01*
X130258725Y-121459649D01*
X130315000Y-121470842D01*
X130315000Y-120659618D01*
X130365446Y-120710064D01*
X130439555Y-120752851D01*
X130522213Y-120775000D01*
X130607787Y-120775000D01*
X130690445Y-120752851D01*
X130764554Y-120710064D01*
X130815000Y-120659618D01*
X130815000Y-121470842D01*
X130871274Y-121459649D01*
X130871276Y-121459648D01*
X131062358Y-121380499D01*
X131062368Y-121380494D01*
X131234335Y-121265589D01*
X131234339Y-121265586D01*
X131380586Y-121119339D01*
X131380589Y-121119335D01*
X131495494Y-120947368D01*
X131495499Y-120947358D01*
X131574649Y-120756274D01*
X131574651Y-120756266D01*
X131614999Y-120553420D01*
X131615000Y-120553417D01*
X131615000Y-120500000D01*
X130888067Y-120500000D01*
X130890000Y-120492787D01*
X130890000Y-120007213D01*
X130888067Y-120000000D01*
X131615000Y-120000000D01*
X131615000Y-119946583D01*
X131614999Y-119946579D01*
X131574651Y-119743733D01*
X131574649Y-119743725D01*
X131495499Y-119552641D01*
X131495494Y-119552631D01*
X131380589Y-119380664D01*
X131380586Y-119380660D01*
X131234339Y-119234413D01*
X131234335Y-119234410D01*
X131062368Y-119119505D01*
X131062358Y-119119500D01*
X130871272Y-119040349D01*
X130871267Y-119040347D01*
X130815000Y-119029155D01*
X130815000Y-119840382D01*
X130764554Y-119789936D01*
X130690445Y-119747149D01*
X130607787Y-119725000D01*
X130522213Y-119725000D01*
X130439555Y-119747149D01*
X130365446Y-119789936D01*
X130315000Y-119840382D01*
X130315000Y-119029156D01*
X130314999Y-119029155D01*
X130258732Y-119040347D01*
X130258727Y-119040349D01*
X130067641Y-119119500D01*
X130067631Y-119119505D01*
X129895664Y-119234410D01*
X129895660Y-119234413D01*
X129749413Y-119380660D01*
X129749410Y-119380664D01*
X129634505Y-119552631D01*
X129634500Y-119552641D01*
X129555350Y-119743725D01*
X129555348Y-119743733D01*
X129515000Y-119946579D01*
X126774999Y-119946579D01*
X126734651Y-119743733D01*
X126734649Y-119743725D01*
X126655499Y-119552641D01*
X126655494Y-119552631D01*
X126540589Y-119380664D01*
X126540586Y-119380660D01*
X126394339Y-119234413D01*
X126394335Y-119234410D01*
X126222368Y-119119505D01*
X126222358Y-119119500D01*
X126031272Y-119040349D01*
X126031267Y-119040347D01*
X125975000Y-119029155D01*
X125975000Y-119840382D01*
X125924554Y-119789936D01*
X125850445Y-119747149D01*
X125767787Y-119725000D01*
X125682213Y-119725000D01*
X125599555Y-119747149D01*
X125525446Y-119789936D01*
X125475000Y-119840382D01*
X125475000Y-119029156D01*
X125474999Y-119029155D01*
X125418732Y-119040347D01*
X125418727Y-119040349D01*
X125227641Y-119119500D01*
X125227631Y-119119505D01*
X125055664Y-119234410D01*
X125055660Y-119234413D01*
X124909413Y-119380660D01*
X124909410Y-119380664D01*
X124794505Y-119552631D01*
X124794500Y-119552641D01*
X124715350Y-119743725D01*
X124715348Y-119743733D01*
X124675000Y-119946579D01*
X115001293Y-119946579D01*
X115041401Y-119918495D01*
X115208495Y-119751401D01*
X115344035Y-119557830D01*
X115443903Y-119343663D01*
X115505063Y-119115408D01*
X115525659Y-118880000D01*
X115505063Y-118644592D01*
X115471728Y-118520183D01*
X115473391Y-118450337D01*
X115503820Y-118400414D01*
X117580520Y-116323716D01*
X117659577Y-116186784D01*
X117700501Y-116034057D01*
X117700501Y-115875942D01*
X117700501Y-115868347D01*
X117700500Y-115868329D01*
X117700500Y-106796840D01*
X117720185Y-106729801D01*
X117736814Y-106709164D01*
X120309926Y-104136051D01*
X120371247Y-104102568D01*
X120383702Y-104100516D01*
X120470646Y-104090721D01*
X120640913Y-104031142D01*
X120793653Y-103935169D01*
X120921207Y-103807615D01*
X121017180Y-103654875D01*
X121076759Y-103484608D01*
X121085775Y-103404590D01*
X121096956Y-103305356D01*
X121096956Y-103305349D01*
X121076760Y-103126103D01*
X121076759Y-103126098D01*
X121048642Y-103045745D01*
X121017180Y-102955831D01*
X120921207Y-102803091D01*
X120793653Y-102675537D01*
X120713218Y-102624996D01*
X120640914Y-102579564D01*
X120470645Y-102519984D01*
X120470640Y-102519983D01*
X120449066Y-102517553D01*
X120384652Y-102490487D01*
X120357956Y-102460307D01*
X120276080Y-102330001D01*
X120148526Y-102202447D01*
X119995787Y-102106474D01*
X119825518Y-102046894D01*
X119825513Y-102046893D01*
X119646268Y-102026698D01*
X119646260Y-102026698D01*
X119467014Y-102046893D01*
X119467009Y-102046894D01*
X119296740Y-102106474D01*
X119144000Y-102202448D01*
X119131204Y-102215244D01*
X119069880Y-102248727D01*
X119000188Y-102243741D01*
X118955844Y-102215241D01*
X118910788Y-102170185D01*
X118758049Y-102074212D01*
X118587780Y-102014632D01*
X118587775Y-102014631D01*
X118408530Y-101994436D01*
X118408522Y-101994436D01*
X118229276Y-102014631D01*
X118229271Y-102014632D01*
X118059002Y-102074212D01*
X117906263Y-102170185D01*
X117837181Y-102239268D01*
X117775858Y-102272753D01*
X117706166Y-102267769D01*
X117650233Y-102225897D01*
X117625816Y-102160433D01*
X117625500Y-102151587D01*
X117625500Y-100507412D01*
X117645185Y-100440373D01*
X117652555Y-100430097D01*
X117654810Y-100427267D01*
X117654816Y-100427262D01*
X117750789Y-100274522D01*
X117810368Y-100104255D01*
X117815185Y-100061505D01*
X117830565Y-99925003D01*
X117830565Y-99924996D01*
X117810369Y-99745750D01*
X117810368Y-99745745D01*
X117750788Y-99575476D01*
X117660256Y-99431396D01*
X117654816Y-99422738D01*
X117527262Y-99295184D01*
X117435984Y-99237830D01*
X117374521Y-99199210D01*
X117204249Y-99139630D01*
X117135616Y-99131897D01*
X117071202Y-99104830D01*
X117031647Y-99047235D01*
X117025500Y-99008677D01*
X117025500Y-93298625D01*
X117045185Y-93231586D01*
X117061814Y-93210949D01*
X118583506Y-91689256D01*
X118583511Y-91689253D01*
X118593714Y-91679049D01*
X118593716Y-91679049D01*
X118705520Y-91567245D01*
X118784577Y-91430313D01*
X118819622Y-91299522D01*
X118825500Y-91277587D01*
X118825500Y-91119472D01*
X118825500Y-89578523D01*
X118832459Y-89537567D01*
X118835368Y-89529255D01*
X118855565Y-89350000D01*
X118855511Y-89349522D01*
X118835369Y-89170750D01*
X118835368Y-89170745D01*
X118802856Y-89077831D01*
X118775789Y-89000478D01*
X118679816Y-88847738D01*
X118552262Y-88720184D01*
X118399523Y-88624211D01*
X118229254Y-88564631D01*
X118229249Y-88564630D01*
X118050004Y-88544435D01*
X118049996Y-88544435D01*
X117870750Y-88564630D01*
X117870745Y-88564631D01*
X117700476Y-88624211D01*
X117547737Y-88720184D01*
X117420184Y-88847737D01*
X117324211Y-89000476D01*
X117264631Y-89170745D01*
X117264630Y-89170750D01*
X117244435Y-89349996D01*
X117244435Y-89350003D01*
X117264630Y-89529249D01*
X117264631Y-89529254D01*
X117324211Y-89699523D01*
X117420184Y-89852262D01*
X117521438Y-89953516D01*
X117554923Y-90014839D01*
X117549939Y-90084531D01*
X117508067Y-90140464D01*
X117452414Y-90162527D01*
X117452541Y-90163080D01*
X117448954Y-90163898D01*
X117447650Y-90164416D01*
X117445752Y-90164629D01*
X117275478Y-90224210D01*
X117193890Y-90275476D01*
X117123326Y-90319815D01*
X117122245Y-90320494D01*
X117056273Y-90339500D01*
X115459091Y-90339500D01*
X115392052Y-90319815D01*
X115346711Y-90267909D01*
X115344037Y-90262175D01*
X115344034Y-90262170D01*
X115339873Y-90256228D01*
X115252436Y-90131353D01*
X115208494Y-90068597D01*
X115041402Y-89901506D01*
X115041396Y-89901501D01*
X114855842Y-89771575D01*
X114812217Y-89716998D01*
X114805023Y-89647500D01*
X114836546Y-89585145D01*
X114855842Y-89568425D01*
X114938740Y-89510379D01*
X115041401Y-89438495D01*
X115208495Y-89271401D01*
X115344035Y-89077830D01*
X115346707Y-89072097D01*
X115392878Y-89019658D01*
X115459091Y-89000500D01*
X116288331Y-89000500D01*
X116288347Y-89000501D01*
X116295943Y-89000501D01*
X116454054Y-89000501D01*
X116454057Y-89000501D01*
X116606785Y-88959577D01*
X116656904Y-88930639D01*
X116743716Y-88880520D01*
X116855520Y-88768716D01*
X116855520Y-88768714D01*
X116865728Y-88758507D01*
X116865730Y-88758504D01*
X120087819Y-85536415D01*
X120149142Y-85502930D01*
X120218834Y-85507914D01*
X120274767Y-85549786D01*
X120299184Y-85615250D01*
X120299500Y-85624096D01*
X120299500Y-101263330D01*
X120299499Y-101263348D01*
X120299499Y-101429054D01*
X120299498Y-101429054D01*
X120314970Y-101486793D01*
X120340423Y-101581785D01*
X120363517Y-101621784D01*
X120400825Y-101686405D01*
X120419479Y-101718715D01*
X120538349Y-101837585D01*
X120538355Y-101837590D01*
X121344298Y-102643533D01*
X121377783Y-102704856D01*
X121379837Y-102717330D01*
X121389630Y-102804249D01*
X121449210Y-102974521D01*
X121544453Y-103126098D01*
X121545184Y-103127262D01*
X121672738Y-103254816D01*
X121825478Y-103350789D01*
X121979238Y-103404592D01*
X121995745Y-103410368D01*
X121995750Y-103410369D01*
X122174996Y-103430565D01*
X122175000Y-103430565D01*
X122175004Y-103430565D01*
X122354249Y-103410369D01*
X122354252Y-103410368D01*
X122354255Y-103410368D01*
X122524522Y-103350789D01*
X122677262Y-103254816D01*
X122804816Y-103127262D01*
X122900789Y-102974522D01*
X122960368Y-102804255D01*
X122960499Y-102803091D01*
X122980565Y-102625003D01*
X122980565Y-102624996D01*
X122960369Y-102445750D01*
X122960368Y-102445745D01*
X122933864Y-102370000D01*
X122900789Y-102275478D01*
X122899882Y-102274035D01*
X122854901Y-102202448D01*
X122804816Y-102122738D01*
X122677262Y-101995184D01*
X122624028Y-101961735D01*
X122524521Y-101899210D01*
X122354249Y-101839630D01*
X122267330Y-101829837D01*
X122202916Y-101802770D01*
X122193533Y-101794298D01*
X121536819Y-101137584D01*
X121503334Y-101076261D01*
X121500500Y-101049903D01*
X121500500Y-85432412D01*
X121520185Y-85365373D01*
X121527555Y-85355097D01*
X121529810Y-85352267D01*
X121529816Y-85352262D01*
X121625789Y-85199522D01*
X121685368Y-85029255D01*
X121685369Y-85029249D01*
X121705565Y-84850003D01*
X121705565Y-84849996D01*
X121685369Y-84670750D01*
X121685368Y-84670745D01*
X121652954Y-84578111D01*
X121625789Y-84500478D01*
X121624963Y-84499164D01*
X121536575Y-84358495D01*
X121529816Y-84347738D01*
X121490837Y-84308759D01*
X121457352Y-84247436D01*
X121462336Y-84177744D01*
X121490836Y-84133398D01*
X121502728Y-84121506D01*
X121543534Y-84080699D01*
X121604855Y-84047215D01*
X121617311Y-84045163D01*
X121704255Y-84035368D01*
X121874522Y-83975789D01*
X122027262Y-83879816D01*
X122154816Y-83752262D01*
X122250789Y-83599522D01*
X122308458Y-83434712D01*
X122349180Y-83377937D01*
X122414133Y-83352190D01*
X122482694Y-83365646D01*
G37*
%TD.AperFunction*%
%TA.AperFunction,Conductor*%
G36*
X128828434Y-83059882D02*
G01*
X128928731Y-82906369D01*
X128986944Y-82773657D01*
X129031900Y-82720171D01*
X129098636Y-82699481D01*
X129165963Y-82718155D01*
X129212507Y-82770265D01*
X129224500Y-82823467D01*
X129224500Y-102925028D01*
X129217542Y-102965982D01*
X129189631Y-103045747D01*
X129169435Y-103224996D01*
X129169435Y-103225003D01*
X129189630Y-103404249D01*
X129189631Y-103404254D01*
X129249211Y-103574523D01*
X129299700Y-103654875D01*
X129345184Y-103727262D01*
X129472738Y-103854816D01*
X129625478Y-103950789D01*
X129795745Y-104010368D01*
X129864384Y-104018101D01*
X129928796Y-104045166D01*
X129968352Y-104102760D01*
X129974500Y-104141321D01*
X129974500Y-104586859D01*
X129974499Y-104586877D01*
X129974499Y-104752583D01*
X129974498Y-104752583D01*
X130015423Y-104905314D01*
X130020379Y-104913897D01*
X130020380Y-104913903D01*
X130020382Y-104913903D01*
X130094477Y-105042241D01*
X130094481Y-105042246D01*
X130213349Y-105161114D01*
X130213355Y-105161119D01*
X133798181Y-108745945D01*
X133831666Y-108807268D01*
X133834500Y-108833626D01*
X133834500Y-111090023D01*
X133814815Y-111157062D01*
X133762011Y-111202817D01*
X133692853Y-111212761D01*
X133672182Y-111207954D01*
X133596122Y-111183241D01*
X133530000Y-111172768D01*
X133530000Y-112316988D01*
X133472993Y-112284075D01*
X133345826Y-112250000D01*
X133214174Y-112250000D01*
X133087007Y-112284075D01*
X133030000Y-112316988D01*
X133030000Y-111172768D01*
X133029999Y-111172768D01*
X132963875Y-111183241D01*
X132761784Y-111248903D01*
X132572442Y-111345379D01*
X132400540Y-111470272D01*
X132400535Y-111470276D01*
X132250276Y-111620535D01*
X132250272Y-111620540D01*
X132125378Y-111792443D01*
X132120762Y-111801502D01*
X132072784Y-111852295D01*
X132004963Y-111869087D01*
X131938829Y-111846546D01*
X131899794Y-111801493D01*
X131895051Y-111792184D01*
X131895049Y-111792181D01*
X131895048Y-111792179D01*
X131770109Y-111620213D01*
X131619786Y-111469890D01*
X131447820Y-111344951D01*
X131258414Y-111248444D01*
X131258413Y-111248443D01*
X131258412Y-111248443D01*
X131056243Y-111182754D01*
X131056241Y-111182753D01*
X131056240Y-111182753D01*
X130894031Y-111157062D01*
X130846287Y-111149500D01*
X130633713Y-111149500D01*
X130585969Y-111157062D01*
X130423760Y-111182753D01*
X130221585Y-111248444D01*
X130032179Y-111344951D01*
X129860213Y-111469890D01*
X129709890Y-111620213D01*
X129584949Y-111792182D01*
X129580484Y-111800946D01*
X129532509Y-111851742D01*
X129464688Y-111868536D01*
X129398553Y-111845998D01*
X129359516Y-111800946D01*
X129355050Y-111792182D01*
X129230109Y-111620213D01*
X129079786Y-111469890D01*
X128907819Y-111344950D01*
X128873203Y-111327312D01*
X128822408Y-111279336D01*
X128805500Y-111216828D01*
X128805500Y-92790942D01*
X128805499Y-92790938D01*
X128799017Y-92766744D01*
X128764577Y-92638213D01*
X128721395Y-92563420D01*
X128685520Y-92501282D01*
X128573716Y-92389478D01*
X128573715Y-92389477D01*
X128569385Y-92385147D01*
X128569374Y-92385137D01*
X128055700Y-91871463D01*
X128022215Y-91810140D01*
X128020163Y-91797684D01*
X128010368Y-91710743D01*
X127950789Y-91540476D01*
X127854816Y-91387736D01*
X127727262Y-91260182D01*
X127718722Y-91254816D01*
X127574523Y-91164209D01*
X127404254Y-91104629D01*
X127404249Y-91104628D01*
X127225004Y-91084433D01*
X127224995Y-91084433D01*
X127153382Y-91092501D01*
X127084560Y-91080446D01*
X127033182Y-91033096D01*
X127015500Y-90969281D01*
X127015500Y-87066079D01*
X126986659Y-86921092D01*
X126986658Y-86921091D01*
X126986658Y-86921087D01*
X126977299Y-86898493D01*
X126930087Y-86784511D01*
X126930080Y-86784498D01*
X126847952Y-86661585D01*
X126816350Y-86629983D01*
X126743416Y-86557049D01*
X126310161Y-86123794D01*
X125838049Y-85651681D01*
X125804564Y-85590358D01*
X125809548Y-85520666D01*
X125851420Y-85464733D01*
X125916884Y-85440316D01*
X125925730Y-85440000D01*
X125999293Y-85440000D01*
X126244493Y-85399083D01*
X126479603Y-85318369D01*
X126479614Y-85318364D01*
X126698228Y-85200057D01*
X126698231Y-85200055D01*
X126745056Y-85163609D01*
X126004409Y-84422962D01*
X126067993Y-84405925D01*
X126182007Y-84340099D01*
X126275099Y-84247007D01*
X126340925Y-84132993D01*
X126357962Y-84069409D01*
X126859998Y-84571446D01*
X126859999Y-84571446D01*
X127232037Y-84199408D01*
X127249075Y-84262993D01*
X127314901Y-84377007D01*
X127407993Y-84470099D01*
X127522007Y-84535925D01*
X127585590Y-84552962D01*
X127025427Y-85113124D01*
X127087612Y-85156666D01*
X127285840Y-85249101D01*
X127285849Y-85249105D01*
X127497105Y-85305710D01*
X127497115Y-85305712D01*
X127714999Y-85324775D01*
X127715001Y-85324775D01*
X127932884Y-85305712D01*
X127932894Y-85305710D01*
X128144150Y-85249105D01*
X128144164Y-85249100D01*
X128342383Y-85156669D01*
X128342385Y-85156668D01*
X128404571Y-85113124D01*
X127844410Y-84552962D01*
X127907993Y-84535925D01*
X128022007Y-84470099D01*
X128115099Y-84377007D01*
X128180925Y-84262993D01*
X128197962Y-84199409D01*
X128758124Y-84759570D01*
X128801668Y-84697385D01*
X128801669Y-84697383D01*
X128894100Y-84499164D01*
X128894105Y-84499150D01*
X128950710Y-84287894D01*
X128950712Y-84287884D01*
X128969775Y-84070000D01*
X128969775Y-84069999D01*
X128950712Y-83852115D01*
X128950710Y-83852105D01*
X128894105Y-83640849D01*
X128894101Y-83640840D01*
X128801667Y-83442614D01*
X128801666Y-83442612D01*
X128758124Y-83380428D01*
X128758124Y-83380427D01*
X128197962Y-83940589D01*
X128180925Y-83877007D01*
X128115099Y-83762993D01*
X128022007Y-83669901D01*
X127907993Y-83604075D01*
X127844409Y-83587037D01*
X128246446Y-83184999D01*
X128246446Y-83184998D01*
X127734410Y-82672962D01*
X127797993Y-82655925D01*
X127912007Y-82590099D01*
X128005099Y-82497007D01*
X128070925Y-82382993D01*
X128087962Y-82319410D01*
X128828434Y-83059882D01*
G37*
%TD.AperFunction*%
%TA.AperFunction,Conductor*%
G36*
X127220703Y-92735382D02*
G01*
X127227181Y-92741414D01*
X127568181Y-93082414D01*
X127601666Y-93143737D01*
X127604500Y-93170095D01*
X127604500Y-111211733D01*
X127584815Y-111278772D01*
X127536796Y-111322217D01*
X127492182Y-111344949D01*
X127320213Y-111469890D01*
X127169890Y-111620213D01*
X127044949Y-111792182D01*
X127040484Y-111800946D01*
X126992509Y-111851742D01*
X126924688Y-111868536D01*
X126858553Y-111845998D01*
X126819516Y-111800946D01*
X126815050Y-111792182D01*
X126690109Y-111620213D01*
X126539786Y-111469890D01*
X126367819Y-111344950D01*
X126333203Y-111327312D01*
X126282408Y-111279336D01*
X126265500Y-111216828D01*
X126265500Y-100616321D01*
X126285185Y-100549282D01*
X126337989Y-100503527D01*
X126375612Y-100493101D01*
X126444255Y-100485368D01*
X126614522Y-100425789D01*
X126767262Y-100329816D01*
X126894816Y-100202262D01*
X126990789Y-100049522D01*
X127050368Y-99879255D01*
X127050369Y-99879249D01*
X127070565Y-99700003D01*
X127070565Y-99699996D01*
X127050368Y-99520747D01*
X127050368Y-99520745D01*
X127022458Y-99440982D01*
X127015500Y-99400028D01*
X127015500Y-92829095D01*
X127035185Y-92762056D01*
X127087989Y-92716301D01*
X127157147Y-92706357D01*
X127220703Y-92735382D01*
G37*
%TD.AperFunction*%
%TA.AperFunction,Conductor*%
G36*
X140952948Y-86480185D02*
G01*
X140998292Y-86532097D01*
X141000965Y-86537830D01*
X141136501Y-86731396D01*
X141136506Y-86731402D01*
X141303597Y-86898493D01*
X141303603Y-86898498D01*
X141489158Y-87028425D01*
X141532783Y-87083002D01*
X141539977Y-87152500D01*
X141508454Y-87214855D01*
X141489158Y-87231575D01*
X141303597Y-87361505D01*
X141136506Y-87528596D01*
X141000965Y-87722170D01*
X141000962Y-87722175D01*
X140998289Y-87727909D01*
X140952115Y-87780346D01*
X140885909Y-87799500D01*
X135757940Y-87799500D01*
X135690901Y-87779815D01*
X135670259Y-87763181D01*
X135652262Y-87745184D01*
X135499523Y-87649211D01*
X135329254Y-87589631D01*
X135329249Y-87589630D01*
X135150004Y-87569435D01*
X135149996Y-87569435D01*
X134970750Y-87589630D01*
X134970745Y-87589631D01*
X134800476Y-87649211D01*
X134647737Y-87745184D01*
X134520184Y-87872737D01*
X134424211Y-88025476D01*
X134364631Y-88195745D01*
X134364630Y-88195750D01*
X134344435Y-88374996D01*
X134344435Y-88375003D01*
X134364630Y-88554249D01*
X134364631Y-88554254D01*
X134424211Y-88724523D01*
X134501632Y-88847737D01*
X134520184Y-88877262D01*
X134647738Y-89004816D01*
X134650654Y-89006648D01*
X134763940Y-89077831D01*
X134800478Y-89100789D01*
X134970745Y-89160368D01*
X134970750Y-89160369D01*
X135149996Y-89180565D01*
X135150000Y-89180565D01*
X135150004Y-89180565D01*
X135329249Y-89160369D01*
X135329252Y-89160368D01*
X135329255Y-89160368D01*
X135499522Y-89100789D01*
X135628883Y-89019505D01*
X135694855Y-89000500D01*
X138556995Y-89000500D01*
X138624034Y-89020185D01*
X138669789Y-89072989D01*
X138679733Y-89142147D01*
X138664381Y-89186503D01*
X138662630Y-89189534D01*
X138654252Y-89220802D01*
X138621706Y-89342263D01*
X138621706Y-89342265D01*
X138621706Y-89510366D01*
X138621707Y-89510379D01*
X138621707Y-89693322D01*
X138602022Y-89760361D01*
X138594657Y-89770631D01*
X138592393Y-89773469D01*
X138496417Y-89926213D01*
X138436837Y-90096485D01*
X138429105Y-90165118D01*
X138402039Y-90229532D01*
X138344444Y-90269087D01*
X138305885Y-90275235D01*
X136006237Y-90275235D01*
X135940264Y-90256228D01*
X135849524Y-90199211D01*
X135679254Y-90139631D01*
X135679249Y-90139630D01*
X135500004Y-90119435D01*
X135499996Y-90119435D01*
X135320750Y-90139630D01*
X135320745Y-90139631D01*
X135150476Y-90199211D01*
X134997737Y-90295184D01*
X134870184Y-90422737D01*
X134774211Y-90575476D01*
X134714631Y-90745745D01*
X134714630Y-90745750D01*
X134694435Y-90924996D01*
X134694435Y-90925003D01*
X134714630Y-91104249D01*
X134714631Y-91104254D01*
X134774211Y-91274523D01*
X134868775Y-91425019D01*
X134870184Y-91427262D01*
X134997738Y-91554816D01*
X135150478Y-91650789D01*
X135238068Y-91681438D01*
X135320745Y-91710368D01*
X135320750Y-91710369D01*
X135499996Y-91730565D01*
X135500000Y-91730565D01*
X135500004Y-91730565D01*
X135679249Y-91710369D01*
X135679252Y-91710368D01*
X135679255Y-91710368D01*
X135849522Y-91650789D01*
X136002262Y-91554816D01*
X136044524Y-91512554D01*
X136105847Y-91479069D01*
X136132205Y-91476235D01*
X139700167Y-91476235D01*
X139767206Y-91495920D01*
X139812961Y-91548724D01*
X139822905Y-91617882D01*
X139793880Y-91681438D01*
X139787848Y-91687916D01*
X139413942Y-92061821D01*
X139413940Y-92061824D01*
X139377848Y-92124339D01*
X139377847Y-92124341D01*
X139334884Y-92198753D01*
X139325842Y-92232500D01*
X139293960Y-92351482D01*
X139293960Y-92351484D01*
X139293960Y-92519585D01*
X139293961Y-92519598D01*
X139293961Y-93325578D01*
X139274276Y-93392617D01*
X139266911Y-93402887D01*
X139264647Y-93405725D01*
X139168672Y-93558467D01*
X139109092Y-93728736D01*
X139109091Y-93728741D01*
X139088896Y-93907987D01*
X139088896Y-93907995D01*
X139109384Y-94089841D01*
X139097329Y-94158663D01*
X139049980Y-94210042D01*
X138982369Y-94227666D01*
X138915964Y-94205939D01*
X138898483Y-94191405D01*
X138777262Y-94070184D01*
X138624523Y-93974211D01*
X138454254Y-93914631D01*
X138454249Y-93914630D01*
X138275004Y-93894435D01*
X138274996Y-93894435D01*
X138095750Y-93914630D01*
X138095745Y-93914631D01*
X137925476Y-93974211D01*
X137772737Y-94070184D01*
X137645184Y-94197737D01*
X137549211Y-94350476D01*
X137489631Y-94520745D01*
X137489630Y-94520750D01*
X137469435Y-94699996D01*
X137469435Y-94700003D01*
X137489630Y-94879249D01*
X137489631Y-94879254D01*
X137549211Y-95049523D01*
X137645182Y-95202259D01*
X137647441Y-95205091D01*
X137648330Y-95207268D01*
X137648889Y-95208158D01*
X137648733Y-95208255D01*
X137673854Y-95269776D01*
X137674096Y-95274527D01*
X137674498Y-95277583D01*
X137715424Y-95430318D01*
X137715425Y-95430319D01*
X137740933Y-95474499D01*
X137740934Y-95474501D01*
X137794475Y-95567238D01*
X137794481Y-95567246D01*
X137913349Y-95686114D01*
X137913355Y-95686119D01*
X138666610Y-96439374D01*
X138666620Y-96439385D01*
X138670950Y-96443715D01*
X138670951Y-96443716D01*
X138782755Y-96555520D01*
X138869566Y-96605639D01*
X138869568Y-96605641D01*
X138907622Y-96627611D01*
X138919686Y-96634577D01*
X139072414Y-96675500D01*
X139824903Y-96675500D01*
X139891942Y-96695185D01*
X139912584Y-96711819D01*
X140863181Y-97662416D01*
X140896666Y-97723739D01*
X140899500Y-97750097D01*
X140899500Y-97798330D01*
X140899499Y-97798348D01*
X140899499Y-97964056D01*
X140910911Y-98006647D01*
X140909248Y-98076497D01*
X140903521Y-98091138D01*
X140901096Y-98096338D01*
X140839938Y-98324586D01*
X140839936Y-98324596D01*
X140819341Y-98559999D01*
X140819341Y-98560000D01*
X140839936Y-98795403D01*
X140839938Y-98795413D01*
X140901094Y-99023655D01*
X140901096Y-99023659D01*
X140901097Y-99023663D01*
X140982956Y-99199210D01*
X141000965Y-99237830D01*
X141000967Y-99237834D01*
X141076897Y-99346272D01*
X141136501Y-99431396D01*
X141136506Y-99431402D01*
X141303597Y-99598493D01*
X141303603Y-99598498D01*
X141489158Y-99728425D01*
X141532783Y-99783002D01*
X141539977Y-99852500D01*
X141508454Y-99914855D01*
X141489158Y-99931575D01*
X141303597Y-100061505D01*
X141136505Y-100228597D01*
X141000965Y-100422169D01*
X141000964Y-100422171D01*
X140901098Y-100636335D01*
X140901094Y-100636344D01*
X140839938Y-100864586D01*
X140839936Y-100864596D01*
X140819341Y-101099999D01*
X140819341Y-101100000D01*
X140839936Y-101335403D01*
X140839938Y-101335413D01*
X140901094Y-101563655D01*
X140901096Y-101563659D01*
X140901097Y-101563663D01*
X140973399Y-101718715D01*
X141000965Y-101777830D01*
X141000967Y-101777834D01*
X141076897Y-101886272D01*
X141136501Y-101971396D01*
X141136506Y-101971402D01*
X141303597Y-102138493D01*
X141303603Y-102138498D01*
X141489158Y-102268425D01*
X141532783Y-102323002D01*
X141539977Y-102392500D01*
X141508454Y-102454855D01*
X141489158Y-102471575D01*
X141303597Y-102601505D01*
X141136505Y-102768597D01*
X141000965Y-102962169D01*
X141000964Y-102962171D01*
X140901098Y-103176335D01*
X140901094Y-103176344D01*
X140839938Y-103404586D01*
X140839936Y-103404596D01*
X140819341Y-103639999D01*
X140819341Y-103640000D01*
X140839936Y-103875403D01*
X140839938Y-103875413D01*
X140901094Y-104103655D01*
X140901096Y-104103659D01*
X140901097Y-104103663D01*
X140942178Y-104191761D01*
X141000965Y-104317830D01*
X141000967Y-104317834D01*
X141076897Y-104426272D01*
X141136501Y-104511396D01*
X141136506Y-104511402D01*
X141303597Y-104678493D01*
X141303603Y-104678498D01*
X141489158Y-104808425D01*
X141532783Y-104863002D01*
X141539977Y-104932500D01*
X141508454Y-104994855D01*
X141489158Y-105011575D01*
X141303597Y-105141505D01*
X141136505Y-105308597D01*
X141000965Y-105502169D01*
X141000965Y-105502170D01*
X140955218Y-105600274D01*
X140905797Y-105706259D01*
X140901098Y-105716335D01*
X140901094Y-105716344D01*
X140839938Y-105944586D01*
X140839936Y-105944596D01*
X140819341Y-106179999D01*
X140819341Y-106180000D01*
X140839936Y-106415403D01*
X140839938Y-106415413D01*
X140901094Y-106643655D01*
X140901096Y-106643659D01*
X140901097Y-106643663D01*
X141000965Y-106857830D01*
X141000967Y-106857834D01*
X141076897Y-106966272D01*
X141136501Y-107051396D01*
X141136506Y-107051402D01*
X141303597Y-107218493D01*
X141303603Y-107218498D01*
X141489158Y-107348425D01*
X141532783Y-107403002D01*
X141539977Y-107472500D01*
X141508454Y-107534855D01*
X141489158Y-107551575D01*
X141303597Y-107681505D01*
X141136506Y-107848596D01*
X141000965Y-108042170D01*
X141000962Y-108042175D01*
X140998289Y-108047909D01*
X140952115Y-108100346D01*
X140885909Y-108119500D01*
X138526469Y-108119500D01*
X138459430Y-108099815D01*
X138438788Y-108083181D01*
X133211819Y-102856212D01*
X133178334Y-102794889D01*
X133175500Y-102768531D01*
X133175500Y-87876568D01*
X133195185Y-87809529D01*
X133211819Y-87788887D01*
X133848206Y-87152500D01*
X134499916Y-86500789D01*
X134561237Y-86467306D01*
X134630929Y-86472290D01*
X134653567Y-86483479D01*
X134800473Y-86575787D01*
X134800477Y-86575788D01*
X134800478Y-86575789D01*
X134875805Y-86602147D01*
X134970745Y-86635368D01*
X134970750Y-86635369D01*
X135149996Y-86655565D01*
X135150000Y-86655565D01*
X135150004Y-86655565D01*
X135329249Y-86635369D01*
X135329252Y-86635368D01*
X135329255Y-86635368D01*
X135499522Y-86575789D01*
X135652262Y-86479816D01*
X135652262Y-86479815D01*
X135652755Y-86479506D01*
X135718727Y-86460500D01*
X140885909Y-86460500D01*
X140952948Y-86480185D01*
G37*
%TD.AperFunction*%
%TA.AperFunction,Conductor*%
G36*
X130930703Y-77017517D02*
G01*
X130937181Y-77023549D01*
X131496586Y-77582954D01*
X131526058Y-77602645D01*
X131570270Y-77632186D01*
X131619505Y-77665084D01*
X131619506Y-77665084D01*
X131619507Y-77665085D01*
X131619509Y-77665086D01*
X131756082Y-77721656D01*
X131756087Y-77721658D01*
X131756091Y-77721658D01*
X131756092Y-77721659D01*
X131901079Y-77750500D01*
X131901082Y-77750500D01*
X131901083Y-77750500D01*
X132048917Y-77750500D01*
X140572770Y-77750500D01*
X140639809Y-77770185D01*
X140660451Y-77786819D01*
X140802130Y-77928498D01*
X140835615Y-77989821D01*
X140837977Y-78026986D01*
X140819341Y-78239997D01*
X140819341Y-78240000D01*
X140839936Y-78475403D01*
X140839938Y-78475413D01*
X140901094Y-78703655D01*
X140901096Y-78703659D01*
X140901097Y-78703663D01*
X141000965Y-78917830D01*
X141000967Y-78917834D01*
X141076897Y-79026272D01*
X141136501Y-79111396D01*
X141136506Y-79111402D01*
X141303597Y-79278493D01*
X141303603Y-79278498D01*
X141489594Y-79408730D01*
X141533219Y-79463307D01*
X141540413Y-79532805D01*
X141508890Y-79595160D01*
X141489595Y-79611880D01*
X141303922Y-79741890D01*
X141303920Y-79741891D01*
X141136891Y-79908920D01*
X141136886Y-79908926D01*
X141001400Y-80102420D01*
X141001399Y-80102422D01*
X140901570Y-80316507D01*
X140901567Y-80316513D01*
X140844364Y-80529999D01*
X140844364Y-80530000D01*
X141741988Y-80530000D01*
X141709075Y-80587007D01*
X141675000Y-80714174D01*
X141675000Y-80845826D01*
X141709075Y-80972993D01*
X141741988Y-81030000D01*
X140844364Y-81030000D01*
X140901567Y-81243486D01*
X140901570Y-81243492D01*
X141001399Y-81457578D01*
X141136894Y-81651082D01*
X141303917Y-81818105D01*
X141489595Y-81948119D01*
X141533219Y-82002696D01*
X141540412Y-82072195D01*
X141508890Y-82134549D01*
X141489595Y-82151269D01*
X141303594Y-82281508D01*
X141136506Y-82448596D01*
X141000965Y-82642170D01*
X141000962Y-82642175D01*
X140998289Y-82647909D01*
X140952115Y-82700346D01*
X140885909Y-82719500D01*
X140409057Y-82719500D01*
X140250943Y-82719500D01*
X140248045Y-82720276D01*
X140215958Y-82724500D01*
X135757412Y-82724500D01*
X135690373Y-82704815D01*
X135680097Y-82697445D01*
X135677263Y-82695185D01*
X135677262Y-82695184D01*
X135604943Y-82649743D01*
X135524523Y-82599211D01*
X135354254Y-82539631D01*
X135354249Y-82539630D01*
X135175004Y-82519435D01*
X135174996Y-82519435D01*
X134995750Y-82539630D01*
X134995745Y-82539631D01*
X134825476Y-82599211D01*
X134672737Y-82695184D01*
X134545184Y-82822737D01*
X134449211Y-82975476D01*
X134389631Y-83145745D01*
X134389630Y-83145750D01*
X134369435Y-83324996D01*
X134369435Y-83325003D01*
X134389630Y-83504249D01*
X134389632Y-83504257D01*
X134451355Y-83680652D01*
X134454916Y-83750431D01*
X134439307Y-83787577D01*
X134360976Y-83912240D01*
X134301395Y-84082515D01*
X134291602Y-84169432D01*
X134264535Y-84233846D01*
X134256063Y-84243229D01*
X132587181Y-85912112D01*
X132525858Y-85945597D01*
X132456166Y-85940613D01*
X132400233Y-85898741D01*
X132375816Y-85833277D01*
X132375500Y-85824431D01*
X132375500Y-84573626D01*
X132395185Y-84506587D01*
X132411815Y-84485949D01*
X133067800Y-83829963D01*
X133129121Y-83796480D01*
X133141576Y-83794428D01*
X133228520Y-83784633D01*
X133398787Y-83725054D01*
X133551527Y-83629081D01*
X133679081Y-83501527D01*
X133775054Y-83348787D01*
X133834633Y-83178520D01*
X133838177Y-83147069D01*
X133854830Y-82999268D01*
X133854830Y-82999261D01*
X133834634Y-82820015D01*
X133834633Y-82820010D01*
X133775054Y-82649743D01*
X133773902Y-82647909D01*
X133769588Y-82641045D01*
X133750588Y-82573809D01*
X133770955Y-82506974D01*
X133808608Y-82470079D01*
X133952262Y-82379816D01*
X134079816Y-82252262D01*
X134175789Y-82099522D01*
X134235368Y-81929255D01*
X134235369Y-81929249D01*
X134255565Y-81750003D01*
X134255565Y-81749996D01*
X134235369Y-81570750D01*
X134235368Y-81570745D01*
X134215356Y-81513553D01*
X134175789Y-81400478D01*
X134079816Y-81247738D01*
X133952262Y-81120184D01*
X133918884Y-81099211D01*
X133799520Y-81024209D01*
X133762491Y-81011252D01*
X133705715Y-80970530D01*
X133679969Y-80905577D01*
X133693426Y-80837015D01*
X133698457Y-80828233D01*
X133700789Y-80824522D01*
X133760368Y-80654255D01*
X133772150Y-80549685D01*
X133780565Y-80475003D01*
X133780565Y-80474996D01*
X133760369Y-80295750D01*
X133760368Y-80295745D01*
X133700788Y-80125476D01*
X133604815Y-79972737D01*
X133477262Y-79845184D01*
X133324523Y-79749211D01*
X133154254Y-79689631D01*
X133154249Y-79689630D01*
X132975004Y-79669435D01*
X132974996Y-79669435D01*
X132795750Y-79689630D01*
X132795745Y-79689631D01*
X132625476Y-79749211D01*
X132472737Y-79845184D01*
X132345184Y-79972737D01*
X132249210Y-80125478D01*
X132189630Y-80295750D01*
X132179837Y-80382667D01*
X132152770Y-80447081D01*
X132144298Y-80456464D01*
X130937181Y-81663582D01*
X130875858Y-81697067D01*
X130806166Y-81692083D01*
X130750233Y-81650211D01*
X130725816Y-81584747D01*
X130725500Y-81575901D01*
X130725500Y-77111230D01*
X130745185Y-77044191D01*
X130797989Y-76998436D01*
X130867147Y-76988492D01*
X130930703Y-77017517D01*
G37*
%TD.AperFunction*%
%TA.AperFunction,Conductor*%
G36*
X128105809Y-75420185D02*
G01*
X128151564Y-75472989D01*
X128161508Y-75542147D01*
X128132483Y-75605703D01*
X128126451Y-75612181D01*
X127850451Y-75888181D01*
X127789128Y-75921666D01*
X127762770Y-75924500D01*
X121221416Y-75924500D01*
X121180461Y-75917541D01*
X121029262Y-75864633D01*
X121029249Y-75864630D01*
X120850004Y-75844435D01*
X120849996Y-75844435D01*
X120670750Y-75864630D01*
X120670745Y-75864631D01*
X120500476Y-75924211D01*
X120347737Y-76020184D01*
X120220184Y-76147737D01*
X120124211Y-76300476D01*
X120064631Y-76470745D01*
X120064630Y-76470750D01*
X120044435Y-76649996D01*
X120044435Y-76650003D01*
X120064630Y-76829249D01*
X120064631Y-76829254D01*
X120124211Y-76999523D01*
X120181171Y-77090174D01*
X120220184Y-77152262D01*
X120347738Y-77279816D01*
X120347740Y-77279817D01*
X120489036Y-77368600D01*
X120500478Y-77375789D01*
X120604126Y-77412057D01*
X120670745Y-77435368D01*
X120670750Y-77435369D01*
X120849996Y-77455565D01*
X120850000Y-77455565D01*
X120850004Y-77455565D01*
X121029246Y-77435369D01*
X121029245Y-77435369D01*
X121029255Y-77435368D01*
X121037569Y-77432458D01*
X121078523Y-77425500D01*
X122425500Y-77425500D01*
X122492539Y-77445185D01*
X122538294Y-77497989D01*
X122549500Y-77549500D01*
X122549500Y-83024331D01*
X122529815Y-83091370D01*
X122477011Y-83137125D01*
X122407853Y-83147069D01*
X122344297Y-83118044D01*
X122308459Y-83065286D01*
X122250790Y-82900480D01*
X122250789Y-82900478D01*
X122154816Y-82747738D01*
X122027262Y-82620184D01*
X122027256Y-82620179D01*
X121980598Y-82590862D01*
X121934307Y-82538528D01*
X121923659Y-82469474D01*
X121952034Y-82405626D01*
X121958865Y-82398212D01*
X122029816Y-82327262D01*
X122125789Y-82174522D01*
X122185368Y-82004255D01*
X122189809Y-81964839D01*
X122205565Y-81825003D01*
X122205565Y-81824996D01*
X122185369Y-81645749D01*
X122185368Y-81645745D01*
X122162584Y-81580632D01*
X122125789Y-81475478D01*
X122029816Y-81322738D01*
X121902262Y-81195184D01*
X121749523Y-81099211D01*
X121579254Y-81039631D01*
X121579249Y-81039630D01*
X121400004Y-81019435D01*
X121399996Y-81019435D01*
X121220750Y-81039630D01*
X121220745Y-81039631D01*
X121050476Y-81099211D01*
X120897737Y-81195184D01*
X120770184Y-81322737D01*
X120674210Y-81475478D01*
X120640874Y-81570750D01*
X120615694Y-81642712D01*
X120614631Y-81645749D01*
X120604837Y-81732667D01*
X120577770Y-81797081D01*
X120569298Y-81806464D01*
X117152584Y-85223181D01*
X117091261Y-85256666D01*
X117064903Y-85259500D01*
X115459091Y-85259500D01*
X115392052Y-85239815D01*
X115346711Y-85187909D01*
X115344037Y-85182175D01*
X115344034Y-85182170D01*
X115326177Y-85156668D01*
X115243925Y-85039198D01*
X115208494Y-84988597D01*
X115041402Y-84821506D01*
X115041396Y-84821501D01*
X114855842Y-84691575D01*
X114812217Y-84636998D01*
X114805023Y-84567500D01*
X114836546Y-84505145D01*
X114855842Y-84488425D01*
X114925000Y-84440000D01*
X115041401Y-84358495D01*
X115208495Y-84191401D01*
X115344035Y-83997830D01*
X115443903Y-83783663D01*
X115505063Y-83555408D01*
X115525659Y-83320000D01*
X115505063Y-83084592D01*
X115443903Y-82856337D01*
X115344035Y-82642171D01*
X115344034Y-82642169D01*
X115208494Y-82448597D01*
X115041402Y-82281506D01*
X115041401Y-82281505D01*
X114855405Y-82151269D01*
X114811781Y-82096692D01*
X114804588Y-82027193D01*
X114836110Y-81964839D01*
X114855405Y-81948119D01*
X115041082Y-81818105D01*
X115208105Y-81651082D01*
X115343600Y-81457578D01*
X115443429Y-81243492D01*
X115443432Y-81243486D01*
X115500636Y-81030000D01*
X114603012Y-81030000D01*
X114635925Y-80972993D01*
X114670000Y-80845826D01*
X114670000Y-80714174D01*
X114635925Y-80587007D01*
X114603012Y-80530000D01*
X115500636Y-80530000D01*
X115500635Y-80529999D01*
X115443432Y-80316513D01*
X115443429Y-80316507D01*
X115343600Y-80102422D01*
X115343599Y-80102420D01*
X115208113Y-79908926D01*
X115208108Y-79908920D01*
X115041078Y-79741890D01*
X114855405Y-79611879D01*
X114811780Y-79557302D01*
X114804588Y-79487804D01*
X114836110Y-79425449D01*
X114855406Y-79408730D01*
X115041401Y-79278495D01*
X115208495Y-79111401D01*
X115344035Y-78917830D01*
X115443903Y-78703663D01*
X115505063Y-78475408D01*
X115525659Y-78240000D01*
X115505063Y-78004592D01*
X115443903Y-77776337D01*
X115344035Y-77562171D01*
X115299094Y-77497989D01*
X115208496Y-77368600D01*
X115179980Y-77340084D01*
X115086567Y-77246671D01*
X115053084Y-77185351D01*
X115058068Y-77115659D01*
X115099939Y-77059725D01*
X115130915Y-77042810D01*
X115262331Y-76993796D01*
X115377546Y-76907546D01*
X115463796Y-76792331D01*
X115514091Y-76657483D01*
X115520500Y-76597873D01*
X115520499Y-75524499D01*
X115540183Y-75457461D01*
X115592987Y-75411706D01*
X115644499Y-75400500D01*
X128038770Y-75400500D01*
X128105809Y-75420185D01*
G37*
%TD.AperFunction*%
%TA.AperFunction,Conductor*%
G36*
X140952948Y-83940185D02*
G01*
X140998292Y-83992097D01*
X141000965Y-83997830D01*
X141136501Y-84191396D01*
X141136506Y-84191402D01*
X141303597Y-84358493D01*
X141303603Y-84358498D01*
X141489158Y-84488425D01*
X141532783Y-84543002D01*
X141539977Y-84612500D01*
X141508454Y-84674855D01*
X141489158Y-84691575D01*
X141303597Y-84821505D01*
X141136506Y-84988596D01*
X141000965Y-85182170D01*
X141000962Y-85182175D01*
X140998289Y-85187909D01*
X140952115Y-85240346D01*
X140885909Y-85259500D01*
X136148195Y-85259500D01*
X136081156Y-85239815D01*
X136035401Y-85187011D01*
X136024975Y-85121617D01*
X136032625Y-85053720D01*
X136032625Y-85053713D01*
X136012429Y-84874467D01*
X136012428Y-84874462D01*
X135993898Y-84821506D01*
X135952849Y-84704195D01*
X135944919Y-84691575D01*
X135873625Y-84578111D01*
X135854625Y-84510875D01*
X135861578Y-84471184D01*
X135861958Y-84470099D01*
X135872133Y-84441020D01*
X135877441Y-84393907D01*
X135892330Y-84261768D01*
X135892330Y-84261761D01*
X135872133Y-84082509D01*
X135870897Y-84077091D01*
X135875171Y-84007352D01*
X135916470Y-83950995D01*
X135981682Y-83925912D01*
X135991788Y-83925500D01*
X140238331Y-83925500D01*
X140238347Y-83925501D01*
X140245943Y-83925501D01*
X140404055Y-83925501D01*
X140404057Y-83925501D01*
X140406957Y-83924723D01*
X140439046Y-83920500D01*
X140885909Y-83920500D01*
X140952948Y-83940185D01*
G37*
%TD.AperFunction*%
%TA.AperFunction,Conductor*%
G36*
X129143833Y-76820047D02*
G01*
X129199767Y-76861918D01*
X129224184Y-76927383D01*
X129224500Y-76936229D01*
X129224500Y-81556532D01*
X129204815Y-81623571D01*
X129152011Y-81669326D01*
X129082853Y-81679270D01*
X129019297Y-81650245D01*
X128986944Y-81606342D01*
X128928731Y-81473630D01*
X128828434Y-81320116D01*
X128087962Y-82060589D01*
X128070925Y-81997007D01*
X128005099Y-81882993D01*
X127912007Y-81789901D01*
X127797993Y-81724075D01*
X127734410Y-81707037D01*
X128475057Y-80966390D01*
X128475056Y-80966389D01*
X128428229Y-80929943D01*
X128209614Y-80811635D01*
X128209603Y-80811630D01*
X127974493Y-80730916D01*
X127729293Y-80690000D01*
X127480707Y-80690000D01*
X127235506Y-80730916D01*
X127000396Y-80811630D01*
X127000390Y-80811632D01*
X126781761Y-80929949D01*
X126734942Y-80966388D01*
X126734942Y-80966390D01*
X127475590Y-81707037D01*
X127412007Y-81724075D01*
X127297993Y-81789901D01*
X127204901Y-81882993D01*
X127139075Y-81997007D01*
X127122037Y-82060590D01*
X126575000Y-81513553D01*
X126147962Y-81940590D01*
X126130925Y-81877007D01*
X126065099Y-81762993D01*
X125972007Y-81669901D01*
X125857993Y-81604075D01*
X125794409Y-81587037D01*
X126354571Y-81026874D01*
X126292387Y-80983333D01*
X126094159Y-80890898D01*
X126094150Y-80890894D01*
X125882894Y-80834289D01*
X125882884Y-80834287D01*
X125665001Y-80815225D01*
X125664999Y-80815225D01*
X125447115Y-80834287D01*
X125447105Y-80834289D01*
X125235849Y-80890894D01*
X125235840Y-80890898D01*
X125037613Y-80983333D01*
X124975428Y-81026874D01*
X125535591Y-81587037D01*
X125472007Y-81604075D01*
X125357993Y-81669901D01*
X125264901Y-81762993D01*
X125199075Y-81877007D01*
X125182037Y-81940591D01*
X124621874Y-81380428D01*
X124578333Y-81442613D01*
X124485898Y-81640840D01*
X124485894Y-81640849D01*
X124429289Y-81852105D01*
X124429287Y-81852115D01*
X124410225Y-82069999D01*
X124410225Y-82070000D01*
X124429287Y-82287884D01*
X124429289Y-82287894D01*
X124485894Y-82499150D01*
X124485898Y-82499159D01*
X124578333Y-82697387D01*
X124621874Y-82759571D01*
X125182037Y-82199408D01*
X125199075Y-82262993D01*
X125264901Y-82377007D01*
X125357993Y-82470099D01*
X125472007Y-82535925D01*
X125535590Y-82552962D01*
X125188553Y-82900000D01*
X125745590Y-83457037D01*
X125682007Y-83474075D01*
X125567993Y-83539901D01*
X125474901Y-83632993D01*
X125409075Y-83747007D01*
X125392037Y-83810590D01*
X124651564Y-83070116D01*
X124551267Y-83223632D01*
X124451412Y-83451282D01*
X124390387Y-83692261D01*
X124390385Y-83692270D01*
X124373317Y-83898251D01*
X124348164Y-83963436D01*
X124291762Y-84004674D01*
X124222018Y-84008872D01*
X124162060Y-83975692D01*
X124086819Y-83900451D01*
X124053334Y-83839128D01*
X124050500Y-83812770D01*
X124050500Y-77549500D01*
X124070185Y-77482461D01*
X124122989Y-77436706D01*
X124174500Y-77425500D01*
X128198920Y-77425500D01*
X128296462Y-77406096D01*
X128343913Y-77396658D01*
X128480495Y-77340084D01*
X128570693Y-77279816D01*
X128603416Y-77257952D01*
X129012819Y-76848547D01*
X129074142Y-76815063D01*
X129143833Y-76820047D01*
G37*
%TD.AperFunction*%
%TA.AperFunction,Conductor*%
G36*
X127139075Y-82382993D02*
G01*
X127204901Y-82497007D01*
X127297993Y-82590099D01*
X127412007Y-82655925D01*
X127475589Y-82672962D01*
X127119804Y-83028746D01*
X127113154Y-83051393D01*
X127096523Y-83072029D01*
X126357962Y-83810589D01*
X126340925Y-83747007D01*
X126275099Y-83632993D01*
X126182007Y-83539901D01*
X126067993Y-83474075D01*
X126004409Y-83457037D01*
X126360192Y-83101254D01*
X126366841Y-83078613D01*
X126383475Y-83057971D01*
X127122037Y-82319408D01*
X127139075Y-82382993D01*
G37*
%TD.AperFunction*%
%TA.AperFunction,Conductor*%
G36*
X140767539Y-75420185D02*
G01*
X140813294Y-75472989D01*
X140824500Y-75524500D01*
X140824501Y-76125500D01*
X140804817Y-76192539D01*
X140752013Y-76238294D01*
X140700501Y-76249500D01*
X132337230Y-76249500D01*
X132270191Y-76229815D01*
X132249549Y-76213181D01*
X131648549Y-75612181D01*
X131615064Y-75550858D01*
X131620048Y-75481166D01*
X131661920Y-75425233D01*
X131727384Y-75400816D01*
X131736230Y-75400500D01*
X133776082Y-75400500D01*
X140700500Y-75400500D01*
X140767539Y-75420185D01*
G37*
%TD.AperFunction*%
%TD*%
M02*
