%TF.GenerationSoftware,KiCad,Pcbnew,8.0.6-8.0.6-0~ubuntu24.04.1*%
%TF.CreationDate,2024-10-30T09:24:12+01:00*%
%TF.ProjectId,breakout_pcb,62726561-6b6f-4757-945f-7063622e6b69,rev?*%
%TF.SameCoordinates,Original*%
%TF.FileFunction,Drillmap*%
%TF.FilePolarity,Positive*%
%FSLAX45Y45*%
G04 Gerber Fmt 4.5, Leading zero omitted, Abs format (unit mm)*
G04 Created by KiCad (PCBNEW 8.0.6-8.0.6-0~ubuntu24.04.1) date 2024-10-30 09:24:12*
%MOMM*%
%LPD*%
G01*
G04 APERTURE LIST*
%ADD10C,0.050000*%
%ADD11C,0.200000*%
G04 APERTURE END LIST*
D10*
X14397500Y-12575000D02*
X11237500Y-12575000D01*
X14397500Y-7390000D02*
X11237500Y-7390000D01*
X14397500Y-7390000D02*
X14397500Y-12575000D01*
X11237500Y-7390000D02*
X11237500Y-12575000D01*
D11*
X11495777Y-12888984D02*
X11495777Y-12688984D01*
X11495777Y-12688984D02*
X11543396Y-12688984D01*
X11543396Y-12688984D02*
X11571967Y-12698508D01*
X11571967Y-12698508D02*
X11591015Y-12717555D01*
X11591015Y-12717555D02*
X11600539Y-12736603D01*
X11600539Y-12736603D02*
X11610062Y-12774698D01*
X11610062Y-12774698D02*
X11610062Y-12803269D01*
X11610062Y-12803269D02*
X11600539Y-12841365D01*
X11600539Y-12841365D02*
X11591015Y-12860412D01*
X11591015Y-12860412D02*
X11571967Y-12879460D01*
X11571967Y-12879460D02*
X11543396Y-12888984D01*
X11543396Y-12888984D02*
X11495777Y-12888984D01*
X11695777Y-12888984D02*
X11695777Y-12755650D01*
X11695777Y-12793746D02*
X11705301Y-12774698D01*
X11705301Y-12774698D02*
X11714824Y-12765174D01*
X11714824Y-12765174D02*
X11733872Y-12755650D01*
X11733872Y-12755650D02*
X11752920Y-12755650D01*
X11819586Y-12888984D02*
X11819586Y-12755650D01*
X11819586Y-12688984D02*
X11810062Y-12698508D01*
X11810062Y-12698508D02*
X11819586Y-12708031D01*
X11819586Y-12708031D02*
X11829110Y-12698508D01*
X11829110Y-12698508D02*
X11819586Y-12688984D01*
X11819586Y-12688984D02*
X11819586Y-12708031D01*
X11943396Y-12888984D02*
X11924348Y-12879460D01*
X11924348Y-12879460D02*
X11914824Y-12860412D01*
X11914824Y-12860412D02*
X11914824Y-12688984D01*
X12048158Y-12888984D02*
X12029110Y-12879460D01*
X12029110Y-12879460D02*
X12019586Y-12860412D01*
X12019586Y-12860412D02*
X12019586Y-12688984D01*
X12276729Y-12888984D02*
X12276729Y-12688984D01*
X12276729Y-12688984D02*
X12343396Y-12831841D01*
X12343396Y-12831841D02*
X12410062Y-12688984D01*
X12410062Y-12688984D02*
X12410062Y-12888984D01*
X12591015Y-12888984D02*
X12591015Y-12784222D01*
X12591015Y-12784222D02*
X12581491Y-12765174D01*
X12581491Y-12765174D02*
X12562443Y-12755650D01*
X12562443Y-12755650D02*
X12524348Y-12755650D01*
X12524348Y-12755650D02*
X12505301Y-12765174D01*
X12591015Y-12879460D02*
X12571967Y-12888984D01*
X12571967Y-12888984D02*
X12524348Y-12888984D01*
X12524348Y-12888984D02*
X12505301Y-12879460D01*
X12505301Y-12879460D02*
X12495777Y-12860412D01*
X12495777Y-12860412D02*
X12495777Y-12841365D01*
X12495777Y-12841365D02*
X12505301Y-12822317D01*
X12505301Y-12822317D02*
X12524348Y-12812793D01*
X12524348Y-12812793D02*
X12571967Y-12812793D01*
X12571967Y-12812793D02*
X12591015Y-12803269D01*
X12686253Y-12755650D02*
X12686253Y-12955650D01*
X12686253Y-12765174D02*
X12705301Y-12755650D01*
X12705301Y-12755650D02*
X12743396Y-12755650D01*
X12743396Y-12755650D02*
X12762443Y-12765174D01*
X12762443Y-12765174D02*
X12771967Y-12774698D01*
X12771967Y-12774698D02*
X12781491Y-12793746D01*
X12781491Y-12793746D02*
X12781491Y-12850888D01*
X12781491Y-12850888D02*
X12771967Y-12869936D01*
X12771967Y-12869936D02*
X12762443Y-12879460D01*
X12762443Y-12879460D02*
X12743396Y-12888984D01*
X12743396Y-12888984D02*
X12705301Y-12888984D01*
X12705301Y-12888984D02*
X12686253Y-12879460D01*
X12867205Y-12869936D02*
X12876729Y-12879460D01*
X12876729Y-12879460D02*
X12867205Y-12888984D01*
X12867205Y-12888984D02*
X12857682Y-12879460D01*
X12857682Y-12879460D02*
X12867205Y-12869936D01*
X12867205Y-12869936D02*
X12867205Y-12888984D01*
X12867205Y-12765174D02*
X12876729Y-12774698D01*
X12876729Y-12774698D02*
X12867205Y-12784222D01*
X12867205Y-12784222D02*
X12857682Y-12774698D01*
X12857682Y-12774698D02*
X12867205Y-12765174D01*
X12867205Y-12765174D02*
X12867205Y-12784222D01*
M02*
