%TF.GenerationSoftware,KiCad,Pcbnew,8.0.6-8.0.6-0~ubuntu24.04.1*%
%TF.CreationDate,2024-10-30T09:24:07+01:00*%
%TF.ProjectId,breakout_pcb,62726561-6b6f-4757-945f-7063622e6b69,rev?*%
%TF.SameCoordinates,Original*%
%TF.FileFunction,Legend,Bot*%
%TF.FilePolarity,Positive*%
%FSLAX46Y46*%
G04 Gerber Fmt 4.6, Leading zero omitted, Abs format (unit mm)*
G04 Created by KiCad (PCBNEW 8.0.6-8.0.6-0~ubuntu24.04.1) date 2024-10-30 09:24:07*
%MOMM*%
%LPD*%
G01*
G04 APERTURE LIST*
%ADD10R,1.700000X1.700000*%
%ADD11O,1.700000X1.700000*%
%ADD12R,1.700000X2.200000*%
%ADD13O,1.700000X2.200000*%
%ADD14O,1.350000X1.700000*%
%ADD15O,1.100000X1.500000*%
G04 APERTURE END LIST*
%LPC*%
D10*
%TO.C,J2*%
X114170000Y-75700000D03*
D11*
X114170000Y-78240000D03*
X114170000Y-80780000D03*
X114170000Y-83320000D03*
X114170000Y-85860000D03*
X114170000Y-88400000D03*
X114170000Y-90940000D03*
X114170000Y-93480000D03*
X114170000Y-96020000D03*
X114170000Y-98560000D03*
X114170000Y-101100000D03*
X114170000Y-103640000D03*
X114170000Y-106180000D03*
X114170000Y-108720000D03*
X114170000Y-111260000D03*
X114170000Y-113800000D03*
X114170000Y-116340000D03*
X114170000Y-118880000D03*
X114170000Y-121420000D03*
X114170000Y-123960000D03*
%TD*%
D12*
%TO.C,Mico_USB_Breakout1*%
X123120000Y-112750000D03*
D13*
X125660000Y-112750000D03*
X128200000Y-112750000D03*
X130740000Y-112750000D03*
X133280000Y-112750000D03*
%TD*%
D10*
%TO.C,J3*%
X142175000Y-75700000D03*
D11*
X142175000Y-78240000D03*
X142175000Y-80780000D03*
X142175000Y-83320000D03*
X142175000Y-85860000D03*
X142175000Y-88400000D03*
X142175000Y-90940000D03*
X142175000Y-93480000D03*
X142175000Y-96020000D03*
X142175000Y-98560000D03*
X142175000Y-101100000D03*
X142175000Y-103640000D03*
X142175000Y-106180000D03*
X142175000Y-108720000D03*
X142175000Y-111260000D03*
X142175000Y-113800000D03*
X142175000Y-116340000D03*
X142175000Y-118880000D03*
X142175000Y-121420000D03*
X142175000Y-123960000D03*
%TD*%
D14*
%TO.C,J1*%
X125415000Y-123250000D03*
D15*
X125725000Y-120250000D03*
X130565000Y-120250000D03*
D14*
X130875000Y-123250000D03*
%TD*%
%LPD*%
M02*
