M48
; DRILL file {KiCad 8.0.6-8.0.6-0~ubuntu24.04.1} date 2024-10-30T09:24:11+0100
; FORMAT={-:-/ absolute / metric / decimal}
; #@! TF.CreationDate,2024-10-30T09:24:11+01:00
; #@! TF.GenerationSoftware,Kicad,Pcbnew,8.0.6-8.0.6-0~ubuntu24.04.1
; #@! TF.FileFunction,Plated,1,2,PTH
FMAT,2
METRIC
; #@! TA.AperFunction,Plated,PTH,ViaDrill
T1C0.300
; #@! TA.AperFunction,Plated,PTH,ComponentDrill
T2C0.650
; #@! TA.AperFunction,Plated,PTH,ComponentDrill
T3C0.700
; #@! TA.AperFunction,Plated,PTH,ComponentDrill
T4C1.000
%
G90
G05
T1
X115.25Y-79.5
X115.275Y-122.7
X116.0Y-75.5
X116.0Y-79.225
X116.1Y-119.05
X116.175Y-122.625
X117.017Y-104.192
X117.025Y-99.925
X117.625Y-90.95
X117.675Y-98.625
X117.95Y-93.6
X117.975Y-77.65
X118.0Y-113.125
X118.05Y-89.35
X118.075Y-109.5
X118.409Y-102.8
X119.646Y-102.832
X119.775Y-96.875
X119.95Y-94.1
X120.291Y-103.305
X120.45Y-106.075
X120.85Y-76.65
X120.9Y-84.85
X121.4Y-81.825
X121.525Y-83.25
X121.675Y-75.55
X121.775Y-94.8
X121.925Y-77.85
X121.975Y-79.8
X122.025Y-89.4
X122.15Y-117.375
X122.175Y-102.625
X122.2Y-124.275
X122.225Y-84.3
X122.225Y-120.875
X122.725Y-110.3
X123.175Y-101.875
X124.0Y-106.0
X124.2Y-77.575
X124.3Y-90.625
X124.35Y-103.275
X124.375Y-100.675
X125.15Y-117.275
X126.265Y-99.7
X126.55Y-105.975
X126.575Y-103.275
X127.0Y-79.775
X127.225Y-91.89
X127.4Y-98.575
X127.875Y-75.5
X128.65Y-89.175
X128.65Y-91.675
X128.7Y-79.725
X129.05Y-75.75
X129.445Y-121.725
X129.975Y-103.225
X130.675Y-117.05
X130.725Y-75.75
X131.175Y-83.174
X131.725Y-79.25
X132.2Y-75.575
X132.75Y-84.55
X132.975Y-80.475
X133.049Y-82.999
X133.425Y-100.175
X133.425Y-110.25
X133.45Y-81.75
X133.45Y-96.225
X133.875Y-102.475
X133.9Y-116.95
X134.075Y-121.05
X134.125Y-89.7
X134.2Y-124.2
X135.087Y-84.262
X135.15Y-75.65
X135.15Y-85.85
X135.15Y-88.375
X135.175Y-83.325
X135.227Y-85.054
X135.5Y-90.925
X137.35Y-102.525
X137.4Y-96.325
X137.55Y-99.975
X138.225Y-93.225
X138.275Y-94.7
X139.222Y-90.276
X139.225Y-95.3
X139.35Y-75.725
X139.35Y-78.575
X139.4Y-81.9
X139.475Y-84.625
X139.644Y-89.0
X139.894Y-93.908
X139.9Y-121.175
X140.05Y-104.35
X140.125Y-107.675
X140.425Y-94.507
X140.475Y-87.225
X140.849Y-91.476
X140.86Y-93.176
X140.975Y-82.05
X141.05Y-79.525
X141.05Y-122.7
T4
X114.17Y-75.7
X114.17Y-78.24
X114.17Y-80.78
X114.17Y-83.32
X114.17Y-85.86
X114.17Y-88.4
X114.17Y-90.94
X114.17Y-93.48
X114.17Y-96.02
X114.17Y-98.56
X114.17Y-101.1
X114.17Y-103.64
X114.17Y-106.18
X114.17Y-108.72
X114.17Y-111.26
X114.17Y-113.8
X114.17Y-116.34
X114.17Y-118.88
X114.17Y-121.42
X114.17Y-123.96
X123.12Y-112.75
X125.66Y-112.75
X125.665Y-82.07
X125.875Y-83.94
X127.605Y-82.19
X127.715Y-84.07
X128.2Y-112.75
X130.74Y-112.75
X133.28Y-112.75
X142.175Y-75.7
X142.175Y-78.24
X142.175Y-80.78
X142.175Y-83.32
X142.175Y-85.86
X142.175Y-88.4
X142.175Y-90.94
X142.175Y-93.48
X142.175Y-96.02
X142.175Y-98.56
X142.175Y-101.1
X142.175Y-103.64
X142.175Y-106.18
X142.175Y-108.72
X142.175Y-111.26
X142.175Y-113.8
X142.175Y-116.34
X142.175Y-118.88
X142.175Y-121.42
X142.175Y-123.96
T2
G00X125.725Y-120.45
M15
G01X125.725Y-120.05
M16
G05
G00X130.565Y-120.45
M15
G01X130.565Y-120.05
M16
G05
T3
G00X125.415Y-123.5
M15
G01X125.415Y-123.0
M16
G05
G00X130.875Y-123.5
M15
G01X130.875Y-123.0
M16
G05
M30
