%TF.GenerationSoftware,KiCad,Pcbnew,8.0.6-8.0.6-0~ubuntu24.04.1*%
%TF.CreationDate,2024-10-30T09:28:42+01:00*%
%TF.ProjectId,micromouse_pcb,6d696372-6f6d-46f7-9573-655f7063622e,rev?*%
%TF.SameCoordinates,Original*%
%TF.FileFunction,Drillmap*%
%TF.FilePolarity,Positive*%
%FSLAX45Y45*%
G04 Gerber Fmt 4.5, Leading zero omitted, Abs format (unit mm)*
G04 Created by KiCad (PCBNEW 8.0.6-8.0.6-0~ubuntu24.04.1) date 2024-10-30 09:28:42*
%MOMM*%
%LPD*%
G01*
G04 APERTURE LIST*
%ADD10C,0.050000*%
%ADD11C,0.200000*%
%ADD12C,0.320000*%
G04 APERTURE END LIST*
D10*
X12500000Y-15000000D02*
X17500000Y-15000000D01*
X17500000Y-13200000D02*
X17500000Y-10800000D01*
X12000000Y-14500000D02*
X12000000Y-13200000D01*
X17500000Y-10800000D02*
X18000000Y-10800000D01*
X12000000Y-9000000D02*
G75*
G02*
X18000000Y-9000000I3000000J0D01*
G01*
X12500000Y-10800000D02*
X12000000Y-10800000D01*
X12000000Y-13200000D02*
X12500000Y-13200000D01*
X12500000Y-13200000D02*
X12500000Y-10800000D01*
X18000000Y-10800000D02*
X18000000Y-9000000D01*
X18000000Y-14500000D02*
X18000000Y-13200000D01*
X12500000Y-15000000D02*
G75*
G02*
X12000000Y-14500000I0J500000D01*
G01*
X12000000Y-10800000D02*
X12000000Y-9000000D01*
X18000000Y-14500000D02*
G75*
G02*
X17500000Y-15000000I-500000J0D01*
G01*
X18000000Y-13200000D02*
X17500000Y-13200000D01*
D11*
D12*
X13090000Y-10740000D02*
X13410000Y-11060000D01*
X13410000Y-10740000D02*
X13090000Y-11060000D01*
X13090000Y-12940000D02*
X13410000Y-13260000D01*
X13410000Y-12940000D02*
X13090000Y-13260000D01*
X16590000Y-10740000D02*
X16910000Y-11060000D01*
X16910000Y-10740000D02*
X16590000Y-11060000D01*
X16590000Y-12940000D02*
X16910000Y-13260000D01*
X16910000Y-12940000D02*
X16590000Y-13260000D01*
D11*
X12258277Y-15313984D02*
X12258277Y-15113984D01*
X12258277Y-15113984D02*
X12305896Y-15113984D01*
X12305896Y-15113984D02*
X12334467Y-15123508D01*
X12334467Y-15123508D02*
X12353515Y-15142555D01*
X12353515Y-15142555D02*
X12363039Y-15161603D01*
X12363039Y-15161603D02*
X12372562Y-15199698D01*
X12372562Y-15199698D02*
X12372562Y-15228269D01*
X12372562Y-15228269D02*
X12363039Y-15266365D01*
X12363039Y-15266365D02*
X12353515Y-15285412D01*
X12353515Y-15285412D02*
X12334467Y-15304460D01*
X12334467Y-15304460D02*
X12305896Y-15313984D01*
X12305896Y-15313984D02*
X12258277Y-15313984D01*
X12458277Y-15313984D02*
X12458277Y-15180650D01*
X12458277Y-15218746D02*
X12467801Y-15199698D01*
X12467801Y-15199698D02*
X12477324Y-15190174D01*
X12477324Y-15190174D02*
X12496372Y-15180650D01*
X12496372Y-15180650D02*
X12515420Y-15180650D01*
X12582086Y-15313984D02*
X12582086Y-15180650D01*
X12582086Y-15113984D02*
X12572562Y-15123508D01*
X12572562Y-15123508D02*
X12582086Y-15133031D01*
X12582086Y-15133031D02*
X12591610Y-15123508D01*
X12591610Y-15123508D02*
X12582086Y-15113984D01*
X12582086Y-15113984D02*
X12582086Y-15133031D01*
X12705896Y-15313984D02*
X12686848Y-15304460D01*
X12686848Y-15304460D02*
X12677324Y-15285412D01*
X12677324Y-15285412D02*
X12677324Y-15113984D01*
X12810658Y-15313984D02*
X12791610Y-15304460D01*
X12791610Y-15304460D02*
X12782086Y-15285412D01*
X12782086Y-15285412D02*
X12782086Y-15113984D01*
X13039229Y-15313984D02*
X13039229Y-15113984D01*
X13039229Y-15113984D02*
X13105896Y-15256841D01*
X13105896Y-15256841D02*
X13172562Y-15113984D01*
X13172562Y-15113984D02*
X13172562Y-15313984D01*
X13353515Y-15313984D02*
X13353515Y-15209222D01*
X13353515Y-15209222D02*
X13343991Y-15190174D01*
X13343991Y-15190174D02*
X13324943Y-15180650D01*
X13324943Y-15180650D02*
X13286848Y-15180650D01*
X13286848Y-15180650D02*
X13267801Y-15190174D01*
X13353515Y-15304460D02*
X13334467Y-15313984D01*
X13334467Y-15313984D02*
X13286848Y-15313984D01*
X13286848Y-15313984D02*
X13267801Y-15304460D01*
X13267801Y-15304460D02*
X13258277Y-15285412D01*
X13258277Y-15285412D02*
X13258277Y-15266365D01*
X13258277Y-15266365D02*
X13267801Y-15247317D01*
X13267801Y-15247317D02*
X13286848Y-15237793D01*
X13286848Y-15237793D02*
X13334467Y-15237793D01*
X13334467Y-15237793D02*
X13353515Y-15228269D01*
X13448753Y-15180650D02*
X13448753Y-15380650D01*
X13448753Y-15190174D02*
X13467801Y-15180650D01*
X13467801Y-15180650D02*
X13505896Y-15180650D01*
X13505896Y-15180650D02*
X13524943Y-15190174D01*
X13524943Y-15190174D02*
X13534467Y-15199698D01*
X13534467Y-15199698D02*
X13543991Y-15218746D01*
X13543991Y-15218746D02*
X13543991Y-15275888D01*
X13543991Y-15275888D02*
X13534467Y-15294936D01*
X13534467Y-15294936D02*
X13524943Y-15304460D01*
X13524943Y-15304460D02*
X13505896Y-15313984D01*
X13505896Y-15313984D02*
X13467801Y-15313984D01*
X13467801Y-15313984D02*
X13448753Y-15304460D01*
X13629705Y-15294936D02*
X13639229Y-15304460D01*
X13639229Y-15304460D02*
X13629705Y-15313984D01*
X13629705Y-15313984D02*
X13620182Y-15304460D01*
X13620182Y-15304460D02*
X13629705Y-15294936D01*
X13629705Y-15294936D02*
X13629705Y-15313984D01*
X13629705Y-15190174D02*
X13639229Y-15199698D01*
X13639229Y-15199698D02*
X13629705Y-15209222D01*
X13629705Y-15209222D02*
X13620182Y-15199698D01*
X13620182Y-15199698D02*
X13629705Y-15190174D01*
X13629705Y-15190174D02*
X13629705Y-15209222D01*
X11797500Y-15542500D02*
X11997500Y-15742500D01*
X11997500Y-15542500D02*
X11797500Y-15742500D01*
X12239229Y-15533984D02*
X12363039Y-15533984D01*
X12363039Y-15533984D02*
X12296372Y-15610174D01*
X12296372Y-15610174D02*
X12324943Y-15610174D01*
X12324943Y-15610174D02*
X12343991Y-15619698D01*
X12343991Y-15619698D02*
X12353515Y-15629222D01*
X12353515Y-15629222D02*
X12363039Y-15648269D01*
X12363039Y-15648269D02*
X12363039Y-15695888D01*
X12363039Y-15695888D02*
X12353515Y-15714936D01*
X12353515Y-15714936D02*
X12343991Y-15724460D01*
X12343991Y-15724460D02*
X12324943Y-15733984D01*
X12324943Y-15733984D02*
X12267801Y-15733984D01*
X12267801Y-15733984D02*
X12248753Y-15724460D01*
X12248753Y-15724460D02*
X12239229Y-15714936D01*
X12448753Y-15714936D02*
X12458277Y-15724460D01*
X12458277Y-15724460D02*
X12448753Y-15733984D01*
X12448753Y-15733984D02*
X12439229Y-15724460D01*
X12439229Y-15724460D02*
X12448753Y-15714936D01*
X12448753Y-15714936D02*
X12448753Y-15733984D01*
X12534467Y-15553031D02*
X12543991Y-15543508D01*
X12543991Y-15543508D02*
X12563039Y-15533984D01*
X12563039Y-15533984D02*
X12610658Y-15533984D01*
X12610658Y-15533984D02*
X12629705Y-15543508D01*
X12629705Y-15543508D02*
X12639229Y-15553031D01*
X12639229Y-15553031D02*
X12648753Y-15572079D01*
X12648753Y-15572079D02*
X12648753Y-15591127D01*
X12648753Y-15591127D02*
X12639229Y-15619698D01*
X12639229Y-15619698D02*
X12524943Y-15733984D01*
X12524943Y-15733984D02*
X12648753Y-15733984D01*
X12772562Y-15533984D02*
X12791610Y-15533984D01*
X12791610Y-15533984D02*
X12810658Y-15543508D01*
X12810658Y-15543508D02*
X12820182Y-15553031D01*
X12820182Y-15553031D02*
X12829705Y-15572079D01*
X12829705Y-15572079D02*
X12839229Y-15610174D01*
X12839229Y-15610174D02*
X12839229Y-15657793D01*
X12839229Y-15657793D02*
X12829705Y-15695888D01*
X12829705Y-15695888D02*
X12820182Y-15714936D01*
X12820182Y-15714936D02*
X12810658Y-15724460D01*
X12810658Y-15724460D02*
X12791610Y-15733984D01*
X12791610Y-15733984D02*
X12772562Y-15733984D01*
X12772562Y-15733984D02*
X12753515Y-15724460D01*
X12753515Y-15724460D02*
X12743991Y-15714936D01*
X12743991Y-15714936D02*
X12734467Y-15695888D01*
X12734467Y-15695888D02*
X12724943Y-15657793D01*
X12724943Y-15657793D02*
X12724943Y-15610174D01*
X12724943Y-15610174D02*
X12734467Y-15572079D01*
X12734467Y-15572079D02*
X12743991Y-15553031D01*
X12743991Y-15553031D02*
X12753515Y-15543508D01*
X12753515Y-15543508D02*
X12772562Y-15533984D01*
X12963039Y-15533984D02*
X12982086Y-15533984D01*
X12982086Y-15533984D02*
X13001134Y-15543508D01*
X13001134Y-15543508D02*
X13010658Y-15553031D01*
X13010658Y-15553031D02*
X13020182Y-15572079D01*
X13020182Y-15572079D02*
X13029705Y-15610174D01*
X13029705Y-15610174D02*
X13029705Y-15657793D01*
X13029705Y-15657793D02*
X13020182Y-15695888D01*
X13020182Y-15695888D02*
X13010658Y-15714936D01*
X13010658Y-15714936D02*
X13001134Y-15724460D01*
X13001134Y-15724460D02*
X12982086Y-15733984D01*
X12982086Y-15733984D02*
X12963039Y-15733984D01*
X12963039Y-15733984D02*
X12943991Y-15724460D01*
X12943991Y-15724460D02*
X12934467Y-15714936D01*
X12934467Y-15714936D02*
X12924943Y-15695888D01*
X12924943Y-15695888D02*
X12915420Y-15657793D01*
X12915420Y-15657793D02*
X12915420Y-15610174D01*
X12915420Y-15610174D02*
X12924943Y-15572079D01*
X12924943Y-15572079D02*
X12934467Y-15553031D01*
X12934467Y-15553031D02*
X12943991Y-15543508D01*
X12943991Y-15543508D02*
X12963039Y-15533984D01*
X13115420Y-15733984D02*
X13115420Y-15600650D01*
X13115420Y-15619698D02*
X13124943Y-15610174D01*
X13124943Y-15610174D02*
X13143991Y-15600650D01*
X13143991Y-15600650D02*
X13172563Y-15600650D01*
X13172563Y-15600650D02*
X13191610Y-15610174D01*
X13191610Y-15610174D02*
X13201134Y-15629222D01*
X13201134Y-15629222D02*
X13201134Y-15733984D01*
X13201134Y-15629222D02*
X13210658Y-15610174D01*
X13210658Y-15610174D02*
X13229705Y-15600650D01*
X13229705Y-15600650D02*
X13258277Y-15600650D01*
X13258277Y-15600650D02*
X13277324Y-15610174D01*
X13277324Y-15610174D02*
X13286848Y-15629222D01*
X13286848Y-15629222D02*
X13286848Y-15733984D01*
X13382086Y-15733984D02*
X13382086Y-15600650D01*
X13382086Y-15619698D02*
X13391610Y-15610174D01*
X13391610Y-15610174D02*
X13410658Y-15600650D01*
X13410658Y-15600650D02*
X13439229Y-15600650D01*
X13439229Y-15600650D02*
X13458277Y-15610174D01*
X13458277Y-15610174D02*
X13467801Y-15629222D01*
X13467801Y-15629222D02*
X13467801Y-15733984D01*
X13467801Y-15629222D02*
X13477324Y-15610174D01*
X13477324Y-15610174D02*
X13496372Y-15600650D01*
X13496372Y-15600650D02*
X13524943Y-15600650D01*
X13524943Y-15600650D02*
X13543991Y-15610174D01*
X13543991Y-15610174D02*
X13553515Y-15629222D01*
X13553515Y-15629222D02*
X13553515Y-15733984D01*
X13943991Y-15524460D02*
X13772563Y-15781603D01*
X14201134Y-15533984D02*
X14220182Y-15533984D01*
X14220182Y-15533984D02*
X14239229Y-15543508D01*
X14239229Y-15543508D02*
X14248753Y-15553031D01*
X14248753Y-15553031D02*
X14258277Y-15572079D01*
X14258277Y-15572079D02*
X14267801Y-15610174D01*
X14267801Y-15610174D02*
X14267801Y-15657793D01*
X14267801Y-15657793D02*
X14258277Y-15695888D01*
X14258277Y-15695888D02*
X14248753Y-15714936D01*
X14248753Y-15714936D02*
X14239229Y-15724460D01*
X14239229Y-15724460D02*
X14220182Y-15733984D01*
X14220182Y-15733984D02*
X14201134Y-15733984D01*
X14201134Y-15733984D02*
X14182086Y-15724460D01*
X14182086Y-15724460D02*
X14172563Y-15714936D01*
X14172563Y-15714936D02*
X14163039Y-15695888D01*
X14163039Y-15695888D02*
X14153515Y-15657793D01*
X14153515Y-15657793D02*
X14153515Y-15610174D01*
X14153515Y-15610174D02*
X14163039Y-15572079D01*
X14163039Y-15572079D02*
X14172563Y-15553031D01*
X14172563Y-15553031D02*
X14182086Y-15543508D01*
X14182086Y-15543508D02*
X14201134Y-15533984D01*
X14353515Y-15714936D02*
X14363039Y-15724460D01*
X14363039Y-15724460D02*
X14353515Y-15733984D01*
X14353515Y-15733984D02*
X14343991Y-15724460D01*
X14343991Y-15724460D02*
X14353515Y-15714936D01*
X14353515Y-15714936D02*
X14353515Y-15733984D01*
X14553515Y-15733984D02*
X14439229Y-15733984D01*
X14496372Y-15733984D02*
X14496372Y-15533984D01*
X14496372Y-15533984D02*
X14477325Y-15562555D01*
X14477325Y-15562555D02*
X14458277Y-15581603D01*
X14458277Y-15581603D02*
X14439229Y-15591127D01*
X14629706Y-15553031D02*
X14639229Y-15543508D01*
X14639229Y-15543508D02*
X14658277Y-15533984D01*
X14658277Y-15533984D02*
X14705896Y-15533984D01*
X14705896Y-15533984D02*
X14724944Y-15543508D01*
X14724944Y-15543508D02*
X14734467Y-15553031D01*
X14734467Y-15553031D02*
X14743991Y-15572079D01*
X14743991Y-15572079D02*
X14743991Y-15591127D01*
X14743991Y-15591127D02*
X14734467Y-15619698D01*
X14734467Y-15619698D02*
X14620182Y-15733984D01*
X14620182Y-15733984D02*
X14743991Y-15733984D01*
X14915420Y-15533984D02*
X14877325Y-15533984D01*
X14877325Y-15533984D02*
X14858277Y-15543508D01*
X14858277Y-15543508D02*
X14848753Y-15553031D01*
X14848753Y-15553031D02*
X14829706Y-15581603D01*
X14829706Y-15581603D02*
X14820182Y-15619698D01*
X14820182Y-15619698D02*
X14820182Y-15695888D01*
X14820182Y-15695888D02*
X14829706Y-15714936D01*
X14829706Y-15714936D02*
X14839229Y-15724460D01*
X14839229Y-15724460D02*
X14858277Y-15733984D01*
X14858277Y-15733984D02*
X14896372Y-15733984D01*
X14896372Y-15733984D02*
X14915420Y-15724460D01*
X14915420Y-15724460D02*
X14924944Y-15714936D01*
X14924944Y-15714936D02*
X14934467Y-15695888D01*
X14934467Y-15695888D02*
X14934467Y-15648269D01*
X14934467Y-15648269D02*
X14924944Y-15629222D01*
X14924944Y-15629222D02*
X14915420Y-15619698D01*
X14915420Y-15619698D02*
X14896372Y-15610174D01*
X14896372Y-15610174D02*
X14858277Y-15610174D01*
X14858277Y-15610174D02*
X14839229Y-15619698D01*
X14839229Y-15619698D02*
X14829706Y-15629222D01*
X14829706Y-15629222D02*
X14820182Y-15648269D01*
X15058277Y-15533984D02*
X15077325Y-15533984D01*
X15077325Y-15533984D02*
X15096372Y-15543508D01*
X15096372Y-15543508D02*
X15105896Y-15553031D01*
X15105896Y-15553031D02*
X15115420Y-15572079D01*
X15115420Y-15572079D02*
X15124944Y-15610174D01*
X15124944Y-15610174D02*
X15124944Y-15657793D01*
X15124944Y-15657793D02*
X15115420Y-15695888D01*
X15115420Y-15695888D02*
X15105896Y-15714936D01*
X15105896Y-15714936D02*
X15096372Y-15724460D01*
X15096372Y-15724460D02*
X15077325Y-15733984D01*
X15077325Y-15733984D02*
X15058277Y-15733984D01*
X15058277Y-15733984D02*
X15039229Y-15724460D01*
X15039229Y-15724460D02*
X15029706Y-15714936D01*
X15029706Y-15714936D02*
X15020182Y-15695888D01*
X15020182Y-15695888D02*
X15010658Y-15657793D01*
X15010658Y-15657793D02*
X15010658Y-15610174D01*
X15010658Y-15610174D02*
X15020182Y-15572079D01*
X15020182Y-15572079D02*
X15029706Y-15553031D01*
X15029706Y-15553031D02*
X15039229Y-15543508D01*
X15039229Y-15543508D02*
X15058277Y-15533984D01*
X15201134Y-15533984D02*
X15201134Y-15572079D01*
X15277325Y-15533984D02*
X15277325Y-15572079D01*
X15572563Y-15810174D02*
X15563039Y-15800650D01*
X15563039Y-15800650D02*
X15543991Y-15772079D01*
X15543991Y-15772079D02*
X15534468Y-15753031D01*
X15534468Y-15753031D02*
X15524944Y-15724460D01*
X15524944Y-15724460D02*
X15515420Y-15676841D01*
X15515420Y-15676841D02*
X15515420Y-15638746D01*
X15515420Y-15638746D02*
X15524944Y-15591127D01*
X15524944Y-15591127D02*
X15534468Y-15562555D01*
X15534468Y-15562555D02*
X15543991Y-15543508D01*
X15543991Y-15543508D02*
X15563039Y-15514936D01*
X15563039Y-15514936D02*
X15572563Y-15505412D01*
X15734468Y-15600650D02*
X15734468Y-15733984D01*
X15686848Y-15524460D02*
X15639229Y-15667317D01*
X15639229Y-15667317D02*
X15763039Y-15667317D01*
X15991610Y-15733984D02*
X15991610Y-15533984D01*
X16077325Y-15733984D02*
X16077325Y-15629222D01*
X16077325Y-15629222D02*
X16067801Y-15610174D01*
X16067801Y-15610174D02*
X16048753Y-15600650D01*
X16048753Y-15600650D02*
X16020182Y-15600650D01*
X16020182Y-15600650D02*
X16001134Y-15610174D01*
X16001134Y-15610174D02*
X15991610Y-15619698D01*
X16201134Y-15733984D02*
X16182087Y-15724460D01*
X16182087Y-15724460D02*
X16172563Y-15714936D01*
X16172563Y-15714936D02*
X16163039Y-15695888D01*
X16163039Y-15695888D02*
X16163039Y-15638746D01*
X16163039Y-15638746D02*
X16172563Y-15619698D01*
X16172563Y-15619698D02*
X16182087Y-15610174D01*
X16182087Y-15610174D02*
X16201134Y-15600650D01*
X16201134Y-15600650D02*
X16229706Y-15600650D01*
X16229706Y-15600650D02*
X16248753Y-15610174D01*
X16248753Y-15610174D02*
X16258277Y-15619698D01*
X16258277Y-15619698D02*
X16267801Y-15638746D01*
X16267801Y-15638746D02*
X16267801Y-15695888D01*
X16267801Y-15695888D02*
X16258277Y-15714936D01*
X16258277Y-15714936D02*
X16248753Y-15724460D01*
X16248753Y-15724460D02*
X16229706Y-15733984D01*
X16229706Y-15733984D02*
X16201134Y-15733984D01*
X16382087Y-15733984D02*
X16363039Y-15724460D01*
X16363039Y-15724460D02*
X16353515Y-15705412D01*
X16353515Y-15705412D02*
X16353515Y-15533984D01*
X16534468Y-15724460D02*
X16515420Y-15733984D01*
X16515420Y-15733984D02*
X16477325Y-15733984D01*
X16477325Y-15733984D02*
X16458277Y-15724460D01*
X16458277Y-15724460D02*
X16448753Y-15705412D01*
X16448753Y-15705412D02*
X16448753Y-15629222D01*
X16448753Y-15629222D02*
X16458277Y-15610174D01*
X16458277Y-15610174D02*
X16477325Y-15600650D01*
X16477325Y-15600650D02*
X16515420Y-15600650D01*
X16515420Y-15600650D02*
X16534468Y-15610174D01*
X16534468Y-15610174D02*
X16543991Y-15629222D01*
X16543991Y-15629222D02*
X16543991Y-15648269D01*
X16543991Y-15648269D02*
X16448753Y-15667317D01*
X16620182Y-15724460D02*
X16639230Y-15733984D01*
X16639230Y-15733984D02*
X16677325Y-15733984D01*
X16677325Y-15733984D02*
X16696372Y-15724460D01*
X16696372Y-15724460D02*
X16705896Y-15705412D01*
X16705896Y-15705412D02*
X16705896Y-15695888D01*
X16705896Y-15695888D02*
X16696372Y-15676841D01*
X16696372Y-15676841D02*
X16677325Y-15667317D01*
X16677325Y-15667317D02*
X16648753Y-15667317D01*
X16648753Y-15667317D02*
X16629706Y-15657793D01*
X16629706Y-15657793D02*
X16620182Y-15638746D01*
X16620182Y-15638746D02*
X16620182Y-15629222D01*
X16620182Y-15629222D02*
X16629706Y-15610174D01*
X16629706Y-15610174D02*
X16648753Y-15600650D01*
X16648753Y-15600650D02*
X16677325Y-15600650D01*
X16677325Y-15600650D02*
X16696372Y-15610174D01*
X16772563Y-15810174D02*
X16782087Y-15800650D01*
X16782087Y-15800650D02*
X16801134Y-15772079D01*
X16801134Y-15772079D02*
X16810658Y-15753031D01*
X16810658Y-15753031D02*
X16820182Y-15724460D01*
X16820182Y-15724460D02*
X16829706Y-15676841D01*
X16829706Y-15676841D02*
X16829706Y-15638746D01*
X16829706Y-15638746D02*
X16820182Y-15591127D01*
X16820182Y-15591127D02*
X16810658Y-15562555D01*
X16810658Y-15562555D02*
X16801134Y-15543508D01*
X16801134Y-15543508D02*
X16782087Y-15514936D01*
X16782087Y-15514936D02*
X16772563Y-15505412D01*
X17134468Y-15810174D02*
X17124944Y-15800650D01*
X17124944Y-15800650D02*
X17105896Y-15772079D01*
X17105896Y-15772079D02*
X17096373Y-15753031D01*
X17096373Y-15753031D02*
X17086849Y-15724460D01*
X17086849Y-15724460D02*
X17077325Y-15676841D01*
X17077325Y-15676841D02*
X17077325Y-15638746D01*
X17077325Y-15638746D02*
X17086849Y-15591127D01*
X17086849Y-15591127D02*
X17096373Y-15562555D01*
X17096373Y-15562555D02*
X17105896Y-15543508D01*
X17105896Y-15543508D02*
X17124944Y-15514936D01*
X17124944Y-15514936D02*
X17134468Y-15505412D01*
X17210658Y-15600650D02*
X17210658Y-15733984D01*
X17210658Y-15619698D02*
X17220182Y-15610174D01*
X17220182Y-15610174D02*
X17239230Y-15600650D01*
X17239230Y-15600650D02*
X17267801Y-15600650D01*
X17267801Y-15600650D02*
X17286849Y-15610174D01*
X17286849Y-15610174D02*
X17296373Y-15629222D01*
X17296373Y-15629222D02*
X17296373Y-15733984D01*
X17420182Y-15733984D02*
X17401134Y-15724460D01*
X17401134Y-15724460D02*
X17391611Y-15714936D01*
X17391611Y-15714936D02*
X17382087Y-15695888D01*
X17382087Y-15695888D02*
X17382087Y-15638746D01*
X17382087Y-15638746D02*
X17391611Y-15619698D01*
X17391611Y-15619698D02*
X17401134Y-15610174D01*
X17401134Y-15610174D02*
X17420182Y-15600650D01*
X17420182Y-15600650D02*
X17448754Y-15600650D01*
X17448754Y-15600650D02*
X17467801Y-15610174D01*
X17467801Y-15610174D02*
X17477325Y-15619698D01*
X17477325Y-15619698D02*
X17486849Y-15638746D01*
X17486849Y-15638746D02*
X17486849Y-15695888D01*
X17486849Y-15695888D02*
X17477325Y-15714936D01*
X17477325Y-15714936D02*
X17467801Y-15724460D01*
X17467801Y-15724460D02*
X17448754Y-15733984D01*
X17448754Y-15733984D02*
X17420182Y-15733984D01*
X17543992Y-15600650D02*
X17620182Y-15600650D01*
X17572563Y-15533984D02*
X17572563Y-15705412D01*
X17572563Y-15705412D02*
X17582087Y-15724460D01*
X17582087Y-15724460D02*
X17601134Y-15733984D01*
X17601134Y-15733984D02*
X17620182Y-15733984D01*
X17839230Y-15600650D02*
X17839230Y-15800650D01*
X17839230Y-15610174D02*
X17858277Y-15600650D01*
X17858277Y-15600650D02*
X17896373Y-15600650D01*
X17896373Y-15600650D02*
X17915420Y-15610174D01*
X17915420Y-15610174D02*
X17924944Y-15619698D01*
X17924944Y-15619698D02*
X17934468Y-15638746D01*
X17934468Y-15638746D02*
X17934468Y-15695888D01*
X17934468Y-15695888D02*
X17924944Y-15714936D01*
X17924944Y-15714936D02*
X17915420Y-15724460D01*
X17915420Y-15724460D02*
X17896373Y-15733984D01*
X17896373Y-15733984D02*
X17858277Y-15733984D01*
X17858277Y-15733984D02*
X17839230Y-15724460D01*
X18048754Y-15733984D02*
X18029706Y-15724460D01*
X18029706Y-15724460D02*
X18020182Y-15705412D01*
X18020182Y-15705412D02*
X18020182Y-15533984D01*
X18210658Y-15733984D02*
X18210658Y-15629222D01*
X18210658Y-15629222D02*
X18201135Y-15610174D01*
X18201135Y-15610174D02*
X18182087Y-15600650D01*
X18182087Y-15600650D02*
X18143992Y-15600650D01*
X18143992Y-15600650D02*
X18124944Y-15610174D01*
X18210658Y-15724460D02*
X18191611Y-15733984D01*
X18191611Y-15733984D02*
X18143992Y-15733984D01*
X18143992Y-15733984D02*
X18124944Y-15724460D01*
X18124944Y-15724460D02*
X18115420Y-15705412D01*
X18115420Y-15705412D02*
X18115420Y-15686365D01*
X18115420Y-15686365D02*
X18124944Y-15667317D01*
X18124944Y-15667317D02*
X18143992Y-15657793D01*
X18143992Y-15657793D02*
X18191611Y-15657793D01*
X18191611Y-15657793D02*
X18210658Y-15648269D01*
X18277325Y-15600650D02*
X18353515Y-15600650D01*
X18305896Y-15533984D02*
X18305896Y-15705412D01*
X18305896Y-15705412D02*
X18315420Y-15724460D01*
X18315420Y-15724460D02*
X18334468Y-15733984D01*
X18334468Y-15733984D02*
X18353515Y-15733984D01*
X18496373Y-15724460D02*
X18477325Y-15733984D01*
X18477325Y-15733984D02*
X18439230Y-15733984D01*
X18439230Y-15733984D02*
X18420182Y-15724460D01*
X18420182Y-15724460D02*
X18410658Y-15705412D01*
X18410658Y-15705412D02*
X18410658Y-15629222D01*
X18410658Y-15629222D02*
X18420182Y-15610174D01*
X18420182Y-15610174D02*
X18439230Y-15600650D01*
X18439230Y-15600650D02*
X18477325Y-15600650D01*
X18477325Y-15600650D02*
X18496373Y-15610174D01*
X18496373Y-15610174D02*
X18505896Y-15629222D01*
X18505896Y-15629222D02*
X18505896Y-15648269D01*
X18505896Y-15648269D02*
X18410658Y-15667317D01*
X18677325Y-15733984D02*
X18677325Y-15533984D01*
X18677325Y-15724460D02*
X18658277Y-15733984D01*
X18658277Y-15733984D02*
X18620182Y-15733984D01*
X18620182Y-15733984D02*
X18601135Y-15724460D01*
X18601135Y-15724460D02*
X18591611Y-15714936D01*
X18591611Y-15714936D02*
X18582087Y-15695888D01*
X18582087Y-15695888D02*
X18582087Y-15638746D01*
X18582087Y-15638746D02*
X18591611Y-15619698D01*
X18591611Y-15619698D02*
X18601135Y-15610174D01*
X18601135Y-15610174D02*
X18620182Y-15600650D01*
X18620182Y-15600650D02*
X18658277Y-15600650D01*
X18658277Y-15600650D02*
X18677325Y-15610174D01*
X18753516Y-15810174D02*
X18763039Y-15800650D01*
X18763039Y-15800650D02*
X18782087Y-15772079D01*
X18782087Y-15772079D02*
X18791611Y-15753031D01*
X18791611Y-15753031D02*
X18801135Y-15724460D01*
X18801135Y-15724460D02*
X18810658Y-15676841D01*
X18810658Y-15676841D02*
X18810658Y-15638746D01*
X18810658Y-15638746D02*
X18801135Y-15591127D01*
X18801135Y-15591127D02*
X18791611Y-15562555D01*
X18791611Y-15562555D02*
X18782087Y-15543508D01*
X18782087Y-15543508D02*
X18763039Y-15514936D01*
X18763039Y-15514936D02*
X18753516Y-15505412D01*
M02*
