M48
; DRILL file {KiCad 8.0.6-8.0.6-0~ubuntu24.04.1} date 2024-10-30T09:28:41+0100
; FORMAT={-:-/ absolute / metric / decimal}
; #@! TF.CreationDate,2024-10-30T09:28:41+01:00
; #@! TF.GenerationSoftware,Kicad,Pcbnew,8.0.6-8.0.6-0~ubuntu24.04.1
; #@! TF.FileFunction,Plated,1,2,PTH
FMAT,2
METRIC
; #@! TA.AperFunction,Plated,PTH,ViaDrill
T1C0.300
; #@! TA.AperFunction,Plated,PTH,ComponentDrill
T2C0.650
; #@! TA.AperFunction,Plated,PTH,ComponentDrill
T3C0.700
; #@! TA.AperFunction,Plated,PTH,ComponentDrill
T4C0.750
; #@! TA.AperFunction,Plated,PTH,ComponentDrill
T5C0.762
; #@! TA.AperFunction,Plated,PTH,ComponentDrill
T6C0.800
; #@! TA.AperFunction,Plated,PTH,ComponentDrill
T7C1.000
; #@! TA.AperFunction,Plated,PTH,ComponentDrill
T8C2.000
%
G90
G05
T1
X121.0Y-135.75
X121.0Y-139.75
X121.75Y-88.75
X122.0Y-135.75
X122.6Y-139.9
X122.75Y-147.5
X123.0Y-105.0
X124.0Y-136.0
X124.5Y-95.5
X125.75Y-132.75
X126.0Y-134.0
X126.25Y-136.5
X126.5Y-92.25
X127.0Y-75.75
X127.0Y-85.25
X127.0Y-133.0
X127.0Y-135.0
X127.0Y-148.0
X127.25Y-107.75
X127.25Y-127.5
X127.5Y-115.5
X127.5Y-142.0
X128.5Y-132.5
X129.49Y-142.5
X129.75Y-95.5
X130.5Y-82.5
X130.5Y-126.0
X131.0Y-77.0
X131.25Y-115.5
X131.75Y-135.25
X131.75Y-140.5
X132.0Y-87.75
X132.25Y-91.0
X132.25Y-128.5
X133.0Y-84.5
X133.5Y-103.0
X133.5Y-115.75
X133.75Y-96.0
X134.1Y-116.316
X134.25Y-78.75
X135.0Y-94.25
X135.0Y-131.25
X135.25Y-102.25
X135.5Y-75.0
X136.0Y-83.0
X136.174Y-102.174
X136.25Y-134.5
X136.25Y-137.0
X136.25Y-139.25
X136.274Y-102.968
X136.5Y-65.75
X136.5Y-140.5
X136.75Y-90.5
X137.07Y-103.051
X137.25Y-98.75
X137.25Y-122.25
X137.25Y-125.5
X137.434Y-103.934
X137.574Y-90.476
X138.0Y-83.0
X138.0Y-98.0
X138.0Y-104.5
X138.25Y-86.0
X138.25Y-130.75
X138.274Y-129.926
X138.286Y-129.089
X138.303Y-128.289
X138.5Y-116.5
X138.75Y-76.0
X139.0Y-79.0
X139.0Y-105.0
X139.0Y-114.25
X139.0Y-127.25
X139.0Y-137.5
X139.207Y-132.293
X139.25Y-108.25
X139.5Y-121.75
X139.5Y-145.25
X139.5Y-149.0
X139.6Y-136.0
X139.75Y-81.0
X140.0Y-83.75
X140.5Y-74.25
X140.5Y-102.25
X141.0Y-117.5
X141.25Y-68.5
X141.25Y-100.5
X141.9Y-108.75
X141.9Y-110.75
X142.5Y-83.5
X142.5Y-117.41
X142.75Y-72.25
X143.5Y-94.0
X143.5Y-114.75
X143.5Y-117.5
X143.5Y-136.5
X143.75Y-90.0
X144.0Y-79.5
X144.0Y-134.0
X144.25Y-96.5
X144.25Y-100.25
X144.25Y-102.0
X144.25Y-132.25
X144.25Y-140.5
X144.5Y-122.0
X144.5Y-144.1
X144.75Y-117.41
X145.25Y-80.0
X145.25Y-125.5
X145.25Y-129.0
X145.25Y-137.0
X145.5Y-87.25
X145.75Y-74.75
X146.0Y-67.25
X146.0Y-114.75
X146.25Y-72.0
X146.25Y-80.0
X146.25Y-90.0
X146.25Y-91.25
X146.25Y-108.25
X146.25Y-111.0
X146.5Y-96.75
X146.75Y-94.0
X146.75Y-104.1
X147.47Y-108.5
X147.47Y-114.53
X147.5Y-85.0
X147.85Y-86.0
X148.0Y-139.0
X148.25Y-137.0
X148.75Y-107.25
X148.75Y-111.0
X148.75Y-140.5
X149.5Y-83.5
X149.7Y-122.25
X149.75Y-75.0
X149.75Y-78.5
X150.0Y-61.75
X150.0Y-125.75
X150.0Y-130.5
X150.5Y-122.25
X151.234Y-126.234
X151.25Y-130.75
X151.25Y-134.0
X151.4Y-129.92
X151.75Y-84.0
X152.5Y-114.25
X152.75Y-72.5
X152.75Y-137.5
X152.75Y-141.0
X153.5Y-90.75
X153.5Y-97.25
X153.5Y-143.52
X153.605Y-98.559
X153.75Y-107.25
X153.75Y-111.0
X154.0Y-94.25
X154.012Y-97.865
X154.25Y-99.065
X154.25Y-128.5
X154.25Y-131.0
X154.5Y-126.25
X154.7Y-119.85
X155.25Y-76.5
X155.25Y-102.0
X155.25Y-103.75
X155.5Y-80.0
X155.5Y-114.75
X155.5Y-130.5
X156.15Y-118.25
X156.25Y-135.5
X156.25Y-138.0
X156.5Y-108.0
X156.5Y-110.25
X157.435Y-118.065
X157.5Y-75.75
X157.5Y-98.25
X157.5Y-101.25
X158.035Y-114.5
X159.0Y-79.5
X159.0Y-107.0
X159.0Y-109.0
X159.0Y-111.25
X159.0Y-117.0
X159.25Y-122.0
X159.75Y-72.75
X159.75Y-86.25
X159.75Y-90.25
X160.5Y-78.5
X160.5Y-98.5
X160.5Y-101.5
X160.75Y-116.75
X161.0Y-75.5
X161.0Y-104.0
X161.0Y-107.5
X161.0Y-109.25
X161.0Y-111.0
X161.0Y-114.5
X161.0Y-135.25
X161.25Y-123.5
X161.25Y-132.5
X161.25Y-141.25
X161.25Y-147.75
X162.0Y-65.0
X162.75Y-135.0
X163.009Y-89.006
X163.25Y-77.5
X163.5Y-90.0
X164.25Y-67.0
X164.5Y-127.0
X164.75Y-140.75
X165.0Y-84.0
X165.0Y-94.0
X165.5Y-145.5
X167.25Y-99.75
X167.5Y-145.5
X167.75Y-104.75
X167.75Y-120.5
X167.75Y-122.25
X168.0Y-78.5
X168.0Y-84.75
X168.5Y-89.75
X168.5Y-94.25
X168.5Y-140.75
X169.0Y-115.25
X169.25Y-126.75
X169.5Y-134.75
X169.75Y-102.5
X171.75Y-88.0
X172.0Y-121.5
X172.25Y-94.25
X172.5Y-141.5
X172.5Y-146.5
X172.75Y-109.5
X173.0Y-102.5
X173.25Y-73.75
X173.5Y-126.75
X173.75Y-131.0
X174.0Y-144.75
X174.25Y-134.75
X175.25Y-94.0
X176.5Y-148.5
X177.0Y-141.0
X177.75Y-102.75
X178.25Y-94.25
X179.0Y-145.25
T4
X123.96Y-81.0
X125.23Y-81.0
X126.5Y-81.0
X140.73Y-64.86
X142.0Y-64.86
X143.27Y-64.86
X148.73Y-80.5
X150.0Y-80.5
X151.27Y-80.5
X156.73Y-65.0
X158.0Y-65.0
X159.27Y-65.0
X173.46Y-81.0
X174.73Y-81.0
X176.0Y-81.0
T5
X129.0Y-86.0
X129.0Y-91.0
X133.964Y-76.536
X134.5Y-86.0
X134.5Y-91.0
X137.5Y-73.0
X137.854Y-80.425
X141.389Y-76.889
X146.22Y-100.875
X147.5Y-69.5
X147.5Y-75.0
X148.76Y-100.875
X151.3Y-100.875
X152.5Y-69.5
X152.5Y-75.0
X153.84Y-100.875
X158.686Y-76.778
X162.222Y-80.314
X162.575Y-72.889
X165.5Y-86.0
X165.5Y-91.0
X166.111Y-76.425
X171.0Y-86.0
X171.0Y-91.0
T6
X141.095Y-105.3
X141.095Y-112.92
X143.635Y-105.3
X143.635Y-112.92
X146.175Y-105.3
X146.175Y-112.92
X148.715Y-105.3
X148.715Y-112.92
X151.255Y-105.3
X151.255Y-112.92
X153.795Y-105.3
X153.795Y-112.92
X156.335Y-105.3
X156.335Y-112.92
X158.875Y-105.3
X158.875Y-112.92
T7
X147.485Y-135.01
X147.735Y-133.26
X148.0Y-117.96
X148.0Y-120.5
X149.235Y-134.76
X149.485Y-133.01
X152.65Y-117.96
X152.65Y-120.5
X162.275Y-138.1
X164.815Y-138.1
X167.355Y-138.1
X169.895Y-138.1
X172.435Y-138.1
T8
X123.5Y-86.0
X123.5Y-91.0
X130.075Y-72.646
X133.611Y-69.111
X147.5Y-64.0
X152.5Y-64.0
X166.464Y-69.0
X170.0Y-72.536
X176.5Y-86.0
X176.5Y-91.0
T2
X164.09Y-144.205G85X164.09Y-143.805
G05
X168.93Y-144.205G85X168.93Y-143.805
G05
T3
X163.78Y-147.255G85X163.78Y-146.755
G05
X169.24Y-147.255G85X169.24Y-146.755
G05
M30
