G04 #@! TF.GenerationSoftware,KiCad,Pcbnew,8.0.6-8.0.6-0~ubuntu24.04.1*
G04 #@! TF.CreationDate,2024-10-30T09:28:35+01:00*
G04 #@! TF.ProjectId,micromouse_pcb,6d696372-6f6d-46f7-9573-655f7063622e,rev?*
G04 #@! TF.SameCoordinates,Original*
G04 #@! TF.FileFunction,Paste,Top*
G04 #@! TF.FilePolarity,Positive*
%FSLAX46Y46*%
G04 Gerber Fmt 4.6, Leading zero omitted, Abs format (unit mm)*
G04 Created by KiCad (PCBNEW 8.0.6-8.0.6-0~ubuntu24.04.1) date 2024-10-30 09:28:35*
%MOMM*%
%LPD*%
G01*
G04 APERTURE LIST*
G04 Aperture macros list*
%AMRoundRect*
0 Rectangle with rounded corners*
0 $1 Rounding radius*
0 $2 $3 $4 $5 $6 $7 $8 $9 X,Y pos of 4 corners*
0 Add a 4 corners polygon primitive as box body*
4,1,4,$2,$3,$4,$5,$6,$7,$8,$9,$2,$3,0*
0 Add four circle primitives for the rounded corners*
1,1,$1+$1,$2,$3*
1,1,$1+$1,$4,$5*
1,1,$1+$1,$6,$7*
1,1,$1+$1,$8,$9*
0 Add four rect primitives between the rounded corners*
20,1,$1+$1,$2,$3,$4,$5,0*
20,1,$1+$1,$4,$5,$6,$7,0*
20,1,$1+$1,$6,$7,$8,$9,0*
20,1,$1+$1,$8,$9,$2,$3,0*%
G04 Aperture macros list end*
%ADD10RoundRect,0.384616X-0.615384X0.615384X-0.615384X-0.615384X0.615384X-0.615384X0.615384X0.615384X0*%
%ADD11RoundRect,0.384616X0.615384X-0.615384X0.615384X0.615384X-0.615384X0.615384X-0.615384X-0.615384X0*%
%ADD12RoundRect,0.384616X-0.615384X-0.615384X0.615384X-0.615384X0.615384X0.615384X-0.615384X0.615384X0*%
%ADD13RoundRect,0.384616X0.615384X0.615384X-0.615384X0.615384X-0.615384X-0.615384X0.615384X-0.615384X0*%
%ADD14R,0.400000X1.650000*%
%ADD15R,1.825000X0.700000*%
%ADD16R,2.000000X1.500000*%
%ADD17R,1.350000X2.000000*%
%ADD18R,1.430000X2.500000*%
%ADD19R,1.700000X3.000000*%
G04 APERTURE END LIST*
D10*
X130500000Y-97400000D03*
X130500000Y-101000000D03*
D11*
X177000000Y-146600000D03*
X177000000Y-143000000D03*
D12*
X148200000Y-92000000D03*
X151800000Y-92000000D03*
X154200000Y-85000000D03*
X157800000Y-85000000D03*
D10*
X122500000Y-97400000D03*
X122500000Y-101000000D03*
D13*
X145800000Y-82000000D03*
X142200000Y-82000000D03*
D14*
X165210000Y-144125000D03*
X165860000Y-144125000D03*
X166510000Y-144125000D03*
X167160000Y-144125000D03*
X167810000Y-144125000D03*
D15*
X163560000Y-145325000D03*
D16*
X163660000Y-144025000D03*
D17*
X163780000Y-146075000D03*
D18*
X165550000Y-147275000D03*
X167470000Y-147275000D03*
D17*
X169260000Y-146075000D03*
D16*
X169410000Y-144005000D03*
D15*
X169510000Y-145325000D03*
D13*
X157800000Y-82000000D03*
X154200000Y-82000000D03*
D11*
X173500000Y-100000000D03*
X173500000Y-96400000D03*
X177500000Y-100000000D03*
X177500000Y-96400000D03*
X169500000Y-100000000D03*
X169500000Y-96400000D03*
X177000000Y-138600000D03*
X177000000Y-135000000D03*
X142500000Y-131275000D03*
X142500000Y-127675000D03*
D12*
X142200000Y-85000000D03*
X145800000Y-85000000D03*
D11*
X157500000Y-131100000D03*
X157500000Y-127500000D03*
D13*
X151800000Y-89000000D03*
X148200000Y-89000000D03*
X161600000Y-89000000D03*
X158000000Y-89000000D03*
D10*
X126500000Y-97400000D03*
X126500000Y-101000000D03*
D19*
X150490000Y-140050000D03*
X150490000Y-147550000D03*
X154990000Y-140050000D03*
X154990000Y-147550000D03*
D12*
X158000000Y-92000000D03*
X161600000Y-92000000D03*
D19*
X133490000Y-140000000D03*
X133490000Y-147500000D03*
X137990000Y-140000000D03*
X137990000Y-147500000D03*
D12*
X138500000Y-92000000D03*
X142100000Y-92000000D03*
D19*
X141990000Y-140050000D03*
X141990000Y-147550000D03*
X146490000Y-140050000D03*
X146490000Y-147550000D03*
D11*
X122000000Y-145000000D03*
X122000000Y-141400000D03*
D13*
X142100000Y-89000000D03*
X138500000Y-89000000D03*
D19*
X124990000Y-140000000D03*
X124990000Y-147500000D03*
X129490000Y-140000000D03*
X129490000Y-147500000D03*
M02*
