G04 #@! TF.GenerationSoftware,KiCad,Pcbnew,8.0.6-8.0.6-0~ubuntu24.04.1*
G04 #@! TF.CreationDate,2024-10-30T09:28:35+01:00*
G04 #@! TF.ProjectId,micromouse_pcb,6d696372-6f6d-46f7-9573-655f7063622e,rev?*
G04 #@! TF.SameCoordinates,Original*
G04 #@! TF.FileFunction,Legend,Top*
G04 #@! TF.FilePolarity,Positive*
%FSLAX46Y46*%
G04 Gerber Fmt 4.6, Leading zero omitted, Abs format (unit mm)*
G04 Created by KiCad (PCBNEW 8.0.6-8.0.6-0~ubuntu24.04.1) date 2024-10-30 09:28:35*
%MOMM*%
%LPD*%
G01*
G04 APERTURE LIST*
G04 Aperture macros list*
%AMRoundRect*
0 Rectangle with rounded corners*
0 $1 Rounding radius*
0 $2 $3 $4 $5 $6 $7 $8 $9 X,Y pos of 4 corners*
0 Add a 4 corners polygon primitive as box body*
4,1,4,$2,$3,$4,$5,$6,$7,$8,$9,$2,$3,0*
0 Add four circle primitives for the rounded corners*
1,1,$1+$1,$2,$3*
1,1,$1+$1,$4,$5*
1,1,$1+$1,$6,$7*
1,1,$1+$1,$8,$9*
0 Add four rect primitives between the rounded corners*
20,1,$1+$1,$2,$3,$4,$5,0*
20,1,$1+$1,$4,$5,$6,$7,0*
20,1,$1+$1,$6,$7,$8,$9,0*
20,1,$1+$1,$8,$9,$2,$3,0*%
G04 Aperture macros list end*
%ADD10C,0.100000*%
%ADD11C,0.150000*%
%ADD12C,0.120000*%
%ADD13RoundRect,0.125000X0.125000X-0.375000X0.125000X0.375000X-0.125000X0.375000X-0.125000X-0.375000X0*%
%ADD14C,1.524000*%
%ADD15C,2.500000*%
%ADD16RoundRect,0.384616X-0.615384X0.615384X-0.615384X-0.615384X0.615384X-0.615384X0.615384X0.615384X0*%
%ADD17RoundRect,0.384616X0.615384X-0.615384X0.615384X0.615384X-0.615384X0.615384X-0.615384X-0.615384X0*%
%ADD18RoundRect,0.384616X-0.615384X-0.615384X0.615384X-0.615384X0.615384X0.615384X-0.615384X0.615384X0*%
%ADD19R,1.050000X1.500000*%
%ADD20O,1.050000X1.500000*%
%ADD21C,3.200000*%
%ADD22O,1.524000X2.000000*%
%ADD23RoundRect,0.384616X0.615384X0.615384X-0.615384X0.615384X-0.615384X-0.615384X0.615384X-0.615384X0*%
%ADD24R,1.600000X1.600000*%
%ADD25O,1.600000X1.600000*%
%ADD26R,0.400000X1.650000*%
%ADD27R,1.825000X0.700000*%
%ADD28R,2.000000X1.500000*%
%ADD29R,1.350000X2.000000*%
%ADD30O,1.350000X1.700000*%
%ADD31O,1.100000X1.500000*%
%ADD32R,1.430000X2.500000*%
%ADD33R,1.700000X2.200000*%
%ADD34O,1.700000X2.200000*%
%ADD35O,1.700000X1.700000*%
%ADD36R,1.700000X1.700000*%
%ADD37R,1.700000X3.000000*%
G04 APERTURE END LIST*
D10*
X152491466Y-126996115D02*
X152491466Y-126234211D01*
X152872419Y-126615163D02*
X152110514Y-126615163D01*
X164523810Y-93457419D02*
X164523810Y-92457419D01*
X165571428Y-93457419D02*
X165238095Y-92981228D01*
X165000000Y-93457419D02*
X165000000Y-92457419D01*
X165000000Y-92457419D02*
X165380952Y-92457419D01*
X165380952Y-92457419D02*
X165476190Y-92505038D01*
X165476190Y-92505038D02*
X165523809Y-92552657D01*
X165523809Y-92552657D02*
X165571428Y-92647895D01*
X165571428Y-92647895D02*
X165571428Y-92790752D01*
X165571428Y-92790752D02*
X165523809Y-92885990D01*
X165523809Y-92885990D02*
X165476190Y-92933609D01*
X165476190Y-92933609D02*
X165380952Y-92981228D01*
X165380952Y-92981228D02*
X165000000Y-92981228D01*
X166476190Y-92457419D02*
X166000000Y-92457419D01*
X166000000Y-92457419D02*
X165952381Y-92933609D01*
X165952381Y-92933609D02*
X166000000Y-92885990D01*
X166000000Y-92885990D02*
X166095238Y-92838371D01*
X166095238Y-92838371D02*
X166333333Y-92838371D01*
X166333333Y-92838371D02*
X166428571Y-92885990D01*
X166428571Y-92885990D02*
X166476190Y-92933609D01*
X166476190Y-92933609D02*
X166523809Y-93028847D01*
X166523809Y-93028847D02*
X166523809Y-93266942D01*
X166523809Y-93266942D02*
X166476190Y-93362180D01*
X166476190Y-93362180D02*
X166428571Y-93409800D01*
X166428571Y-93409800D02*
X166333333Y-93457419D01*
X166333333Y-93457419D02*
X166095238Y-93457419D01*
X166095238Y-93457419D02*
X166000000Y-93409800D01*
X166000000Y-93409800D02*
X165952381Y-93362180D01*
X164838972Y-88627580D02*
X164267544Y-88627580D01*
X164553258Y-87627580D02*
X164553258Y-88627580D01*
X169624687Y-87627580D02*
X169958020Y-88103771D01*
X170196115Y-87627580D02*
X170196115Y-88627580D01*
X170196115Y-88627580D02*
X169815163Y-88627580D01*
X169815163Y-88627580D02*
X169719925Y-88579961D01*
X169719925Y-88579961D02*
X169672306Y-88532342D01*
X169672306Y-88532342D02*
X169624687Y-88437104D01*
X169624687Y-88437104D02*
X169624687Y-88294247D01*
X169624687Y-88294247D02*
X169672306Y-88199009D01*
X169672306Y-88199009D02*
X169719925Y-88151390D01*
X169719925Y-88151390D02*
X169815163Y-88103771D01*
X169815163Y-88103771D02*
X170196115Y-88103771D01*
X133523810Y-93357419D02*
X133523810Y-92357419D01*
X134571428Y-93357419D02*
X134238095Y-92881228D01*
X134000000Y-93357419D02*
X134000000Y-92357419D01*
X134000000Y-92357419D02*
X134380952Y-92357419D01*
X134380952Y-92357419D02*
X134476190Y-92405038D01*
X134476190Y-92405038D02*
X134523809Y-92452657D01*
X134523809Y-92452657D02*
X134571428Y-92547895D01*
X134571428Y-92547895D02*
X134571428Y-92690752D01*
X134571428Y-92690752D02*
X134523809Y-92785990D01*
X134523809Y-92785990D02*
X134476190Y-92833609D01*
X134476190Y-92833609D02*
X134380952Y-92881228D01*
X134380952Y-92881228D02*
X134000000Y-92881228D01*
X135523809Y-93357419D02*
X134952381Y-93357419D01*
X135238095Y-93357419D02*
X135238095Y-92357419D01*
X135238095Y-92357419D02*
X135142857Y-92500276D01*
X135142857Y-92500276D02*
X135047619Y-92595514D01*
X135047619Y-92595514D02*
X134952381Y-92643133D01*
X135161027Y-88372419D02*
X135732455Y-88372419D01*
X135446741Y-89372419D02*
X135446741Y-88372419D01*
X130375312Y-89372419D02*
X130041979Y-88896228D01*
X129803884Y-89372419D02*
X129803884Y-88372419D01*
X129803884Y-88372419D02*
X130184836Y-88372419D01*
X130184836Y-88372419D02*
X130280074Y-88420038D01*
X130280074Y-88420038D02*
X130327693Y-88467657D01*
X130327693Y-88467657D02*
X130375312Y-88562895D01*
X130375312Y-88562895D02*
X130375312Y-88705752D01*
X130375312Y-88705752D02*
X130327693Y-88800990D01*
X130327693Y-88800990D02*
X130280074Y-88848609D01*
X130280074Y-88848609D02*
X130184836Y-88896228D01*
X130184836Y-88896228D02*
X129803884Y-88896228D01*
X147491466Y-126996115D02*
X147491466Y-126234211D01*
X147872419Y-126615163D02*
X147110514Y-126615163D01*
X148041428Y-107832419D02*
X148041428Y-106832419D01*
X148041428Y-106832419D02*
X148279523Y-106832419D01*
X148279523Y-106832419D02*
X148422380Y-106880038D01*
X148422380Y-106880038D02*
X148517618Y-106975276D01*
X148517618Y-106975276D02*
X148565237Y-107070514D01*
X148565237Y-107070514D02*
X148612856Y-107260990D01*
X148612856Y-107260990D02*
X148612856Y-107403847D01*
X148612856Y-107403847D02*
X148565237Y-107594323D01*
X148565237Y-107594323D02*
X148517618Y-107689561D01*
X148517618Y-107689561D02*
X148422380Y-107784800D01*
X148422380Y-107784800D02*
X148279523Y-107832419D01*
X148279523Y-107832419D02*
X148041428Y-107832419D01*
X149041428Y-107832419D02*
X149041428Y-107165752D01*
X149041428Y-106832419D02*
X148993809Y-106880038D01*
X148993809Y-106880038D02*
X149041428Y-106927657D01*
X149041428Y-106927657D02*
X149089047Y-106880038D01*
X149089047Y-106880038D02*
X149041428Y-106832419D01*
X149041428Y-106832419D02*
X149041428Y-106927657D01*
X149469999Y-107784800D02*
X149565237Y-107832419D01*
X149565237Y-107832419D02*
X149755713Y-107832419D01*
X149755713Y-107832419D02*
X149850951Y-107784800D01*
X149850951Y-107784800D02*
X149898570Y-107689561D01*
X149898570Y-107689561D02*
X149898570Y-107641942D01*
X149898570Y-107641942D02*
X149850951Y-107546704D01*
X149850951Y-107546704D02*
X149755713Y-107499085D01*
X149755713Y-107499085D02*
X149612856Y-107499085D01*
X149612856Y-107499085D02*
X149517618Y-107451466D01*
X149517618Y-107451466D02*
X149469999Y-107356228D01*
X149469999Y-107356228D02*
X149469999Y-107308609D01*
X149469999Y-107308609D02*
X149517618Y-107213371D01*
X149517618Y-107213371D02*
X149612856Y-107165752D01*
X149612856Y-107165752D02*
X149755713Y-107165752D01*
X149755713Y-107165752D02*
X149850951Y-107213371D01*
X150327142Y-107165752D02*
X150327142Y-108165752D01*
X150327142Y-107213371D02*
X150422380Y-107165752D01*
X150422380Y-107165752D02*
X150612856Y-107165752D01*
X150612856Y-107165752D02*
X150708094Y-107213371D01*
X150708094Y-107213371D02*
X150755713Y-107260990D01*
X150755713Y-107260990D02*
X150803332Y-107356228D01*
X150803332Y-107356228D02*
X150803332Y-107641942D01*
X150803332Y-107641942D02*
X150755713Y-107737180D01*
X150755713Y-107737180D02*
X150708094Y-107784800D01*
X150708094Y-107784800D02*
X150612856Y-107832419D01*
X150612856Y-107832419D02*
X150422380Y-107832419D01*
X150422380Y-107832419D02*
X150327142Y-107784800D01*
X151374761Y-107832419D02*
X151279523Y-107784800D01*
X151279523Y-107784800D02*
X151231904Y-107689561D01*
X151231904Y-107689561D02*
X151231904Y-106832419D01*
X152184285Y-107832419D02*
X152184285Y-107308609D01*
X152184285Y-107308609D02*
X152136666Y-107213371D01*
X152136666Y-107213371D02*
X152041428Y-107165752D01*
X152041428Y-107165752D02*
X151850952Y-107165752D01*
X151850952Y-107165752D02*
X151755714Y-107213371D01*
X152184285Y-107784800D02*
X152089047Y-107832419D01*
X152089047Y-107832419D02*
X151850952Y-107832419D01*
X151850952Y-107832419D02*
X151755714Y-107784800D01*
X151755714Y-107784800D02*
X151708095Y-107689561D01*
X151708095Y-107689561D02*
X151708095Y-107594323D01*
X151708095Y-107594323D02*
X151755714Y-107499085D01*
X151755714Y-107499085D02*
X151850952Y-107451466D01*
X151850952Y-107451466D02*
X152089047Y-107451466D01*
X152089047Y-107451466D02*
X152184285Y-107403847D01*
X152565238Y-107165752D02*
X152803333Y-107832419D01*
X153041428Y-107165752D02*
X152803333Y-107832419D01*
X152803333Y-107832419D02*
X152708095Y-108070514D01*
X152708095Y-108070514D02*
X152660476Y-108118133D01*
X152660476Y-108118133D02*
X152565238Y-108165752D01*
X153946190Y-107832419D02*
X153374762Y-107832419D01*
X153660476Y-107832419D02*
X153660476Y-106832419D01*
X153660476Y-106832419D02*
X153565238Y-106975276D01*
X153565238Y-106975276D02*
X153470000Y-107070514D01*
X153470000Y-107070514D02*
X153374762Y-107118133D01*
X145232455Y-102205752D02*
X145232455Y-103015276D01*
X145232455Y-103015276D02*
X145184836Y-103110514D01*
X145184836Y-103110514D02*
X145137217Y-103158133D01*
X145137217Y-103158133D02*
X145041979Y-103205752D01*
X145041979Y-103205752D02*
X144899122Y-103205752D01*
X144899122Y-103205752D02*
X144803884Y-103158133D01*
X145232455Y-102824800D02*
X145137217Y-102872419D01*
X145137217Y-102872419D02*
X144946741Y-102872419D01*
X144946741Y-102872419D02*
X144851503Y-102824800D01*
X144851503Y-102824800D02*
X144803884Y-102777180D01*
X144803884Y-102777180D02*
X144756265Y-102681942D01*
X144756265Y-102681942D02*
X144756265Y-102396228D01*
X144756265Y-102396228D02*
X144803884Y-102300990D01*
X144803884Y-102300990D02*
X144851503Y-102253371D01*
X144851503Y-102253371D02*
X144946741Y-102205752D01*
X144946741Y-102205752D02*
X145137217Y-102205752D01*
X145137217Y-102205752D02*
X145232455Y-102253371D01*
X145708646Y-102205752D02*
X145708646Y-102872419D01*
X145708646Y-102300990D02*
X145756265Y-102253371D01*
X145756265Y-102253371D02*
X145851503Y-102205752D01*
X145851503Y-102205752D02*
X145994360Y-102205752D01*
X145994360Y-102205752D02*
X146089598Y-102253371D01*
X146089598Y-102253371D02*
X146137217Y-102348609D01*
X146137217Y-102348609D02*
X146137217Y-102872419D01*
X147041979Y-102872419D02*
X147041979Y-101872419D01*
X147041979Y-102824800D02*
X146946741Y-102872419D01*
X146946741Y-102872419D02*
X146756265Y-102872419D01*
X146756265Y-102872419D02*
X146661027Y-102824800D01*
X146661027Y-102824800D02*
X146613408Y-102777180D01*
X146613408Y-102777180D02*
X146565789Y-102681942D01*
X146565789Y-102681942D02*
X146565789Y-102396228D01*
X146565789Y-102396228D02*
X146613408Y-102300990D01*
X146613408Y-102300990D02*
X146661027Y-102253371D01*
X146661027Y-102253371D02*
X146756265Y-102205752D01*
X146756265Y-102205752D02*
X146946741Y-102205752D01*
X146946741Y-102205752D02*
X147041979Y-102253371D01*
X147708646Y-101872419D02*
X148327693Y-101872419D01*
X148327693Y-101872419D02*
X147994360Y-102253371D01*
X147994360Y-102253371D02*
X148137217Y-102253371D01*
X148137217Y-102253371D02*
X148232455Y-102300990D01*
X148232455Y-102300990D02*
X148280074Y-102348609D01*
X148280074Y-102348609D02*
X148327693Y-102443847D01*
X148327693Y-102443847D02*
X148327693Y-102681942D01*
X148327693Y-102681942D02*
X148280074Y-102777180D01*
X148280074Y-102777180D02*
X148232455Y-102824800D01*
X148232455Y-102824800D02*
X148137217Y-102872419D01*
X148137217Y-102872419D02*
X147851503Y-102872419D01*
X147851503Y-102872419D02*
X147756265Y-102824800D01*
X147756265Y-102824800D02*
X147708646Y-102777180D01*
X148756265Y-102777180D02*
X148803884Y-102824800D01*
X148803884Y-102824800D02*
X148756265Y-102872419D01*
X148756265Y-102872419D02*
X148708646Y-102824800D01*
X148708646Y-102824800D02*
X148756265Y-102777180D01*
X148756265Y-102777180D02*
X148756265Y-102872419D01*
X149137217Y-101872419D02*
X149756264Y-101872419D01*
X149756264Y-101872419D02*
X149422931Y-102253371D01*
X149422931Y-102253371D02*
X149565788Y-102253371D01*
X149565788Y-102253371D02*
X149661026Y-102300990D01*
X149661026Y-102300990D02*
X149708645Y-102348609D01*
X149708645Y-102348609D02*
X149756264Y-102443847D01*
X149756264Y-102443847D02*
X149756264Y-102681942D01*
X149756264Y-102681942D02*
X149708645Y-102777180D01*
X149708645Y-102777180D02*
X149661026Y-102824800D01*
X149661026Y-102824800D02*
X149565788Y-102872419D01*
X149565788Y-102872419D02*
X149280074Y-102872419D01*
X149280074Y-102872419D02*
X149184836Y-102824800D01*
X149184836Y-102824800D02*
X149137217Y-102777180D01*
X150089598Y-102205752D02*
X150327693Y-102872419D01*
X150327693Y-102872419D02*
X150565788Y-102205752D01*
X149023810Y-77457419D02*
X149023810Y-76457419D01*
X150071428Y-77457419D02*
X149738095Y-76981228D01*
X149500000Y-77457419D02*
X149500000Y-76457419D01*
X149500000Y-76457419D02*
X149880952Y-76457419D01*
X149880952Y-76457419D02*
X149976190Y-76505038D01*
X149976190Y-76505038D02*
X150023809Y-76552657D01*
X150023809Y-76552657D02*
X150071428Y-76647895D01*
X150071428Y-76647895D02*
X150071428Y-76790752D01*
X150071428Y-76790752D02*
X150023809Y-76885990D01*
X150023809Y-76885990D02*
X149976190Y-76933609D01*
X149976190Y-76933609D02*
X149880952Y-76981228D01*
X149880952Y-76981228D02*
X149500000Y-76981228D01*
X150404762Y-76457419D02*
X151023809Y-76457419D01*
X151023809Y-76457419D02*
X150690476Y-76838371D01*
X150690476Y-76838371D02*
X150833333Y-76838371D01*
X150833333Y-76838371D02*
X150928571Y-76885990D01*
X150928571Y-76885990D02*
X150976190Y-76933609D01*
X150976190Y-76933609D02*
X151023809Y-77028847D01*
X151023809Y-77028847D02*
X151023809Y-77266942D01*
X151023809Y-77266942D02*
X150976190Y-77362180D01*
X150976190Y-77362180D02*
X150928571Y-77409800D01*
X150928571Y-77409800D02*
X150833333Y-77457419D01*
X150833333Y-77457419D02*
X150547619Y-77457419D01*
X150547619Y-77457419D02*
X150452381Y-77409800D01*
X150452381Y-77409800D02*
X150404762Y-77362180D01*
X149127580Y-70875312D02*
X149603771Y-70541979D01*
X149127580Y-70303884D02*
X150127580Y-70303884D01*
X150127580Y-70303884D02*
X150127580Y-70684836D01*
X150127580Y-70684836D02*
X150079961Y-70780074D01*
X150079961Y-70780074D02*
X150032342Y-70827693D01*
X150032342Y-70827693D02*
X149937104Y-70875312D01*
X149937104Y-70875312D02*
X149794247Y-70875312D01*
X149794247Y-70875312D02*
X149699009Y-70827693D01*
X149699009Y-70827693D02*
X149651390Y-70780074D01*
X149651390Y-70780074D02*
X149603771Y-70684836D01*
X149603771Y-70684836D02*
X149603771Y-70303884D01*
X150127580Y-74661027D02*
X150127580Y-75232455D01*
X149127580Y-74946741D02*
X150127580Y-74946741D01*
X163133173Y-82513714D02*
X162426066Y-81806607D01*
X163873951Y-81772936D02*
X163301532Y-81671921D01*
X163469890Y-82176997D02*
X162762784Y-81469890D01*
X162762784Y-81469890D02*
X163032158Y-81200516D01*
X163032158Y-81200516D02*
X163133173Y-81166844D01*
X163133173Y-81166844D02*
X163200516Y-81166844D01*
X163200516Y-81166844D02*
X163301532Y-81200516D01*
X163301532Y-81200516D02*
X163402547Y-81301531D01*
X163402547Y-81301531D02*
X163436219Y-81402547D01*
X163436219Y-81402547D02*
X163436219Y-81469890D01*
X163436219Y-81469890D02*
X163402547Y-81570905D01*
X163402547Y-81570905D02*
X163133173Y-81840279D01*
X164008638Y-80695440D02*
X164480043Y-81166844D01*
X163570906Y-80594425D02*
X163907623Y-81267860D01*
X163907623Y-81267860D02*
X164345356Y-80830127D01*
X162753758Y-75012452D02*
X163326178Y-75113468D01*
X163157819Y-74608391D02*
X163864926Y-75315498D01*
X163864926Y-75315498D02*
X163595552Y-75584872D01*
X163595552Y-75584872D02*
X163494537Y-75618544D01*
X163494537Y-75618544D02*
X163427193Y-75618544D01*
X163427193Y-75618544D02*
X163326178Y-75584872D01*
X163326178Y-75584872D02*
X163225163Y-75483857D01*
X163225163Y-75483857D02*
X163191491Y-75382842D01*
X163191491Y-75382842D02*
X163191491Y-75315498D01*
X163191491Y-75315498D02*
X163225163Y-75214483D01*
X163225163Y-75214483D02*
X163494537Y-74945109D01*
X160076855Y-79103570D02*
X159672794Y-79507631D01*
X159167718Y-78598494D02*
X159874825Y-79305600D01*
D11*
X160659819Y-109871904D02*
X161469342Y-109871904D01*
X161469342Y-109871904D02*
X161564580Y-109824285D01*
X161564580Y-109824285D02*
X161612200Y-109776666D01*
X161612200Y-109776666D02*
X161659819Y-109681428D01*
X161659819Y-109681428D02*
X161659819Y-109490952D01*
X161659819Y-109490952D02*
X161612200Y-109395714D01*
X161612200Y-109395714D02*
X161564580Y-109348095D01*
X161564580Y-109348095D02*
X161469342Y-109300476D01*
X161469342Y-109300476D02*
X160659819Y-109300476D01*
X160659819Y-108919523D02*
X160659819Y-108300476D01*
X160659819Y-108300476D02*
X161040771Y-108633809D01*
X161040771Y-108633809D02*
X161040771Y-108490952D01*
X161040771Y-108490952D02*
X161088390Y-108395714D01*
X161088390Y-108395714D02*
X161136009Y-108348095D01*
X161136009Y-108348095D02*
X161231247Y-108300476D01*
X161231247Y-108300476D02*
X161469342Y-108300476D01*
X161469342Y-108300476D02*
X161564580Y-108348095D01*
X161564580Y-108348095D02*
X161612200Y-108395714D01*
X161612200Y-108395714D02*
X161659819Y-108490952D01*
X161659819Y-108490952D02*
X161659819Y-108776666D01*
X161659819Y-108776666D02*
X161612200Y-108871904D01*
X161612200Y-108871904D02*
X161564580Y-108919523D01*
D10*
X120991466Y-136996115D02*
X120991466Y-136234211D01*
X121372419Y-136615163D02*
X120610514Y-136615163D01*
X120991466Y-132996115D02*
X120991466Y-132234211D01*
X121372419Y-132615163D02*
X120610514Y-132615163D01*
X165047419Y-142046115D02*
X164047419Y-142046115D01*
X164047419Y-142046115D02*
X164047419Y-141808020D01*
X164047419Y-141808020D02*
X164095038Y-141665163D01*
X164095038Y-141665163D02*
X164190276Y-141569925D01*
X164190276Y-141569925D02*
X164285514Y-141522306D01*
X164285514Y-141522306D02*
X164475990Y-141474687D01*
X164475990Y-141474687D02*
X164618847Y-141474687D01*
X164618847Y-141474687D02*
X164809323Y-141522306D01*
X164809323Y-141522306D02*
X164904561Y-141569925D01*
X164904561Y-141569925D02*
X164999800Y-141665163D01*
X164999800Y-141665163D02*
X165047419Y-141808020D01*
X165047419Y-141808020D02*
X165047419Y-142046115D01*
X164666466Y-141046115D02*
X164666466Y-140284211D01*
X171880752Y-142117544D02*
X172690276Y-142117544D01*
X172690276Y-142117544D02*
X172785514Y-142165163D01*
X172785514Y-142165163D02*
X172833133Y-142212782D01*
X172833133Y-142212782D02*
X172880752Y-142308020D01*
X172880752Y-142308020D02*
X172880752Y-142450877D01*
X172880752Y-142450877D02*
X172833133Y-142546115D01*
X172499800Y-142117544D02*
X172547419Y-142212782D01*
X172547419Y-142212782D02*
X172547419Y-142403258D01*
X172547419Y-142403258D02*
X172499800Y-142498496D01*
X172499800Y-142498496D02*
X172452180Y-142546115D01*
X172452180Y-142546115D02*
X172356942Y-142593734D01*
X172356942Y-142593734D02*
X172071228Y-142593734D01*
X172071228Y-142593734D02*
X171975990Y-142546115D01*
X171975990Y-142546115D02*
X171928371Y-142498496D01*
X171928371Y-142498496D02*
X171880752Y-142403258D01*
X171880752Y-142403258D02*
X171880752Y-142212782D01*
X171880752Y-142212782D02*
X171928371Y-142117544D01*
X171880752Y-141641353D02*
X172547419Y-141641353D01*
X171975990Y-141641353D02*
X171928371Y-141593734D01*
X171928371Y-141593734D02*
X171880752Y-141498496D01*
X171880752Y-141498496D02*
X171880752Y-141355639D01*
X171880752Y-141355639D02*
X171928371Y-141260401D01*
X171928371Y-141260401D02*
X172023609Y-141212782D01*
X172023609Y-141212782D02*
X172547419Y-141212782D01*
X172547419Y-140308020D02*
X171547419Y-140308020D01*
X172499800Y-140308020D02*
X172547419Y-140403258D01*
X172547419Y-140403258D02*
X172547419Y-140593734D01*
X172547419Y-140593734D02*
X172499800Y-140688972D01*
X172499800Y-140688972D02*
X172452180Y-140736591D01*
X172452180Y-140736591D02*
X172356942Y-140784210D01*
X172356942Y-140784210D02*
X172071228Y-140784210D01*
X172071228Y-140784210D02*
X171975990Y-140736591D01*
X171975990Y-140736591D02*
X171928371Y-140688972D01*
X171928371Y-140688972D02*
X171880752Y-140593734D01*
X171880752Y-140593734D02*
X171880752Y-140403258D01*
X171880752Y-140403258D02*
X171928371Y-140308020D01*
X167547419Y-142046115D02*
X166547419Y-142046115D01*
X166547419Y-142046115D02*
X166547419Y-141808020D01*
X166547419Y-141808020D02*
X166595038Y-141665163D01*
X166595038Y-141665163D02*
X166690276Y-141569925D01*
X166690276Y-141569925D02*
X166785514Y-141522306D01*
X166785514Y-141522306D02*
X166975990Y-141474687D01*
X166975990Y-141474687D02*
X167118847Y-141474687D01*
X167118847Y-141474687D02*
X167309323Y-141522306D01*
X167309323Y-141522306D02*
X167404561Y-141569925D01*
X167404561Y-141569925D02*
X167499800Y-141665163D01*
X167499800Y-141665163D02*
X167547419Y-141808020D01*
X167547419Y-141808020D02*
X167547419Y-142046115D01*
X167166466Y-141046115D02*
X167166466Y-140284211D01*
X167547419Y-140665163D02*
X166785514Y-140665163D01*
X161547419Y-141069925D02*
X161547419Y-141546115D01*
X161547419Y-141546115D02*
X162023609Y-141593734D01*
X162023609Y-141593734D02*
X161975990Y-141546115D01*
X161975990Y-141546115D02*
X161928371Y-141450877D01*
X161928371Y-141450877D02*
X161928371Y-141212782D01*
X161928371Y-141212782D02*
X161975990Y-141117544D01*
X161975990Y-141117544D02*
X162023609Y-141069925D01*
X162023609Y-141069925D02*
X162118847Y-141022306D01*
X162118847Y-141022306D02*
X162356942Y-141022306D01*
X162356942Y-141022306D02*
X162452180Y-141069925D01*
X162452180Y-141069925D02*
X162499800Y-141117544D01*
X162499800Y-141117544D02*
X162547419Y-141212782D01*
X162547419Y-141212782D02*
X162547419Y-141450877D01*
X162547419Y-141450877D02*
X162499800Y-141546115D01*
X162499800Y-141546115D02*
X162452180Y-141593734D01*
X161880752Y-140688972D02*
X162547419Y-140450877D01*
X162547419Y-140450877D02*
X161880752Y-140212782D01*
X170047419Y-141546115D02*
X169047419Y-141546115D01*
X170047419Y-141069925D02*
X169047419Y-141069925D01*
X169047419Y-141069925D02*
X169047419Y-140831830D01*
X169047419Y-140831830D02*
X169095038Y-140688973D01*
X169095038Y-140688973D02*
X169190276Y-140593735D01*
X169190276Y-140593735D02*
X169285514Y-140546116D01*
X169285514Y-140546116D02*
X169475990Y-140498497D01*
X169475990Y-140498497D02*
X169618847Y-140498497D01*
X169618847Y-140498497D02*
X169809323Y-140546116D01*
X169809323Y-140546116D02*
X169904561Y-140593735D01*
X169904561Y-140593735D02*
X169999800Y-140688973D01*
X169999800Y-140688973D02*
X170047419Y-140831830D01*
X170047419Y-140831830D02*
X170047419Y-141069925D01*
D11*
X145954819Y-121142857D02*
X144954819Y-121142857D01*
X144954819Y-121142857D02*
X145669104Y-120809524D01*
X145669104Y-120809524D02*
X144954819Y-120476191D01*
X144954819Y-120476191D02*
X145954819Y-120476191D01*
X145954819Y-119857143D02*
X145907200Y-119952381D01*
X145907200Y-119952381D02*
X145859580Y-120000000D01*
X145859580Y-120000000D02*
X145764342Y-120047619D01*
X145764342Y-120047619D02*
X145478628Y-120047619D01*
X145478628Y-120047619D02*
X145383390Y-120000000D01*
X145383390Y-120000000D02*
X145335771Y-119952381D01*
X145335771Y-119952381D02*
X145288152Y-119857143D01*
X145288152Y-119857143D02*
X145288152Y-119714286D01*
X145288152Y-119714286D02*
X145335771Y-119619048D01*
X145335771Y-119619048D02*
X145383390Y-119571429D01*
X145383390Y-119571429D02*
X145478628Y-119523810D01*
X145478628Y-119523810D02*
X145764342Y-119523810D01*
X145764342Y-119523810D02*
X145859580Y-119571429D01*
X145859580Y-119571429D02*
X145907200Y-119619048D01*
X145907200Y-119619048D02*
X145954819Y-119714286D01*
X145954819Y-119714286D02*
X145954819Y-119857143D01*
X145288152Y-119238095D02*
X145288152Y-118857143D01*
X144954819Y-119095238D02*
X145811961Y-119095238D01*
X145811961Y-119095238D02*
X145907200Y-119047619D01*
X145907200Y-119047619D02*
X145954819Y-118952381D01*
X145954819Y-118952381D02*
X145954819Y-118857143D01*
X145954819Y-118380952D02*
X145907200Y-118476190D01*
X145907200Y-118476190D02*
X145859580Y-118523809D01*
X145859580Y-118523809D02*
X145764342Y-118571428D01*
X145764342Y-118571428D02*
X145478628Y-118571428D01*
X145478628Y-118571428D02*
X145383390Y-118523809D01*
X145383390Y-118523809D02*
X145335771Y-118476190D01*
X145335771Y-118476190D02*
X145288152Y-118380952D01*
X145288152Y-118380952D02*
X145288152Y-118238095D01*
X145288152Y-118238095D02*
X145335771Y-118142857D01*
X145335771Y-118142857D02*
X145383390Y-118095238D01*
X145383390Y-118095238D02*
X145478628Y-118047619D01*
X145478628Y-118047619D02*
X145764342Y-118047619D01*
X145764342Y-118047619D02*
X145859580Y-118095238D01*
X145859580Y-118095238D02*
X145907200Y-118142857D01*
X145907200Y-118142857D02*
X145954819Y-118238095D01*
X145954819Y-118238095D02*
X145954819Y-118380952D01*
X145954819Y-117619047D02*
X145288152Y-117619047D01*
X145478628Y-117619047D02*
X145383390Y-117571428D01*
X145383390Y-117571428D02*
X145335771Y-117523809D01*
X145335771Y-117523809D02*
X145288152Y-117428571D01*
X145288152Y-117428571D02*
X145288152Y-117333333D01*
X146050057Y-117238095D02*
X146050057Y-116476190D01*
X145669104Y-116285713D02*
X145669104Y-115809523D01*
X145954819Y-116380951D02*
X144954819Y-116047618D01*
X144954819Y-116047618D02*
X145954819Y-115714285D01*
D10*
X151156667Y-137959800D02*
X151299524Y-138007419D01*
X151299524Y-138007419D02*
X151537619Y-138007419D01*
X151537619Y-138007419D02*
X151632857Y-137959800D01*
X151632857Y-137959800D02*
X151680476Y-137912180D01*
X151680476Y-137912180D02*
X151728095Y-137816942D01*
X151728095Y-137816942D02*
X151728095Y-137721704D01*
X151728095Y-137721704D02*
X151680476Y-137626466D01*
X151680476Y-137626466D02*
X151632857Y-137578847D01*
X151632857Y-137578847D02*
X151537619Y-137531228D01*
X151537619Y-137531228D02*
X151347143Y-137483609D01*
X151347143Y-137483609D02*
X151251905Y-137435990D01*
X151251905Y-137435990D02*
X151204286Y-137388371D01*
X151204286Y-137388371D02*
X151156667Y-137293133D01*
X151156667Y-137293133D02*
X151156667Y-137197895D01*
X151156667Y-137197895D02*
X151204286Y-137102657D01*
X151204286Y-137102657D02*
X151251905Y-137055038D01*
X151251905Y-137055038D02*
X151347143Y-137007419D01*
X151347143Y-137007419D02*
X151585238Y-137007419D01*
X151585238Y-137007419D02*
X151728095Y-137055038D01*
X152061429Y-137007419D02*
X152299524Y-138007419D01*
X152299524Y-138007419D02*
X152490000Y-137293133D01*
X152490000Y-137293133D02*
X152680476Y-138007419D01*
X152680476Y-138007419D02*
X152918572Y-137007419D01*
X153728095Y-137340752D02*
X153728095Y-138007419D01*
X153490000Y-136959800D02*
X153251905Y-137674085D01*
X153251905Y-137674085D02*
X153870952Y-137674085D01*
X134156667Y-137909800D02*
X134299524Y-137957419D01*
X134299524Y-137957419D02*
X134537619Y-137957419D01*
X134537619Y-137957419D02*
X134632857Y-137909800D01*
X134632857Y-137909800D02*
X134680476Y-137862180D01*
X134680476Y-137862180D02*
X134728095Y-137766942D01*
X134728095Y-137766942D02*
X134728095Y-137671704D01*
X134728095Y-137671704D02*
X134680476Y-137576466D01*
X134680476Y-137576466D02*
X134632857Y-137528847D01*
X134632857Y-137528847D02*
X134537619Y-137481228D01*
X134537619Y-137481228D02*
X134347143Y-137433609D01*
X134347143Y-137433609D02*
X134251905Y-137385990D01*
X134251905Y-137385990D02*
X134204286Y-137338371D01*
X134204286Y-137338371D02*
X134156667Y-137243133D01*
X134156667Y-137243133D02*
X134156667Y-137147895D01*
X134156667Y-137147895D02*
X134204286Y-137052657D01*
X134204286Y-137052657D02*
X134251905Y-137005038D01*
X134251905Y-137005038D02*
X134347143Y-136957419D01*
X134347143Y-136957419D02*
X134585238Y-136957419D01*
X134585238Y-136957419D02*
X134728095Y-137005038D01*
X135061429Y-136957419D02*
X135299524Y-137957419D01*
X135299524Y-137957419D02*
X135490000Y-137243133D01*
X135490000Y-137243133D02*
X135680476Y-137957419D01*
X135680476Y-137957419D02*
X135918572Y-136957419D01*
X136251905Y-137052657D02*
X136299524Y-137005038D01*
X136299524Y-137005038D02*
X136394762Y-136957419D01*
X136394762Y-136957419D02*
X136632857Y-136957419D01*
X136632857Y-136957419D02*
X136728095Y-137005038D01*
X136728095Y-137005038D02*
X136775714Y-137052657D01*
X136775714Y-137052657D02*
X136823333Y-137147895D01*
X136823333Y-137147895D02*
X136823333Y-137243133D01*
X136823333Y-137243133D02*
X136775714Y-137385990D01*
X136775714Y-137385990D02*
X136204286Y-137957419D01*
X136204286Y-137957419D02*
X136823333Y-137957419D01*
X142656667Y-137959800D02*
X142799524Y-138007419D01*
X142799524Y-138007419D02*
X143037619Y-138007419D01*
X143037619Y-138007419D02*
X143132857Y-137959800D01*
X143132857Y-137959800D02*
X143180476Y-137912180D01*
X143180476Y-137912180D02*
X143228095Y-137816942D01*
X143228095Y-137816942D02*
X143228095Y-137721704D01*
X143228095Y-137721704D02*
X143180476Y-137626466D01*
X143180476Y-137626466D02*
X143132857Y-137578847D01*
X143132857Y-137578847D02*
X143037619Y-137531228D01*
X143037619Y-137531228D02*
X142847143Y-137483609D01*
X142847143Y-137483609D02*
X142751905Y-137435990D01*
X142751905Y-137435990D02*
X142704286Y-137388371D01*
X142704286Y-137388371D02*
X142656667Y-137293133D01*
X142656667Y-137293133D02*
X142656667Y-137197895D01*
X142656667Y-137197895D02*
X142704286Y-137102657D01*
X142704286Y-137102657D02*
X142751905Y-137055038D01*
X142751905Y-137055038D02*
X142847143Y-137007419D01*
X142847143Y-137007419D02*
X143085238Y-137007419D01*
X143085238Y-137007419D02*
X143228095Y-137055038D01*
X143561429Y-137007419D02*
X143799524Y-138007419D01*
X143799524Y-138007419D02*
X143990000Y-137293133D01*
X143990000Y-137293133D02*
X144180476Y-138007419D01*
X144180476Y-138007419D02*
X144418572Y-137007419D01*
X144704286Y-137007419D02*
X145323333Y-137007419D01*
X145323333Y-137007419D02*
X144990000Y-137388371D01*
X144990000Y-137388371D02*
X145132857Y-137388371D01*
X145132857Y-137388371D02*
X145228095Y-137435990D01*
X145228095Y-137435990D02*
X145275714Y-137483609D01*
X145275714Y-137483609D02*
X145323333Y-137578847D01*
X145323333Y-137578847D02*
X145323333Y-137816942D01*
X145323333Y-137816942D02*
X145275714Y-137912180D01*
X145275714Y-137912180D02*
X145228095Y-137959800D01*
X145228095Y-137959800D02*
X145132857Y-138007419D01*
X145132857Y-138007419D02*
X144847143Y-138007419D01*
X144847143Y-138007419D02*
X144751905Y-137959800D01*
X144751905Y-137959800D02*
X144704286Y-137912180D01*
D11*
X155454819Y-121214285D02*
X154454819Y-121214285D01*
X154454819Y-121214285D02*
X155169104Y-120880952D01*
X155169104Y-120880952D02*
X154454819Y-120547619D01*
X154454819Y-120547619D02*
X155454819Y-120547619D01*
X155454819Y-119928571D02*
X155407200Y-120023809D01*
X155407200Y-120023809D02*
X155359580Y-120071428D01*
X155359580Y-120071428D02*
X155264342Y-120119047D01*
X155264342Y-120119047D02*
X154978628Y-120119047D01*
X154978628Y-120119047D02*
X154883390Y-120071428D01*
X154883390Y-120071428D02*
X154835771Y-120023809D01*
X154835771Y-120023809D02*
X154788152Y-119928571D01*
X154788152Y-119928571D02*
X154788152Y-119785714D01*
X154788152Y-119785714D02*
X154835771Y-119690476D01*
X154835771Y-119690476D02*
X154883390Y-119642857D01*
X154883390Y-119642857D02*
X154978628Y-119595238D01*
X154978628Y-119595238D02*
X155264342Y-119595238D01*
X155264342Y-119595238D02*
X155359580Y-119642857D01*
X155359580Y-119642857D02*
X155407200Y-119690476D01*
X155407200Y-119690476D02*
X155454819Y-119785714D01*
X155454819Y-119785714D02*
X155454819Y-119928571D01*
X154788152Y-119309523D02*
X154788152Y-118928571D01*
X154454819Y-119166666D02*
X155311961Y-119166666D01*
X155311961Y-119166666D02*
X155407200Y-119119047D01*
X155407200Y-119119047D02*
X155454819Y-119023809D01*
X155454819Y-119023809D02*
X155454819Y-118928571D01*
X155454819Y-118452380D02*
X155407200Y-118547618D01*
X155407200Y-118547618D02*
X155359580Y-118595237D01*
X155359580Y-118595237D02*
X155264342Y-118642856D01*
X155264342Y-118642856D02*
X154978628Y-118642856D01*
X154978628Y-118642856D02*
X154883390Y-118595237D01*
X154883390Y-118595237D02*
X154835771Y-118547618D01*
X154835771Y-118547618D02*
X154788152Y-118452380D01*
X154788152Y-118452380D02*
X154788152Y-118309523D01*
X154788152Y-118309523D02*
X154835771Y-118214285D01*
X154835771Y-118214285D02*
X154883390Y-118166666D01*
X154883390Y-118166666D02*
X154978628Y-118119047D01*
X154978628Y-118119047D02*
X155264342Y-118119047D01*
X155264342Y-118119047D02*
X155359580Y-118166666D01*
X155359580Y-118166666D02*
X155407200Y-118214285D01*
X155407200Y-118214285D02*
X155454819Y-118309523D01*
X155454819Y-118309523D02*
X155454819Y-118452380D01*
X155454819Y-117690475D02*
X154788152Y-117690475D01*
X154978628Y-117690475D02*
X154883390Y-117642856D01*
X154883390Y-117642856D02*
X154835771Y-117595237D01*
X154835771Y-117595237D02*
X154788152Y-117499999D01*
X154788152Y-117499999D02*
X154788152Y-117404761D01*
X155550057Y-117309523D02*
X155550057Y-116547618D01*
X154931009Y-115976189D02*
X154978628Y-115833332D01*
X154978628Y-115833332D02*
X155026247Y-115785713D01*
X155026247Y-115785713D02*
X155121485Y-115738094D01*
X155121485Y-115738094D02*
X155264342Y-115738094D01*
X155264342Y-115738094D02*
X155359580Y-115785713D01*
X155359580Y-115785713D02*
X155407200Y-115833332D01*
X155407200Y-115833332D02*
X155454819Y-115928570D01*
X155454819Y-115928570D02*
X155454819Y-116309522D01*
X155454819Y-116309522D02*
X154454819Y-116309522D01*
X154454819Y-116309522D02*
X154454819Y-115976189D01*
X154454819Y-115976189D02*
X154502438Y-115880951D01*
X154502438Y-115880951D02*
X154550057Y-115833332D01*
X154550057Y-115833332D02*
X154645295Y-115785713D01*
X154645295Y-115785713D02*
X154740533Y-115785713D01*
X154740533Y-115785713D02*
X154835771Y-115833332D01*
X154835771Y-115833332D02*
X154883390Y-115880951D01*
X154883390Y-115880951D02*
X154931009Y-115976189D01*
X154931009Y-115976189D02*
X154931009Y-116309522D01*
D10*
X125656667Y-137909800D02*
X125799524Y-137957419D01*
X125799524Y-137957419D02*
X126037619Y-137957419D01*
X126037619Y-137957419D02*
X126132857Y-137909800D01*
X126132857Y-137909800D02*
X126180476Y-137862180D01*
X126180476Y-137862180D02*
X126228095Y-137766942D01*
X126228095Y-137766942D02*
X126228095Y-137671704D01*
X126228095Y-137671704D02*
X126180476Y-137576466D01*
X126180476Y-137576466D02*
X126132857Y-137528847D01*
X126132857Y-137528847D02*
X126037619Y-137481228D01*
X126037619Y-137481228D02*
X125847143Y-137433609D01*
X125847143Y-137433609D02*
X125751905Y-137385990D01*
X125751905Y-137385990D02*
X125704286Y-137338371D01*
X125704286Y-137338371D02*
X125656667Y-137243133D01*
X125656667Y-137243133D02*
X125656667Y-137147895D01*
X125656667Y-137147895D02*
X125704286Y-137052657D01*
X125704286Y-137052657D02*
X125751905Y-137005038D01*
X125751905Y-137005038D02*
X125847143Y-136957419D01*
X125847143Y-136957419D02*
X126085238Y-136957419D01*
X126085238Y-136957419D02*
X126228095Y-137005038D01*
X126561429Y-136957419D02*
X126799524Y-137957419D01*
X126799524Y-137957419D02*
X126990000Y-137243133D01*
X126990000Y-137243133D02*
X127180476Y-137957419D01*
X127180476Y-137957419D02*
X127418572Y-136957419D01*
X128323333Y-137957419D02*
X127751905Y-137957419D01*
X128037619Y-137957419D02*
X128037619Y-136957419D01*
X128037619Y-136957419D02*
X127942381Y-137100276D01*
X127942381Y-137100276D02*
X127847143Y-137195514D01*
X127847143Y-137195514D02*
X127751905Y-137243133D01*
X135425625Y-81472007D02*
X136132732Y-80764900D01*
X136166403Y-82212785D02*
X136267418Y-81640366D01*
X135762342Y-81808724D02*
X136469449Y-81101618D01*
X136469449Y-81101618D02*
X136738823Y-81370992D01*
X136738823Y-81370992D02*
X136772495Y-81472007D01*
X136772495Y-81472007D02*
X136772495Y-81539350D01*
X136772495Y-81539350D02*
X136738823Y-81640366D01*
X136738823Y-81640366D02*
X136637808Y-81741381D01*
X136637808Y-81741381D02*
X136536792Y-81775053D01*
X136536792Y-81775053D02*
X136469449Y-81775053D01*
X136469449Y-81775053D02*
X136368434Y-81741381D01*
X136368434Y-81741381D02*
X136099060Y-81472007D01*
X137075540Y-81842396D02*
X137142884Y-81842396D01*
X137142884Y-81842396D02*
X137243899Y-81876068D01*
X137243899Y-81876068D02*
X137412258Y-82044427D01*
X137412258Y-82044427D02*
X137445930Y-82145442D01*
X137445930Y-82145442D02*
X137445930Y-82212785D01*
X137445930Y-82212785D02*
X137412258Y-82313801D01*
X137412258Y-82313801D02*
X137344914Y-82381144D01*
X137344914Y-82381144D02*
X137210227Y-82448488D01*
X137210227Y-82448488D02*
X136402105Y-82448488D01*
X136402105Y-82448488D02*
X136839838Y-82886220D01*
X140178950Y-79034057D02*
X140583011Y-79438118D01*
X139673874Y-79943194D02*
X140380980Y-79236087D01*
X136087831Y-76357153D02*
X136188847Y-75784733D01*
X135683770Y-75953092D02*
X136390877Y-75245985D01*
X136390877Y-75245985D02*
X136660251Y-75515359D01*
X136660251Y-75515359D02*
X136693923Y-75616374D01*
X136693923Y-75616374D02*
X136693923Y-75683718D01*
X136693923Y-75683718D02*
X136660251Y-75784733D01*
X136660251Y-75784733D02*
X136559236Y-75885748D01*
X136559236Y-75885748D02*
X136458221Y-75919420D01*
X136458221Y-75919420D02*
X136390877Y-75919420D01*
X136390877Y-75919420D02*
X136289862Y-75885748D01*
X136289862Y-75885748D02*
X136020488Y-75616374D01*
X152300000Y-128200000D02*
X152300000Y-128400000D01*
X152300000Y-128300000D02*
X152700000Y-128300000D01*
X152300000Y-128400000D02*
X152300000Y-128200000D01*
X152500000Y-128200000D02*
X152500000Y-128400000D01*
X152700000Y-128400000D02*
X152700000Y-128200000D01*
X164000000Y-91500000D02*
X164000000Y-90500000D01*
X164500000Y-86000000D02*
X163500000Y-86000000D01*
X164500000Y-91000000D02*
X163500000Y-91000000D01*
X169500000Y-91500000D02*
X169500000Y-90500000D01*
X170000000Y-86000000D02*
X169000000Y-86000000D01*
X170000000Y-91000000D02*
X169000000Y-91000000D01*
X173500000Y-84000000D02*
X173500000Y-88500000D01*
X173500000Y-88500000D02*
X173500000Y-93000000D01*
X173500000Y-93000000D02*
X179500000Y-93000000D01*
X179000000Y-84000000D02*
X173500000Y-84000000D01*
X179000000Y-84000000D02*
X179500000Y-85500000D01*
X179500000Y-94500000D02*
X179500000Y-85500000D01*
X129700000Y-99200000D02*
X129700000Y-98500000D01*
X129700000Y-99200000D02*
X129700000Y-99900000D01*
X130500000Y-99200000D02*
X129700000Y-99200000D01*
X130500000Y-99200000D02*
X130500000Y-98500000D01*
X130500000Y-99200000D02*
X131300000Y-99200000D01*
X130500000Y-99900000D02*
X130500000Y-99200000D01*
X131300000Y-99200000D02*
X131300000Y-98500000D01*
X131300000Y-99200000D02*
X131300000Y-99900000D01*
X176200000Y-144800000D02*
X176200000Y-144100000D01*
X176200000Y-144800000D02*
X176200000Y-145500000D01*
X177000000Y-144100000D02*
X177000000Y-144900000D01*
X177000000Y-144800000D02*
X176200000Y-144800000D01*
X177000000Y-144800000D02*
X177000000Y-145500000D01*
X177000000Y-144800000D02*
X177800000Y-144800000D01*
X177800000Y-144800000D02*
X177800000Y-144100000D01*
X177800000Y-144800000D02*
X177800000Y-145500000D01*
X150000000Y-91200000D02*
X149300000Y-91200000D01*
X150000000Y-91200000D02*
X150700000Y-91200000D01*
X150000000Y-92000000D02*
X149300000Y-92000000D01*
X150000000Y-92000000D02*
X150000000Y-91200000D01*
X150000000Y-92000000D02*
X150000000Y-92800000D01*
X150000000Y-92800000D02*
X149300000Y-92800000D01*
X150000000Y-92800000D02*
X150700000Y-92800000D01*
X150700000Y-92000000D02*
X150000000Y-92000000D01*
D12*
X140200000Y-66710000D02*
X143800000Y-66710000D01*
X140161522Y-66698478D02*
G75*
G02*
X142000000Y-62259999I1838478J1838478D01*
G01*
X142000000Y-62260000D02*
G75*
G02*
X143838478Y-66698478I0J-2600000D01*
G01*
X148200000Y-82350000D02*
X151800000Y-82350000D01*
X148161522Y-82338478D02*
G75*
G02*
X150000000Y-77899999I1838478J1838478D01*
G01*
X150000000Y-77900000D02*
G75*
G02*
X151838478Y-82338478I0J-2600000D01*
G01*
D10*
X156000000Y-84200000D02*
X155300000Y-84200000D01*
X156000000Y-84200000D02*
X156700000Y-84200000D01*
X156000000Y-85000000D02*
X155300000Y-85000000D01*
X156000000Y-85000000D02*
X156000000Y-84200000D01*
X156000000Y-85000000D02*
X156000000Y-85800000D01*
X156000000Y-85800000D02*
X155300000Y-85800000D01*
X156000000Y-85800000D02*
X156700000Y-85800000D01*
X156700000Y-85000000D02*
X156000000Y-85000000D01*
D12*
X156200000Y-66850000D02*
X159800000Y-66850000D01*
X156161522Y-66838478D02*
G75*
G02*
X158000000Y-62399999I1838478J1838478D01*
G01*
X158000000Y-62400000D02*
G75*
G02*
X159838478Y-66838478I0J-2600000D01*
G01*
D10*
X120500000Y-85500000D02*
X120500000Y-93500000D01*
X120500000Y-85500000D02*
X121000000Y-84000000D01*
X120500000Y-93000000D02*
X126500000Y-93000000D01*
X126500000Y-84000000D02*
X121000000Y-84000000D01*
X126500000Y-88500000D02*
X126500000Y-84000000D01*
X126500000Y-93000000D02*
X126500000Y-88500000D01*
X130000000Y-86000000D02*
X131000000Y-86000000D01*
X130000000Y-91000000D02*
X131000000Y-91000000D01*
X130500000Y-85500000D02*
X130500000Y-86500000D01*
X135500000Y-86000000D02*
X136500000Y-86000000D01*
X135500000Y-91000000D02*
X136500000Y-91000000D01*
X136000000Y-85500000D02*
X136000000Y-86500000D01*
X147300000Y-128200000D02*
X147300000Y-128400000D01*
X147300000Y-128300000D02*
X147700000Y-128300000D01*
X147300000Y-128400000D02*
X147300000Y-128200000D01*
X147500000Y-128200000D02*
X147500000Y-128400000D01*
X147700000Y-128400000D02*
X147700000Y-128200000D01*
X136280000Y-98875000D02*
X163720000Y-98875000D01*
X163720000Y-125125000D01*
X136280000Y-125125000D01*
X136280000Y-98875000D01*
X145500000Y-61000000D02*
X145500000Y-67000000D01*
X145500000Y-67000000D02*
X150000000Y-67000000D01*
X147500000Y-70500000D02*
X147500000Y-71500000D01*
X147500000Y-76000000D02*
X147500000Y-77000000D01*
X150000000Y-67000000D02*
X154500000Y-67000000D01*
X152500000Y-70500000D02*
X152500000Y-71500000D01*
X152500000Y-76000000D02*
X152500000Y-77000000D01*
X153000000Y-71000000D02*
X152000000Y-71000000D01*
X153000000Y-76500000D02*
X152000000Y-76500000D01*
X154500000Y-61000000D02*
X145500000Y-61000000D01*
X154500000Y-67000000D02*
X154500000Y-61000000D01*
X121700000Y-99200000D02*
X121700000Y-98500000D01*
X121700000Y-99200000D02*
X121700000Y-99900000D01*
X122500000Y-99200000D02*
X121700000Y-99200000D01*
X122500000Y-99200000D02*
X122500000Y-98500000D01*
X122500000Y-99200000D02*
X123300000Y-99200000D01*
X122500000Y-99900000D02*
X122500000Y-99200000D01*
X123300000Y-99200000D02*
X123300000Y-98500000D01*
X123300000Y-99200000D02*
X123300000Y-99900000D01*
X143300000Y-82000000D02*
X144000000Y-82000000D01*
X144000000Y-81200000D02*
X143300000Y-81200000D01*
X144000000Y-81200000D02*
X144700000Y-81200000D01*
X144000000Y-82000000D02*
X144000000Y-81200000D01*
X144000000Y-82000000D02*
X144000000Y-82800000D01*
X144000000Y-82000000D02*
X144700000Y-82000000D01*
X144000000Y-82800000D02*
X143300000Y-82800000D01*
X144000000Y-82800000D02*
X144700000Y-82800000D01*
X157979184Y-77485281D02*
X157272078Y-78192388D01*
X161514718Y-81020815D02*
X160807611Y-81727922D01*
X161514718Y-81727922D02*
X160807611Y-81020815D01*
X161868272Y-73596194D02*
X161161165Y-74303300D01*
X162928932Y-69707106D02*
X166110912Y-72889087D01*
X165403806Y-77131727D02*
X164696699Y-77838834D01*
X165403806Y-77838834D02*
X164696699Y-77131727D01*
X166110912Y-72889087D02*
X169292893Y-76071067D01*
X167171572Y-65464466D02*
X162928932Y-69707106D01*
X169292893Y-76071067D02*
X173535533Y-71828427D01*
X173535533Y-71828427D02*
X167171572Y-65464466D01*
D12*
X139765000Y-106460000D02*
X139765000Y-111760000D01*
X139765000Y-111760000D02*
X160205000Y-111760000D01*
X160205000Y-106460000D02*
X139765000Y-106460000D01*
X160205000Y-108110000D02*
X160205000Y-106460000D01*
X160205000Y-111760000D02*
X160205000Y-110110000D01*
X160205000Y-110110000D02*
G75*
G02*
X160205000Y-108110000I0J1000000D01*
G01*
X162360000Y-145825000D02*
X162360000Y-144275000D01*
X162360000Y-145825000D02*
X162660000Y-145825000D01*
X162660000Y-148625000D02*
X162660000Y-145825000D01*
X164810000Y-142575000D02*
X165610000Y-142575000D01*
X165210000Y-143025000D02*
X164810000Y-142575000D01*
X165610000Y-142575000D02*
X165210000Y-143025000D01*
X170360000Y-145825000D02*
X170660000Y-145825000D01*
X170360000Y-148625000D02*
X170360000Y-145825000D01*
X170660000Y-145825000D02*
X170660000Y-144275000D01*
D10*
X155300000Y-82000000D02*
X156000000Y-82000000D01*
X156000000Y-81200000D02*
X155300000Y-81200000D01*
X156000000Y-81200000D02*
X156700000Y-81200000D01*
X156000000Y-82000000D02*
X156000000Y-81200000D01*
X156000000Y-82000000D02*
X156000000Y-82800000D01*
X156000000Y-82000000D02*
X156700000Y-82000000D01*
X156000000Y-82800000D02*
X155300000Y-82800000D01*
X156000000Y-82800000D02*
X156700000Y-82800000D01*
X172700000Y-98200000D02*
X172700000Y-97500000D01*
X172700000Y-98200000D02*
X172700000Y-98900000D01*
X173500000Y-97500000D02*
X173500000Y-98200000D01*
X173500000Y-98200000D02*
X172700000Y-98200000D01*
X173500000Y-98200000D02*
X173500000Y-98900000D01*
X173500000Y-98200000D02*
X174300000Y-98200000D01*
X174300000Y-98200000D02*
X174300000Y-97500000D01*
X174300000Y-98200000D02*
X174300000Y-98900000D01*
X176700000Y-98200000D02*
X176700000Y-97500000D01*
X176700000Y-98200000D02*
X176700000Y-98900000D01*
X177500000Y-97500000D02*
X177500000Y-98200000D01*
X177500000Y-98200000D02*
X176700000Y-98200000D01*
X177500000Y-98200000D02*
X177500000Y-98900000D01*
X177500000Y-98200000D02*
X178300000Y-98200000D01*
X178300000Y-98200000D02*
X178300000Y-97500000D01*
X178300000Y-98200000D02*
X178300000Y-98900000D01*
X120800000Y-138200000D02*
X120800000Y-138400000D01*
X120800000Y-138300000D02*
X121200000Y-138300000D01*
X120800000Y-138400000D02*
X120800000Y-138200000D01*
X121000000Y-138200000D02*
X121000000Y-138400000D01*
X121200000Y-138400000D02*
X121200000Y-138200000D01*
D12*
X123430000Y-82850000D02*
X127030000Y-82850000D01*
X123391522Y-82838478D02*
G75*
G02*
X125230000Y-78399999I1838478J1838478D01*
G01*
X125230000Y-78400000D02*
G75*
G02*
X127068478Y-82838478I0J-2600000D01*
G01*
D10*
X168700000Y-98200000D02*
X168700000Y-97500000D01*
X168700000Y-98200000D02*
X168700000Y-98900000D01*
X169500000Y-97500000D02*
X169500000Y-98200000D01*
X169500000Y-98200000D02*
X168700000Y-98200000D01*
X169500000Y-98200000D02*
X169500000Y-98900000D01*
X169500000Y-98200000D02*
X170300000Y-98200000D01*
X170300000Y-98200000D02*
X170300000Y-97500000D01*
X170300000Y-98200000D02*
X170300000Y-98900000D01*
D12*
X172930000Y-82850000D02*
X176530000Y-82850000D01*
X172891522Y-82838478D02*
G75*
G02*
X174730000Y-78399999I1838478J1838478D01*
G01*
X174730000Y-78400000D02*
G75*
G02*
X176568478Y-82838478I0J-2600000D01*
G01*
D10*
X120800000Y-134200000D02*
X120800000Y-134400000D01*
X120800000Y-134300000D02*
X121200000Y-134300000D01*
X120800000Y-134400000D02*
X120800000Y-134200000D01*
X121000000Y-134200000D02*
X121000000Y-134400000D01*
X121200000Y-134400000D02*
X121200000Y-134200000D01*
X160325000Y-136100000D02*
X174325000Y-136100000D01*
X160325000Y-149100000D02*
X160325000Y-136100000D01*
D12*
X160945000Y-136770000D02*
X162275000Y-136770000D01*
X160945000Y-138100000D02*
X160945000Y-136770000D01*
X163545000Y-136770000D02*
X173765000Y-136770000D01*
X163545000Y-139430000D02*
X163545000Y-136770000D01*
X163545000Y-139430000D02*
X173765000Y-139430000D01*
X173765000Y-139430000D02*
X173765000Y-136770000D01*
D10*
X174325000Y-136100000D02*
X174325000Y-149100000D01*
X176200000Y-136700000D02*
X176200000Y-137500000D01*
X176200000Y-136800000D02*
X176200000Y-136100000D01*
X177000000Y-136100000D02*
X177000000Y-136800000D01*
X177000000Y-136800000D02*
X176200000Y-136800000D01*
X177000000Y-136800000D02*
X177000000Y-137500000D01*
X177000000Y-136800000D02*
X177800000Y-136800000D01*
X177800000Y-136800000D02*
X177800000Y-136100000D01*
X177800000Y-136800000D02*
X177800000Y-137500000D01*
D12*
X146670000Y-116630000D02*
X148000000Y-116630000D01*
X146670000Y-117960000D02*
X146670000Y-116630000D01*
X146670000Y-119230000D02*
X146670000Y-121830000D01*
X146670000Y-119230000D02*
X149330000Y-119230000D01*
X146670000Y-121830000D02*
X149330000Y-121830000D01*
X149330000Y-119230000D02*
X149330000Y-121830000D01*
D10*
X141700000Y-129475000D02*
X141700000Y-128775000D01*
X141700000Y-129475000D02*
X141700000Y-130175000D01*
X142500000Y-128775000D02*
X142500000Y-129475000D01*
X142500000Y-129475000D02*
X141700000Y-129475000D01*
X142500000Y-129475000D02*
X142500000Y-130175000D01*
X142500000Y-129475000D02*
X143300000Y-129475000D01*
X143300000Y-129475000D02*
X143300000Y-128775000D01*
X143300000Y-129475000D02*
X143300000Y-130175000D01*
X144000000Y-84200000D02*
X143300000Y-84200000D01*
X144000000Y-84200000D02*
X144700000Y-84200000D01*
X144000000Y-85000000D02*
X143300000Y-85000000D01*
X144000000Y-85000000D02*
X144000000Y-84200000D01*
X144000000Y-85000000D02*
X144000000Y-85800000D01*
X144000000Y-85800000D02*
X143300000Y-85800000D01*
X144000000Y-85800000D02*
X144700000Y-85800000D01*
X144700000Y-85000000D02*
X144000000Y-85000000D01*
X156700000Y-129300000D02*
X156700000Y-128600000D01*
X156700000Y-129300000D02*
X156700000Y-130000000D01*
X157500000Y-128600000D02*
X157500000Y-129300000D01*
X157500000Y-129300000D02*
X156700000Y-129300000D01*
X157500000Y-129300000D02*
X157500000Y-130000000D01*
X157500000Y-129300000D02*
X158300000Y-129300000D01*
X158300000Y-129300000D02*
X158300000Y-128600000D01*
X158300000Y-129300000D02*
X158300000Y-130000000D01*
X149300000Y-89000000D02*
X150000000Y-89000000D01*
X150000000Y-88200000D02*
X149300000Y-88200000D01*
X150000000Y-88200000D02*
X150700000Y-88200000D01*
X150000000Y-89000000D02*
X150000000Y-88200000D01*
X150000000Y-89000000D02*
X150000000Y-89800000D01*
X150000000Y-89000000D02*
X150700000Y-89000000D01*
X150000000Y-89800000D02*
X149300000Y-89800000D01*
X150000000Y-89800000D02*
X150700000Y-89800000D01*
X159100000Y-89000000D02*
X159800000Y-89000000D01*
X159800000Y-88200000D02*
X159100000Y-88200000D01*
X159800000Y-88200000D02*
X160500000Y-88200000D01*
X159800000Y-89000000D02*
X159800000Y-88200000D01*
X159800000Y-89000000D02*
X159800000Y-89800000D01*
X159800000Y-89000000D02*
X160500000Y-89000000D01*
X159800000Y-89800000D02*
X159100000Y-89800000D01*
X159800000Y-89800000D02*
X160500000Y-89800000D01*
X125700000Y-99200000D02*
X125700000Y-98500000D01*
X125700000Y-99200000D02*
X125700000Y-99900000D01*
X126500000Y-99200000D02*
X125700000Y-99200000D01*
X126500000Y-99200000D02*
X126500000Y-98500000D01*
X126500000Y-99200000D02*
X127300000Y-99200000D01*
X126500000Y-99900000D02*
X126500000Y-99200000D01*
X127300000Y-99200000D02*
X127300000Y-98500000D01*
X127300000Y-99200000D02*
X127300000Y-99900000D01*
D12*
X149590000Y-141730000D02*
X149590000Y-145730000D01*
X150140000Y-141730000D02*
X149590000Y-141730000D01*
X155270000Y-145850000D02*
X155820000Y-145850000D01*
X155820000Y-145850000D02*
X155820000Y-141850000D01*
D10*
X159800000Y-91200000D02*
X159100000Y-91200000D01*
X159800000Y-91200000D02*
X160500000Y-91200000D01*
X159800000Y-92000000D02*
X159100000Y-92000000D01*
X159800000Y-92000000D02*
X159800000Y-91200000D01*
X159800000Y-92000000D02*
X159800000Y-92800000D01*
X159800000Y-92800000D02*
X159100000Y-92800000D01*
X159800000Y-92800000D02*
X160500000Y-92800000D01*
X160500000Y-92000000D02*
X159800000Y-92000000D01*
D12*
X132590000Y-141680000D02*
X132590000Y-145680000D01*
X133140000Y-141680000D02*
X132590000Y-141680000D01*
X138270000Y-145800000D02*
X138820000Y-145800000D01*
X138820000Y-145800000D02*
X138820000Y-141800000D01*
D10*
X140300000Y-91200000D02*
X139600000Y-91200000D01*
X140300000Y-91200000D02*
X141000000Y-91200000D01*
X140300000Y-92000000D02*
X139600000Y-92000000D01*
X140300000Y-92000000D02*
X140300000Y-91200000D01*
X140300000Y-92000000D02*
X140300000Y-92800000D01*
X140300000Y-92800000D02*
X139600000Y-92800000D01*
X140300000Y-92800000D02*
X141000000Y-92800000D01*
X141000000Y-92000000D02*
X140300000Y-92000000D01*
D12*
X141090000Y-141730000D02*
X141090000Y-145730000D01*
X141640000Y-141730000D02*
X141090000Y-141730000D01*
X146770000Y-145850000D02*
X147320000Y-145850000D01*
X147320000Y-145850000D02*
X147320000Y-141850000D01*
D10*
X121200000Y-143200000D02*
X121200000Y-142500000D01*
X121200000Y-143200000D02*
X121200000Y-143900000D01*
X122000000Y-142500000D02*
X122000000Y-143200000D01*
X122000000Y-143200000D02*
X121200000Y-143200000D01*
X122000000Y-143200000D02*
X122000000Y-143900000D01*
X122000000Y-143200000D02*
X122800000Y-143200000D01*
X122800000Y-143200000D02*
X122800000Y-142500000D01*
X122800000Y-143200000D02*
X122800000Y-143900000D01*
D12*
X151320000Y-116630000D02*
X152650000Y-116630000D01*
X151320000Y-117960000D02*
X151320000Y-116630000D01*
X151320000Y-119230000D02*
X151320000Y-121830000D01*
X151320000Y-119230000D02*
X153980000Y-119230000D01*
X151320000Y-121830000D02*
X153980000Y-121830000D01*
X153980000Y-119230000D02*
X153980000Y-121830000D01*
D10*
X139600000Y-89000000D02*
X140300000Y-89000000D01*
X140300000Y-88200000D02*
X139600000Y-88200000D01*
X140300000Y-88200000D02*
X141000000Y-88200000D01*
X140300000Y-89000000D02*
X140300000Y-88200000D01*
X140300000Y-89000000D02*
X140300000Y-89800000D01*
X140300000Y-89000000D02*
X141000000Y-89000000D01*
X140300000Y-89800000D02*
X139600000Y-89800000D01*
X140300000Y-89800000D02*
X141000000Y-89800000D01*
D12*
X124090000Y-141680000D02*
X124090000Y-145680000D01*
X124640000Y-141680000D02*
X124090000Y-141680000D01*
X129770000Y-145800000D02*
X130320000Y-145800000D01*
X130320000Y-145800000D02*
X130320000Y-141800000D01*
D10*
X126539845Y-71939340D02*
X130782485Y-76181980D01*
X130782485Y-76181980D02*
X133964466Y-73000000D01*
X132903806Y-65575379D02*
X126539845Y-71939340D01*
X133964466Y-73000000D02*
X137146446Y-69818019D01*
X134671573Y-77242640D02*
X135378679Y-77949747D01*
X137146446Y-69818019D02*
X132903806Y-65575379D01*
X138207106Y-73707106D02*
X138914213Y-74414213D01*
X138560660Y-81131728D02*
X139267767Y-81838834D01*
X138914213Y-73707106D02*
X138207106Y-74414213D01*
X142096194Y-77596194D02*
X142803301Y-78303301D01*
X142803301Y-77596194D02*
X142096194Y-78303301D01*
%LPC*%
D13*
X152500000Y-129000000D03*
X152500000Y-127600000D03*
D14*
X165500000Y-91000000D03*
X165500000Y-86000000D03*
X171000000Y-91000000D03*
X171000000Y-86000000D03*
D15*
X176500000Y-91000000D03*
X176500000Y-86000000D03*
D16*
X130500000Y-97400000D03*
X130500000Y-101000000D03*
D17*
X177000000Y-146600000D03*
X177000000Y-143000000D03*
D18*
X148200000Y-92000000D03*
X151800000Y-92000000D03*
D19*
X140730000Y-64860000D03*
D20*
X142000000Y-64860000D03*
X143270000Y-64860000D03*
D19*
X148730000Y-80500000D03*
D20*
X150000000Y-80500000D03*
X151270000Y-80500000D03*
D18*
X154200000Y-85000000D03*
X157800000Y-85000000D03*
D19*
X156730000Y-65000000D03*
D20*
X158000000Y-65000000D03*
X159270000Y-65000000D03*
D14*
X134500000Y-86000000D03*
X134500000Y-91000000D03*
X129000000Y-86000000D03*
X129000000Y-91000000D03*
D15*
X123500000Y-86000000D03*
X123500000Y-91000000D03*
D13*
X147500000Y-129000000D03*
X147500000Y-127600000D03*
D21*
X167500000Y-109000000D03*
D22*
X146220000Y-100875000D03*
X148760000Y-100875000D03*
X151300000Y-100875000D03*
X153840000Y-100875000D03*
D14*
X152500000Y-75000000D03*
X147500000Y-75000000D03*
X152500000Y-69500000D03*
X147500000Y-69500000D03*
D15*
X152500000Y-64000000D03*
X147500000Y-64000000D03*
D21*
X132500000Y-131000000D03*
D16*
X122500000Y-97400000D03*
X122500000Y-101000000D03*
D23*
X145800000Y-82000000D03*
X142200000Y-82000000D03*
D21*
X167500000Y-131000000D03*
D14*
X162221825Y-80313708D03*
X158686291Y-76778174D03*
X166110912Y-76424621D03*
X162575378Y-72889087D03*
D15*
X170000000Y-72535533D03*
X166464466Y-69000000D03*
D24*
X158875000Y-105300000D03*
D25*
X156335000Y-105300000D03*
X153795000Y-105300000D03*
X151255000Y-105300000D03*
X148715000Y-105300000D03*
X146175000Y-105300000D03*
X143635000Y-105300000D03*
X141095000Y-105300000D03*
X141095000Y-112920000D03*
X143635000Y-112920000D03*
X146175000Y-112920000D03*
X148715000Y-112920000D03*
X151255000Y-112920000D03*
X153795000Y-112920000D03*
X156335000Y-112920000D03*
X158875000Y-112920000D03*
D26*
X165210000Y-144125000D03*
X165860000Y-144125000D03*
X166510000Y-144125000D03*
X167160000Y-144125000D03*
X167810000Y-144125000D03*
D27*
X163560000Y-145325000D03*
D28*
X163660000Y-144025000D03*
D29*
X163780000Y-146075000D03*
D30*
X163780000Y-147005000D03*
D31*
X164090000Y-144005000D03*
D32*
X165550000Y-147275000D03*
X167470000Y-147275000D03*
D31*
X168930000Y-144005000D03*
D30*
X169240000Y-147005000D03*
D29*
X169260000Y-146075000D03*
D28*
X169410000Y-144005000D03*
D27*
X169510000Y-145325000D03*
D23*
X157800000Y-82000000D03*
X154200000Y-82000000D03*
D17*
X173500000Y-100000000D03*
X173500000Y-96400000D03*
X177500000Y-100000000D03*
X177500000Y-96400000D03*
D13*
X121000000Y-139000000D03*
X121000000Y-137600000D03*
D19*
X123960000Y-81000000D03*
D20*
X125230000Y-81000000D03*
X126500000Y-81000000D03*
D17*
X169500000Y-100000000D03*
X169500000Y-96400000D03*
D21*
X132500000Y-109000000D03*
D19*
X173460000Y-81000000D03*
D20*
X174730000Y-81000000D03*
X176000000Y-81000000D03*
D13*
X121000000Y-135000000D03*
X121000000Y-133600000D03*
D33*
X162275000Y-138100000D03*
D34*
X164815000Y-138100000D03*
X167355000Y-138100000D03*
X169895000Y-138100000D03*
X172435000Y-138100000D03*
D17*
X177000000Y-138600000D03*
X177000000Y-135000000D03*
D35*
X148000000Y-120500000D03*
D36*
X148000000Y-117960000D03*
D17*
X142500000Y-131275000D03*
X142500000Y-127675000D03*
D18*
X142200000Y-85000000D03*
X145800000Y-85000000D03*
D17*
X157500000Y-131100000D03*
X157500000Y-127500000D03*
D23*
X151800000Y-89000000D03*
X148200000Y-89000000D03*
X161600000Y-89000000D03*
X158000000Y-89000000D03*
D16*
X126500000Y-97400000D03*
X126500000Y-101000000D03*
D37*
X150490000Y-140050000D03*
X150490000Y-147550000D03*
X154990000Y-140050000D03*
X154990000Y-147550000D03*
D18*
X158000000Y-92000000D03*
X161600000Y-92000000D03*
D37*
X133490000Y-140000000D03*
X133490000Y-147500000D03*
X137990000Y-140000000D03*
X137990000Y-147500000D03*
D18*
X138500000Y-92000000D03*
X142100000Y-92000000D03*
D37*
X141990000Y-140050000D03*
X141990000Y-147550000D03*
X146490000Y-140050000D03*
X146490000Y-147550000D03*
D17*
X122000000Y-145000000D03*
X122000000Y-141400000D03*
D36*
X152650000Y-117960000D03*
D35*
X152650000Y-120500000D03*
D23*
X142100000Y-89000000D03*
X138500000Y-89000000D03*
D37*
X124990000Y-140000000D03*
X124990000Y-147500000D03*
X129490000Y-140000000D03*
X129490000Y-147500000D03*
D14*
X141389087Y-76889087D03*
X137853553Y-80424621D03*
X137500000Y-73000000D03*
X133964466Y-76535534D03*
D15*
X133610912Y-69110912D03*
X130075379Y-72646446D03*
%LPD*%
M02*
