G04 #@! TF.GenerationSoftware,KiCad,Pcbnew,8.0.6-8.0.6-0~ubuntu24.04.1*
G04 #@! TF.CreationDate,2024-10-30T09:28:35+01:00*
G04 #@! TF.ProjectId,micromouse_pcb,6d696372-6f6d-46f7-9573-655f7063622e,rev?*
G04 #@! TF.SameCoordinates,Original*
G04 #@! TF.FileFunction,Soldermask,Bot*
G04 #@! TF.FilePolarity,Negative*
%FSLAX46Y46*%
G04 Gerber Fmt 4.6, Leading zero omitted, Abs format (unit mm)*
G04 Created by KiCad (PCBNEW 8.0.6-8.0.6-0~ubuntu24.04.1) date 2024-10-30 09:28:35*
%MOMM*%
%LPD*%
G01*
G04 APERTURE LIST*
G04 Aperture macros list*
%AMRoundRect*
0 Rectangle with rounded corners*
0 $1 Rounding radius*
0 $2 $3 $4 $5 $6 $7 $8 $9 X,Y pos of 4 corners*
0 Add a 4 corners polygon primitive as box body*
4,1,4,$2,$3,$4,$5,$6,$7,$8,$9,$2,$3,0*
0 Add four circle primitives for the rounded corners*
1,1,$1+$1,$2,$3*
1,1,$1+$1,$4,$5*
1,1,$1+$1,$6,$7*
1,1,$1+$1,$8,$9*
0 Add four rect primitives between the rounded corners*
20,1,$1+$1,$2,$3,$4,$5,0*
20,1,$1+$1,$4,$5,$6,$7,0*
20,1,$1+$1,$6,$7,$8,$9,0*
20,1,$1+$1,$8,$9,$2,$3,0*%
G04 Aperture macros list end*
%ADD10C,1.524000*%
%ADD11C,2.500000*%
%ADD12R,1.050000X1.500000*%
%ADD13O,1.050000X1.500000*%
%ADD14C,3.200000*%
%ADD15O,1.524000X2.000000*%
%ADD16R,1.600000X1.600000*%
%ADD17O,1.600000X1.600000*%
%ADD18O,1.350000X1.700000*%
%ADD19O,1.100000X1.500000*%
%ADD20R,1.700000X2.200000*%
%ADD21O,1.700000X2.200000*%
%ADD22O,1.700000X1.700000*%
%ADD23R,1.700000X1.700000*%
%ADD24RoundRect,0.384616X0.615384X-0.615384X0.615384X0.615384X-0.615384X0.615384X-0.615384X-0.615384X0*%
%ADD25RoundRect,0.384616X0.615384X0.615384X-0.615384X0.615384X-0.615384X-0.615384X0.615384X-0.615384X0*%
%ADD26RoundRect,0.384616X-0.615384X0.615384X-0.615384X-0.615384X0.615384X-0.615384X0.615384X0.615384X0*%
%ADD27R,1.500000X0.900000*%
%ADD28R,0.900000X1.500000*%
%ADD29C,1.500000*%
%ADD30C,2.000000*%
%ADD31R,3.900000X3.900000*%
%ADD32RoundRect,0.375000X0.375000X-0.625000X0.375000X0.625000X-0.375000X0.625000X-0.375000X-0.625000X0*%
%ADD33RoundRect,0.500000X1.400000X-0.500000X1.400000X0.500000X-1.400000X0.500000X-1.400000X-0.500000X0*%
G04 APERTURE END LIST*
D10*
X165500000Y-91000000D03*
X165500000Y-86000000D03*
X171000000Y-91000000D03*
X171000000Y-86000000D03*
D11*
X176500000Y-91000000D03*
X176500000Y-86000000D03*
D12*
X140730000Y-64860000D03*
D13*
X142000000Y-64860000D03*
X143270000Y-64860000D03*
D12*
X148730000Y-80500000D03*
D13*
X150000000Y-80500000D03*
X151270000Y-80500000D03*
D12*
X156730000Y-65000000D03*
D13*
X158000000Y-65000000D03*
X159270000Y-65000000D03*
D10*
X134500000Y-86000000D03*
X134500000Y-91000000D03*
X129000000Y-86000000D03*
X129000000Y-91000000D03*
D11*
X123500000Y-86000000D03*
X123500000Y-91000000D03*
D14*
X167500000Y-109000000D03*
D15*
X146220000Y-100875000D03*
X148760000Y-100875000D03*
X151300000Y-100875000D03*
X153840000Y-100875000D03*
D10*
X152500000Y-75000000D03*
X147500000Y-75000000D03*
X152500000Y-69500000D03*
X147500000Y-69500000D03*
D11*
X152500000Y-64000000D03*
X147500000Y-64000000D03*
D14*
X132500000Y-131000000D03*
X167500000Y-131000000D03*
D10*
X162221825Y-80313708D03*
X158686291Y-76778174D03*
X166110912Y-76424621D03*
X162575378Y-72889087D03*
D11*
X170000000Y-72535533D03*
X166464466Y-69000000D03*
D16*
X158875000Y-105300000D03*
D17*
X156335000Y-105300000D03*
X153795000Y-105300000D03*
X151255000Y-105300000D03*
X148715000Y-105300000D03*
X146175000Y-105300000D03*
X143635000Y-105300000D03*
X141095000Y-105300000D03*
X141095000Y-112920000D03*
X143635000Y-112920000D03*
X146175000Y-112920000D03*
X148715000Y-112920000D03*
X151255000Y-112920000D03*
X153795000Y-112920000D03*
X156335000Y-112920000D03*
X158875000Y-112920000D03*
D18*
X163780000Y-147005000D03*
D19*
X164090000Y-144005000D03*
X168930000Y-144005000D03*
D18*
X169240000Y-147005000D03*
D12*
X123960000Y-81000000D03*
D13*
X125230000Y-81000000D03*
X126500000Y-81000000D03*
D14*
X132500000Y-109000000D03*
D12*
X173460000Y-81000000D03*
D13*
X174730000Y-81000000D03*
X176000000Y-81000000D03*
D20*
X162275000Y-138100000D03*
D21*
X164815000Y-138100000D03*
X167355000Y-138100000D03*
X169895000Y-138100000D03*
X172435000Y-138100000D03*
D22*
X148000000Y-120500000D03*
D23*
X148000000Y-117960000D03*
X152650000Y-117960000D03*
D22*
X152650000Y-120500000D03*
D10*
X141389087Y-76889087D03*
X137853553Y-80424621D03*
X137500000Y-73000000D03*
X133964466Y-76535534D03*
D11*
X133610912Y-69110912D03*
X130075379Y-72646446D03*
D24*
X129500000Y-140100000D03*
X129500000Y-136500000D03*
D25*
X142100000Y-88000000D03*
X138500000Y-88000000D03*
D26*
X129500000Y-144500000D03*
X129500000Y-148100000D03*
X134000000Y-144500000D03*
X134000000Y-148100000D03*
D25*
X151800000Y-92000000D03*
X148200000Y-92000000D03*
X133000000Y-118500000D03*
X129400000Y-118500000D03*
X161600000Y-88000000D03*
X158000000Y-88000000D03*
X142100000Y-96000000D03*
X138500000Y-96000000D03*
X142100000Y-92000000D03*
X138500000Y-92000000D03*
D24*
X177000000Y-138600000D03*
X177000000Y-135000000D03*
D25*
X161600000Y-96000000D03*
X158000000Y-96000000D03*
D27*
X141235000Y-141770000D03*
X141235000Y-140500000D03*
X141235000Y-139230000D03*
X141235000Y-137960000D03*
X141235000Y-136690000D03*
X141235000Y-135420000D03*
X141235000Y-134150000D03*
X141235000Y-132880000D03*
X141235000Y-131610000D03*
X141235000Y-130340000D03*
X141235000Y-129070000D03*
X141235000Y-127800000D03*
X141235000Y-126530000D03*
X141235000Y-125260000D03*
D28*
X143000000Y-124010000D03*
X144270000Y-124010000D03*
X145540000Y-124010000D03*
X146810000Y-124010000D03*
X148080000Y-124010000D03*
X149350000Y-124010000D03*
X150620000Y-124010000D03*
X151890000Y-124010000D03*
X153160000Y-124010000D03*
X154430000Y-124010000D03*
X155700000Y-124010000D03*
X156970000Y-124010000D03*
D27*
X158735000Y-125260000D03*
X158735000Y-126530000D03*
X158735000Y-127800000D03*
X158735000Y-129070000D03*
X158735000Y-130340000D03*
X158735000Y-131610000D03*
X158735000Y-132880000D03*
X158735000Y-134150000D03*
X158735000Y-135420000D03*
X158735000Y-136690000D03*
X158735000Y-137960000D03*
X158735000Y-139230000D03*
X158735000Y-140500000D03*
X158735000Y-141770000D03*
D29*
X147485000Y-135010000D03*
D30*
X147735000Y-133260000D03*
D31*
X148485000Y-134050000D03*
D30*
X149235000Y-134760000D03*
D29*
X149485000Y-133010000D03*
D25*
X151800000Y-96000000D03*
X148200000Y-96000000D03*
D26*
X122000000Y-134000000D03*
X122000000Y-137600000D03*
D24*
X122000000Y-145000000D03*
X122000000Y-141400000D03*
D32*
X172300000Y-124650000D03*
X170000000Y-124650000D03*
D33*
X170000000Y-118350000D03*
D32*
X167700000Y-124650000D03*
D25*
X133000000Y-122750000D03*
X129400000Y-122750000D03*
X151800000Y-88000000D03*
X148200000Y-88000000D03*
D24*
X134000000Y-140100000D03*
X134000000Y-136500000D03*
D25*
X161600000Y-92000000D03*
X158000000Y-92000000D03*
M02*
